<?xml version="1.0" encoding="UTF-8" standalone="no"?>
<!DOCTYPE svg PUBLIC "-//W3C//DTD SVG 1.1//EN" "http://www.w3.org/Graphics/SVG/1.1/DTD/svg11.dtd">
<svg width="100%" height="100%" viewBox="0 0 258 64" version="1.1" xmlns="http://www.w3.org/2000/svg" xmlns:xlink="http://www.w3.org/1999/xlink" xml:space="preserve" xmlns:serif="http://www.serif.com/" style="fill-rule:evenodd;clip-rule:evenodd;stroke-linejoin:round;stroke-miterlimit:1.41421;">
    <g transform="matrix(1,0,0,1,-39,-41)">
        <rect x="240.091" y="49.643" width="16.004" height="52.65"/>
        <rect x="219.03" y="49.643" width="16.004" height="52.65"/>
        <path d="M206.383,66.451C210.437,66.451 213.725,63.155 213.725,59.091C213.725,55.026 210.437,51.728 206.383,51.728C202.329,51.728 199.043,55.026 199.043,59.091C199.043,63.155 202.329,66.451 206.383,66.451Z"/>
        <rect x="198.142" y="69.835" width="16.008" height="32.581"/>
        <path d="M177.435,83.999L172.488,69.713L156.13,69.713L168.723,102.293L182.847,102.293L195.672,69.822L182.494,69.834L177.435,83.999Z"/>
        <path d="M110.426,70.229C107.337,70.229 104.699,72.146 103.614,74.854C103.614,74.854 103.536,74.906 103.444,74.659C103.337,74.417 103.303,74.155 103.303,74.155C103.303,72.929 103.307,69.727 103.307,69.727L87.302,69.727L87.302,102.306L103.307,102.306L103.303,80.879C103.303,80.879 103.303,80.672 103.343,80.512C103.382,80.341 103.492,80.227 103.492,80.227C103.675,80.604 103.884,80.968 104.103,81.324C104.302,81.672 104.53,81.993 104.782,82.297C105.147,82.755 105.556,83.185 106.026,83.559L105.998,83.459C107.228,84.402 108.762,84.953 110.426,84.953C114.478,84.953 117.765,81.661 117.765,77.593C117.765,73.527 114.478,70.229 110.426,70.229Z"/>
        <path d="M65.5,86.569C63.65,89.229 60.001,89.019 57.092,88.999L57.092,77.044C60.1,77.059 63.589,76.512 65.5,78.947C66.628,81.203 66.628,84.369 65.5,86.569ZM57.092,54.537C58.5,54.468 60.153,54.489 61.506,54.54C63.137,54.711 64.659,55.558 65.334,57.193C66.122,58.661 66.011,60.926 65.162,62.338C63.198,64.916 60.189,64.541 57.092,64.608L57.092,54.537ZM84.089,83.293C83.69,78.328 81.405,72.54 75.771,70.851C76.994,70.467 78.032,68.871 78.778,68.117C82.712,63.693 83.471,56.011 81.102,50.476C78.398,44.483 71.98,43.015 66.122,42.507L40.245,42.507L40.245,102.293L66.551,102.293C70.208,102.126 73.553,101.316 76.651,99.678C82.572,96.404 84.316,89.846 84.089,83.293Z" style="fill-rule:nonzero;"/>
        <path d="M133.297,79.924C138.155,75.696 142.569,79.899 142.569,79.899L132.415,88.543C132.415,88.543 128.931,83.722 133.297,79.924ZM137.507,93.622L155.977,77.818C152.851,71.761 146.802,67.82 138.359,67.82C127.673,67.82 118.951,76.142 118.951,86.123C118.951,96.106 127.611,104.191 138.295,104.191C145.852,104.191 151.243,101.553 155.901,95.923L150.216,89.28C145.093,94.591 140.355,95.779 137.507,93.622Z" style="fill-rule:nonzero;"/>
        <path d="M273.354,79.924C278.207,75.696 282.623,79.899 282.623,79.899L272.469,88.543C272.469,88.543 268.984,83.722 273.354,79.924ZM277.558,93.622L296.028,77.818C292.902,71.761 286.859,67.82 278.412,67.82C267.729,67.82 259.001,76.142 259.001,86.123C259.001,96.106 267.669,104.191 278.352,104.191C285.906,104.191 291.298,101.553 295.957,95.923L290.273,89.28C285.152,94.591 280.413,95.779 277.558,93.622Z"/>
    </g>
</svg>
