<?xml version="1.0" encoding="UTF-8" standalone="no"?>
<svg
   version="1.0"
   width="2337.000000pt"
   height="724.000000pt"
   viewBox="0 0 2337.000000 724.000000"
   preserveAspectRatio="xMidYMid meet"
   id="svg69"
   xmlns="http://www.w3.org/2000/svg"
   xmlns:svg="http://www.w3.org/2000/svg">
  <defs
     id="defs73" />
  <g
     transform="translate(0.000000,724.000000) scale(0.100000,-0.100000)"
     fill="#000000"
     stroke="none"
     id="g67"
     style="fill:#000000;fill-opacity:1">
    <path
       d="M3445 7233 c-542 -33 -991 -150 -1445 -377 -863 -432 -1514 -1185 -1818 -2102 -213 -641 -238 -1355 -71 -2019 259 -1029 966 -1899 1924 -2364 372 -181 736 -287 1175 -343 157 -20 16770 -19 16940 0 822 96 1577 459 2155 1037 598 598 969 1393 1045 2235 24 277 8 664 -40 948 -151 880 -647 1698 -1361 2242 -527 402 -1111 639 -1794 727 -134 17 -504 18 -8400 19 -4543 0 -8282 -1 -8310 -3z m16644 -856 c633 -98 1139 -340 1569 -752 467 -447 745 -992 844 -1650 18 -122 18 -608 0 -730 -111 -740 -465 -1362 -1035 -1817 -394 -314 -842 -503 -1387 -585 -108 -16 -606 -18 -8280 -21 -5565 -2 -8218 0 -8330 8 -397 24 -741 117 -1090 291 -1188 595 -1788 1939 -1440 3221 244 895 912 1604 1800 1910 194 66 459 121 665 137 61 4 3813 8 8340 7 7792 -1 8236 -2 8344 -19z"
       id="path45"
       style="fill:#000000;fill-opacity:1" />
    <path
       d="M20131 5284 c-143 -30 -271 -128 -305 -232 -39 -117 -7 -252 79 -331 100 -92 199 -126 365 -124 208 1 346 72 422 216 19 35 23 58 23 132 0 81 -3 95 -30 144 -90 163 -323 246 -554 195z"
       id="path47"
       style="fill:#000000;fill-opacity:1" />
    <path
       d="M2530 5011 l0 -268 44 -44 c27 -28 49 -61 57 -89 20 -66 20 -1704 0 -1770 -8 -28 -30 -61 -57 -89 l-44 -44 0 -274 0 -275 753 5 c809 4 858 7 1077 61 187 46 340 132 415 233 83 113 148 294 176 498 6 45 13 318 16 625 7 738 -8 976 -77 1180 -109 324 -343 464 -850 510 -65 5 -418 10 -812 10 l-698 0 0 -269z m1368 -440 c33 -17 49 -34 65 -69 22 -47 22 -53 25 -746 3 -768 1 -789 -56 -850 -42 -44 -86 -58 -204 -64 l-108 -5 0 883 0 882 118 -4 c96 -4 125 -8 160 -27z"
       id="path49"
       style="fill:#000000;fill-opacity:1" />
    <path
       d="M7550 5010 l0 -270 40 -36 c73 -66 71 -31 68 -1005 -3 -962 2 -892 -72 -957 l-36 -31 0 -276 0 -275 1130 0 1130 0 0 760 0 760 -425 0 -425 0 0 -277 c-1 -407 -14 -481 -98 -530 -38 -22 -61 -28 -134 -31 l-89 -4 3 868 c3 665 7 878 16 906 17 50 58 98 99 114 l33 14 0 270 0 270 -620 0 -620 0 0 -270z"
       id="path51"
       style="fill:#000000;fill-opacity:1" />
    <path
       d="M17220 5023 l1 -258 31 -20 c18 -11 41 -36 53 -55 20 -35 20 -46 20 -950 0 -860 -1 -918 -18 -962 -10 -26 -34 -61 -53 -77 l-34 -30 0 -256 0 -255 535 0 535 0 0 258 0 257 -34 33 c-63 61 -66 86 -66 639 l0 491 36 12 c20 7 62 12 94 13 81 0 128 -25 160 -89 l25 -49 6 -620 c6 -559 15 -765 38 -899 l7 -41 457 -3 457 -2 0 255 0 256 -39 37 c-58 56 -61 89 -61 653 0 273 -5 522 -10 569 -31 252 -116 403 -270 478 -109 53 -177 66 -345 66 -199 1 -318 -26 -477 -105 l-78 -39 0 475 0 475 -485 0 -485 0 0 -257z"
       id="path53"
       style="fill:#000000;fill-opacity:1" />
    <path
       d="M5360 4870 l0 -120 925 0 925 0 0 120 0 120 -925 0 -925 0 0 -120z"
       id="path55"
       style="fill:#000000;fill-opacity:1" />
    <path
       d="M6075 4484 c-16 -2 -66 -9 -110 -15 -295 -38 -473 -143 -564 -330 -80 -166 -83 -196 -88 -764 -6 -631 5 -739 93 -905 67 -128 156 -206 295 -260 269 -103 767 -114 1152 -25 158 37 342 117 442 193 l50 38 3 282 2 282 -429 0 -429 0 -4 -102 c-6 -167 -47 -223 -163 -223 -75 0 -109 20 -139 81 -17 33 -20 66 -24 222 l-4 182 597 0 598 0 -6 318 c-4 219 -10 345 -21 407 -53 308 -183 472 -441 555 -162 51 -246 62 -525 65 -140 2 -268 1 -285 -1z m335 -539 c53 -28 74 -84 78 -217 l4 -118 -167 0 -168 0 5 108 c5 128 28 190 80 222 40 24 126 27 168 5z"
       id="path57"
       style="fill:#000000;fill-opacity:1" />
    <path
       d="M10855 4484 c-16 -2 -66 -9 -110 -15 -334 -43 -522 -171 -599 -407 -51 -157 -51 -160 -51 -762 0 -560 0 -566 24 -658 88 -352 292 -479 822 -513 181 -11 433 0 582 26 311 55 467 172 546 411 49 148 53 217 49 799 l-4 530 -26 98 c-78 284 -236 412 -588 473 -91 15 -566 29 -645 18z m355 -559 c59 -57 61 -78 58 -642 l-3 -508 -25 -45 c-62 -111 -218 -108 -275 5 -19 38 -20 63 -23 540 -4 538 -1 581 45 636 35 42 57 49 130 46 54 -3 67 -7 93 -32z"
       id="path59"
       style="fill:#000000;fill-opacity:1" />
    <path
       d="M13725 4470 c-138 -22 -286 -76 -397 -146 l-38 -24 0 75 0 75 -465 0 -465 0 0 -257 1 -258 31 -20 c17 -11 41 -38 52 -60 20 -39 21 -53 21 -530 0 -450 -2 -494 -18 -543 -12 -34 -31 -62 -53 -80 l-34 -27 0 -257 0 -258 535 0 535 0 0 259 0 259 -25 16 c-35 23 -63 84 -75 163 -5 37 -10 273 -10 524 l0 456 47 14 c61 17 143 15 179 -4 38 -20 59 -44 81 -92 16 -36 18 -101 24 -695 4 -360 10 -671 13 -690 3 -19 11 -74 17 -122 l11 -88 459 0 459 0 0 256 0 255 -30 26 c-67 56 -64 30 -71 658 -4 366 -10 592 -18 633 -63 342 -223 476 -581 487 -69 2 -152 0 -185 -5z"
       id="path61"
       style="fill:#000000;fill-opacity:1" />
    <path
       d="M15360 4473 c-79 -9 -167 -35 -232 -70 -149 -78 -226 -219 -258 -473 -13 -103 -13 -1017 1 -1138 37 -348 148 -511 392 -579 29 -7 104 -17 167 -20 180 -9 353 21 528 92 l82 33 0 -121 c0 -224 -28 -314 -106 -349 -114 -50 -204 24 -221 183 l-6 59 -398 0 -399 0 0 -284 0 -283 93 -41 c285 -124 535 -179 863 -189 294 -9 466 21 639 109 160 83 307 266 357 443 22 79 22 89 28 1015 5 747 9 942 19 970 16 40 56 87 83 96 17 5 18 22 18 265 l0 259 -465 0 -465 0 0 -70 c0 -41 -4 -70 -10 -70 -6 0 -29 12 -52 27 -169 106 -436 161 -658 136z m636 -624 l44 -11 0 -498 0 -498 -47 -19 c-64 -24 -149 -23 -193 3 -78 45 -90 112 -90 504 0 395 14 463 100 508 49 25 115 29 186 11z"
       id="path63"
       style="fill:#000000;fill-opacity:1" />
    <path
       d="M19760 4193 l1 -258 31 -20 c18 -11 41 -36 53 -55 19 -34 20 -49 20 -535 0 -559 0 -563 -71 -624 l-34 -30 0 -256 0 -255 535 0 535 0 0 256 0 257 -34 38 c-19 20 -40 55 -48 76 -9 29 -13 222 -16 851 l-3 812 -484 0 -485 0 0 -257z"
       id="path65"
       style="fill:#000000;fill-opacity:1" />
  </g>
</svg>
