<svg xmlns="http://www.w3.org/2000/svg" width="600" height="102" xmlns:v="https://vecta.io/nano"><path d="M116.8 2.1h69.8v20.4h-44.4v17.6h41v20.6h-41V80h44.4v20.4h-69.8V2.1zm156.8 66.4c0 7.8-4.3 12.1-16.8 12.1s-16.6-4.4-16.6-12.1V2.1h-25.3v69.2c0 15.5 9.5 31 42 31 32.7 0 42.2-15.5 42.2-31V2.1h-25.3v66.4zm172.2 31.9h25.3V2.1h-25.3v98.3zm111.9-48.6v27.6c-4.5.8-9.6 1.3-15.1 1.3-13 0-15.5-4.5-15.5-12.9V33.9c0-9.1 4.4-12.1 15.1-12.1 10.4 0 21.8 1.1 33.8 2.8l2.3-21.2C565.8.9 554.1 0 542.7 0c-28.9 0-41 9.8-41 30.6v40.9c0 19.7 11 30.6 40.3 30.6 13 0 27-1.7 39-5.1V51.6h-23.3zm-542.3-16C6.9 35.8 0 42.7 0 51.3c0 8.5 6.9 15.5 15.4 15.5s15.4-6.9 15.4-15.5-6.9-15.5-15.4-15.5m0-35.6C6.9.2 0 7.1 0 15.7c0 8.5 6.9 15.5 15.4 15.5s15.4-6.9 15.4-15.5S23.9.2 15.4.2m0 71.2C6.9 71.4 0 78.3 0 86.9c0 8.5 6.9 15.5 15.4 15.5s15.4-6.9 15.4-15.5-6.9-15.5-15.4-15.5M92.8 2.1H64.3L35.4 51.3l28.9 49.2h28.4L62.9 51.3 92.8 2.1zm306.8 65.4l19.9 32.9h-28.4l-15.8-27.8h-19.4v27.8h-25.3V2.1h46.5c26.5 0 35 10.4 35 28.4v13.8c-.1 11.1-3.1 17.6-12.5 23.2h0zm-12.1-35.9c0-6.4-3-9.1-10.6-9.1h-21v30.1h20.4c8.1 0 11.2-3 11.2-9.6V31.6zM593.5.7c-3.6 0-6.5 2.9-6.5 6.6 0 3.6 2.9 6.6 6.5 6.6s6.5-3 6.5-6.6c.1-3.7-2.9-6.6-6.5-6.6m0 12.3c-3.2 0-5.7-2.6-5.7-5.8s2.6-5.7 5.7-5.7 5.7 2.6 5.7 5.7c0 3.2-2.5 5.8-5.7 5.8m.4-4.9h-1.5v2.1h-.9V4h2.4c1.3 0 1.9.6 1.9 1.6v.9c0 .7-.2 1.1-.9 1.4l1.7 2.2h-1.1l-1.6-2zm0-3.3h-1.5v2.5h1.5c.7 0 1-.3 1-.8v-.9c0-.6-.3-.8-1-.8" fill="#000000"/></svg>