<?xml version="1.0" standalone="no"?>
<!DOCTYPE svg PUBLIC "-//W3C//DTD SVG 20010904//EN"
 "http://www.w3.org/TR/2001/REC-SVG-20010904/DTD/svg10.dtd">
<svg version="1.0" xmlns="http://www.w3.org/2000/svg"
 width="956.000000pt" height="159.000000pt" viewBox="0 0 956.000000 159.000000"
 preserveAspectRatio="xMidYMid meet">
<metadata>
Created by potrace 1.16, written by Peter Selinger 2001-2019
</metadata>
<g transform="translate(0.000000,159.000000) scale(0.100000,-0.100000)"
fill="#000" stroke="none">
<path d="M363 1336 c-102 -48 -190 -150 -219 -254 -16 -57 -16 -66 -1 -128 20
-77 61 -147 119 -199 71 -65 71 -65 448 -65 372 0 401 -4 420 -55 23 -61 0
-143 -46 -164 -17 -8 -162 -11 -484 -11 l-460 0 0 -115 0 -115 508 -1 c279 -1
516 0 527 1 65 7 131 69 174 160 43 96 40 281 -8 393 -24 56 -77 116 -117 133
-23 10 -129 15 -390 19 -198 4 -368 8 -380 10 -41 9 -58 86 -26 124 17 21 22
21 462 24 l445 2 3 133 3 132 -463 0 -463 0 -52 -24z"/>
<path d="M1856 1349 c-124 -29 -267 -133 -346 -251 -121 -181 -122 -459 -2
-644 85 -129 209 -210 344 -222 40 -4 248 -6 461 -4 l388 2 -3 113 -3 112
-385 0 -385 0 -51 27 c-105 55 -156 143 -162 283 -7 150 41 239 158 294 l55
26 383 3 382 3 0 135 0 134 -397 -1 c-219 -1 -416 -5 -437 -10z"/>
<path d="M3150 1353 c-67 -11 -155 -49 -217 -93 -67 -46 -153 -136 -153 -159
0 -8 163 -11 585 -11 l585 0 0 135 0 135 -387 -1 c-214 -1 -399 -4 -413 -6z"/>
<path d="M4070 1225 l0 -135 440 0 c357 0 447 -3 475 -14 64 -27 71 -91 12
-126 -31 -19 -52 -20 -479 -20 l-448 0 0 -360 0 -360 125 0 125 0 0 209 0 209
388 4 c371 4 389 5 428 26 108 56 184 232 171 395 -10 122 -83 244 -171 286
-41 20 -57 21 -554 21 l-512 0 0 -135z"/>
<path d="M5340 1225 l0 -135 213 -2 212 -3 3 -437 2 -438 155 0 155 0 0 440 0
440 260 0 260 0 0 135 0 135 -630 0 -630 0 0 -135z"/>
<path d="M6720 1225 l0 -135 453 0 c248 0 470 -5 492 -10 47 -11 65 -32 65
-76 0 -65 10 -64 -527 -64 l-483 0 0 -365 0 -365 155 0 155 0 2 221 3 221 189
-2 c105 0 195 -5 200 -10 6 -5 74 -103 151 -219 l140 -210 173 -1 c94 0 172 2
172 5 0 3 -75 105 -166 226 -91 122 -164 222 -162 223 2 2 30 18 63 36 78 44
150 117 180 182 59 127 13 335 -92 418 -72 56 -55 55 -630 58 l-533 3 0 -136z"/>
<path d="M8506 1344 c-92 -22 -173 -71 -258 -156 -43 -42 -78 -82 -78 -87 0
-8 179 -11 585 -11 l585 0 0 135 0 135 -387 -1 c-299 0 -402 -4 -447 -15z"/>
<path d="M2694 884 c-21 -73 -15 -216 12 -295 40 -115 131 -236 219 -291 22
-14 65 -34 96 -46 53 -20 79 -21 490 -24 l434 -3 3 123 3 122 -353 0 c-374 0
-443 7 -526 49 -44 22 -79 64 -92 111 l-9 30 490 0 489 0 0 140 0 140 -620 0
-619 0 -17 -56z"/>
<path d="M8094 904 c-24 -57 -28 -159 -10 -244 42 -200 192 -374 361 -419 24
-6 218 -13 468 -17 l427 -7 0 127 0 126 -344 0 c-432 0 -506 11 -578 87 -25
26 -48 71 -48 94 0 5 191 9 485 9 l485 0 0 140 0 140 -616 0 -615 0 -15 -36z"/>
</g>
</svg>
