<svg xmlns="http://www.w3.org/2000/svg" xmlns:xlink="http://www.w3.org/1999/xlink" width="500" zoomAndPan="magnify" viewBox="0 0 375 149.999998" height="200" preserveAspectRatio="xMidYMid meet" version="1.0"><defs><g/><clipPath id="ccdb782555"><path d="M 239.191406 24.6875 L 242.191406 24.6875 L 242.191406 77.1875 L 239.191406 77.1875 Z M 239.191406 24.6875 " clip-rule="nonzero"/></clipPath><clipPath id="f7b6ebeef4"><path d="M 239.191406 25 L 242.191406 25 L 242.191406 77 L 239.191406 77 Z M 239.191406 25 " clip-rule="nonzero"/></clipPath><clipPath id="c2d751d108"><path d="M 240 21 L 241.933594 21 L 241.933594 33.847656 L 240 33.847656 Z M 240 21 " clip-rule="nonzero"/></clipPath><clipPath id="4a9fbd39a5"><path d="M 239.683594 20 L 241.933594 20 L 241.933594 22 L 239.683594 22 Z M 239.683594 20 " clip-rule="nonzero"/></clipPath><clipPath id="10132ad3e4"><path d="M 234.242188 41.933594 L 237.992188 41.933594 L 237.992188 77.183594 L 234.242188 77.183594 Z M 234.242188 41.933594 " clip-rule="nonzero"/></clipPath><clipPath id="d632e12ad7"><path d="M 234.242188 42 L 237.992188 42 L 237.992188 77.183594 L 234.242188 77.183594 Z M 234.242188 42 " clip-rule="nonzero"/></clipPath><clipPath id="0480fc1331"><path d="M 244.015625 33.683594 L 247.015625 33.683594 L 247.015625 77.183594 L 244.015625 77.183594 Z M 244.015625 33.683594 " clip-rule="nonzero"/></clipPath><clipPath id="0b98606c3a"><path d="M 244.015625 34 L 247.015625 34 L 247.015625 77 L 244.015625 77 Z M 244.015625 34 " clip-rule="nonzero"/></clipPath><clipPath id="1fad26ea21"><path d="M 21.75 100.316406 L 60 100.316406 L 60 103.316406 L 21.75 103.316406 Z M 21.75 100.316406 " clip-rule="nonzero"/></clipPath><clipPath id="76c003b589"><path d="M 22 100.316406 L 60 100.316406 L 60 103.316406 L 22 103.316406 Z M 22 100.316406 " clip-rule="nonzero"/></clipPath><clipPath id="3e873c09b0"><path d="M 312.699219 100.316406 L 350.949219 100.316406 L 350.949219 103.316406 L 312.699219 103.316406 Z M 312.699219 100.316406 " clip-rule="nonzero"/></clipPath><clipPath id="3ce9ca45cf"><path d="M 313 100.316406 L 350.949219 100.316406 L 350.949219 103.316406 L 313 103.316406 Z M 313 100.316406 " clip-rule="nonzero"/></clipPath><clipPath id="d4a048603a"><path d="M 312.699219 100.316406 L 350.949219 100.316406 L 350.949219 103.316406 L 312.699219 103.316406 Z M 312.699219 100.316406 " clip-rule="nonzero"/></clipPath></defs><g clip-path="url(#ccdb782555)"><path fill="#00a5e9" d="M 239.265625 24.6875 L 248.859375 24.6875 L 248.859375 77.183594 L 239.265625 77.183594 Z M 239.265625 24.6875 " fill-opacity="1" fill-rule="nonzero"/></g><g clip-path="url(#f7b6ebeef4)"><path stroke-linecap="butt" transform="matrix(0.000000000000000017, -0.271599, 0.277449, 0.000000000000000017, 239.267303, 77.186534)" fill-opacity="1" fill="#00a5e9" fill-rule="nonzero" stroke-linejoin="miter" d="M 1.995604 1.993192 L 191.282902 1.993192 L 191.282902 32.573095 L 1.995604 32.573095 Z M 1.995604 1.993192 " stroke="#ffffff" stroke-width="0.5" stroke-opacity="1" stroke-miterlimit="10"/><path fill="#00a5e9" d="M 239.683594 76.777344 L 248.441406 76.777344 L 248.441406 25.097656 L 239.683594 25.097656 Z M 248.164062 25.371094 L 248.164062 76.507812 L 239.960938 76.507812 L 239.960938 25.371094 Z M 248.164062 25.371094 " fill-opacity="1" fill-rule="nonzero"/></g><g clip-path="url(#c2d751d108)"><path fill="#00a5e9" d="M 241.300781 83.726562 C 240.980469 83.726562 240.667969 83.726562 240.359375 83.726562 C 240.605469 82.441406 240.460938 81.144531 240.472656 79.847656 C 240.488281 78.535156 240.472656 77.222656 240.472656 75.898438 C 240.472656 68.300781 240.472656 60.71875 240.472656 53.121094 C 240.472656 46.265625 240.472656 39.414062 240.472656 32.558594 C 240.472656 29.382812 240.472656 26.21875 240.460938 23.042969 C 240.460938 22.691406 240.421875 22.351562 240.398438 21.972656 C 240.65625 21.972656 240.964844 21.972656 241.222656 21.972656 C 241.070312 23.296875 241.160156 24.636719 241.148438 25.960938 C 241.132812 32.816406 241.148438 39.65625 241.148438 46.507812 C 241.148438 48.132812 241.121094 49.742188 241.121094 51.363281 C 241.121094 59.433594 241.132812 67.492188 241.148438 75.5625 C 241.148438 77.074219 241.121094 78.589844 241.121094 80.101562 C 241.121094 81.089844 241.132812 82.089844 241.160156 83.078125 C 241.160156 83.28125 241.25 83.496094 241.300781 83.726562 Z M 241.300781 83.726562 " fill-opacity="1" fill-rule="nonzero"/></g><g clip-path="url(#4a9fbd39a5)"><path fill="#00a5e9" d="M 239.683594 20.582031 C 240.203125 20.757812 240.550781 20.582031 240.808594 20.132812 C 241.054688 20.59375 241.445312 20.703125 241.910156 20.675781 C 241.804688 20.988281 241.714844 21.285156 241.597656 21.566406 C 241.546875 21.664062 241.40625 21.769531 241.300781 21.785156 C 240.902344 21.8125 240.5 21.796875 240.085938 21.796875 C 239.957031 21.390625 239.828125 21.011719 239.683594 20.582031 Z M 239.683594 20.582031 " fill-opacity="1" fill-rule="nonzero"/></g><g clip-path="url(#10132ad3e4)"><path fill="#00a5e9" d="M 234.292969 41.863281 L 240.9375 41.863281 L 240.9375 77.859375 L 234.292969 77.859375 Z M 234.292969 41.863281 " fill-opacity="1" fill-rule="nonzero"/></g><g clip-path="url(#d632e12ad7)"><path stroke-linecap="butt" transform="matrix(0.000000000000000011, -0.186239, 0.192122, 0.000000000000000012, 234.294525, 77.861635)" fill-opacity="1" fill="#00a5e9" fill-rule="nonzero" stroke-linejoin="miter" d="M 2.004703 2.004787 L 191.277633 2.004787 L 191.277633 32.564056 L 2.004703 32.564056 Z M 2.004703 2.004787 " stroke="#ffffff" stroke-width="0.5" stroke-opacity="1" stroke-miterlimit="10"/><path fill="#00a5e9" d="M 234.582031 77.582031 L 240.648438 77.582031 L 240.648438 42.144531 L 234.582031 42.144531 Z M 240.457031 42.332031 L 240.457031 77.394531 L 234.773438 77.394531 L 234.773438 42.332031 Z M 240.457031 42.332031 " fill-opacity="1" fill-rule="nonzero"/></g><g clip-path="url(#0480fc1331)"><path fill="#00a5e9" d="M 244.078125 33.6875 L 252.195312 33.6875 L 252.195312 77.183594 L 244.078125 77.183594 Z M 244.078125 33.6875 " fill-opacity="1" fill-rule="nonzero"/></g><g clip-path="url(#0b98606c3a)"><path stroke-linecap="butt" transform="matrix(0.000000000000000014, -0.225039, 0.234802, 0.000000000000000014, 244.076986, 77.185089)" fill-opacity="1" fill="#00a5e9" fill-rule="nonzero" stroke-linejoin="miter" d="M 2.00283 2.001209 L 191.275761 2.001209 L 191.275761 32.562164 L 2.00283 32.562164 Z M 2.00283 2.001209 " stroke="#ffffff" stroke-width="0.5" stroke-opacity="1" stroke-miterlimit="10"/><path fill="#00a5e9" d="M 244.429688 76.847656 L 251.84375 76.847656 L 251.84375 34.027344 L 244.429688 34.027344 Z M 251.605469 34.253906 L 251.605469 76.621094 L 244.664062 76.621094 L 244.664062 34.253906 Z M 251.605469 34.253906 " fill-opacity="1" fill-rule="nonzero"/></g><g fill="#000000" fill-opacity="1"><g transform="translate(20.47368, 76.009768)"><g><path d="M 24.234375 -18.0625 C 26.441406 -18.0625 28.332031 -17.96875 29.90625 -17.78125 C 31.476562 -17.601562 32.800781 -17.335938 33.875 -16.984375 C 34.957031 -16.628906 35.816406 -16.1875 36.453125 -15.65625 C 37.097656 -15.125 37.59375 -14.519531 37.9375 -13.84375 C 38.289062 -13.164062 38.519531 -12.410156 38.625 -11.578125 C 38.726562 -10.742188 38.78125 -9.835938 38.78125 -8.859375 C 38.78125 -7.878906 38.691406 -6.960938 38.515625 -6.109375 C 38.347656 -5.253906 38.039062 -4.472656 37.59375 -3.765625 C 37.144531 -3.054688 36.535156 -2.421875 35.765625 -1.859375 C 35.003906 -1.304688 34.03125 -0.832031 32.84375 -0.4375 C 31.664062 -0.0507812 30.242188 0.238281 28.578125 0.4375 C 26.910156 0.644531 24.960938 0.75 22.734375 0.75 L 17.390625 0.75 C 15.378906 0.75 13.617188 0.671875 12.109375 0.515625 C 10.609375 0.367188 9.316406 0.140625 8.234375 -0.171875 C 7.148438 -0.484375 6.25 -0.878906 5.53125 -1.359375 C 4.820312 -1.847656 4.253906 -2.414062 3.828125 -3.0625 C 3.410156 -3.707031 3.117188 -4.441406 2.953125 -5.265625 C 2.785156 -6.097656 2.703125 -7.019531 2.703125 -8.03125 L 6.703125 -8.03125 C 6.703125 -6.769531 6.882812 -5.785156 7.25 -5.078125 C 7.613281 -4.367188 8.210938 -3.835938 9.046875 -3.484375 C 9.878906 -3.128906 10.972656 -2.90625 12.328125 -2.8125 C 13.691406 -2.71875 15.378906 -2.671875 17.390625 -2.671875 L 22.734375 -2.671875 C 25.078125 -2.671875 27.019531 -2.78125 28.5625 -3 C 30.113281 -3.226562 31.347656 -3.585938 32.265625 -4.078125 C 33.179688 -4.566406 33.828125 -5.203125 34.203125 -5.984375 C 34.578125 -6.773438 34.765625 -7.734375 34.765625 -8.859375 C 34.765625 -9.984375 34.632812 -10.921875 34.375 -11.671875 C 34.125 -12.429688 33.617188 -13.03125 32.859375 -13.46875 C 32.097656 -13.914062 31.023438 -14.234375 29.640625 -14.421875 C 28.265625 -14.617188 26.460938 -14.71875 24.234375 -14.71875 L 18.71875 -14.71875 C 16.269531 -14.71875 14.171875 -14.804688 12.421875 -14.984375 C 10.671875 -15.160156 9.203125 -15.421875 8.015625 -15.765625 C 6.835938 -16.109375 5.890625 -16.53125 5.171875 -17.03125 C 4.460938 -17.539062 3.925781 -18.125 3.5625 -18.78125 C 3.195312 -19.4375 2.957031 -20.164062 2.84375 -20.96875 C 2.726562 -21.769531 2.671875 -22.640625 2.671875 -23.578125 C 2.671875 -24.546875 2.757812 -25.445312 2.9375 -26.28125 C 3.113281 -27.125 3.4375 -27.878906 3.90625 -28.546875 C 4.382812 -29.222656 5.03125 -29.828125 5.84375 -30.359375 C 6.664062 -30.890625 7.722656 -31.332031 9.015625 -31.6875 C 10.304688 -32.039062 11.859375 -32.304688 13.671875 -32.484375 C 15.484375 -32.671875 17.613281 -32.765625 20.0625 -32.765625 L 24.078125 -32.765625 C 26.078125 -32.765625 27.828125 -32.691406 29.328125 -32.546875 C 30.835938 -32.398438 32.132812 -32.171875 33.21875 -31.859375 C 34.3125 -31.546875 35.21875 -31.15625 35.9375 -30.6875 C 36.65625 -30.21875 37.222656 -29.660156 37.640625 -29.015625 C 38.066406 -28.367188 38.363281 -27.632812 38.53125 -26.8125 C 38.695312 -25.988281 38.78125 -25.078125 38.78125 -24.078125 L 34.765625 -24.078125 C 34.765625 -25.328125 34.582031 -26.304688 34.21875 -27.015625 C 33.863281 -27.722656 33.265625 -28.253906 32.421875 -28.609375 C 31.585938 -28.972656 30.488281 -29.195312 29.125 -29.28125 C 27.757812 -29.375 26.078125 -29.421875 24.078125 -29.421875 L 20.0625 -29.421875 C 17.382812 -29.421875 15.179688 -29.328125 13.453125 -29.140625 C 11.722656 -28.953125 10.359375 -28.632812 9.359375 -28.1875 C 8.359375 -27.738281 7.660156 -27.140625 7.265625 -26.390625 C 6.878906 -25.640625 6.6875 -24.703125 6.6875 -23.578125 C 6.6875 -22.878906 6.734375 -22.253906 6.828125 -21.703125 C 6.929688 -21.160156 7.128906 -20.679688 7.421875 -20.265625 C 7.722656 -19.859375 8.144531 -19.515625 8.6875 -19.234375 C 9.238281 -18.960938 9.957031 -18.734375 10.84375 -18.546875 C 11.738281 -18.367188 12.828125 -18.242188 14.109375 -18.171875 C 15.398438 -18.097656 16.9375 -18.0625 18.71875 -18.0625 Z M 24.234375 -18.0625 "/></g></g></g><g fill="#000000" fill-opacity="1"><g transform="translate(74.333132, 76.009768)"><g><path d="M 34.109375 -32.09375 L 40.125 -32.09375 L 17.390625 -16.390625 L 40.796875 0 L 34.765625 0 L 13.375 -14.71875 L 8.03125 -14.71875 L 8.03125 0 L 4.015625 0 L 4.015625 -32.09375 L 8.03125 -32.09375 L 8.03125 -18.0625 L 13.375 -18.0625 Z M 34.109375 -32.09375 "/></g></g></g><g fill="#000000" fill-opacity="1"><g transform="translate(128.861102, 76.009768)"><g><path d="M 2.671875 -32.09375 L 8.03125 -32.09375 L 22.734375 -16.390625 L 37.453125 -32.09375 L 42.796875 -32.09375 L 24.734375 -13.375 L 24.734375 0 L 20.734375 0 L 20.734375 -13.375 Z M 2.671875 -32.09375 "/></g></g></g><g fill="#000000" fill-opacity="1"><g transform="translate(187.23305, 76.009768)"><g><path d="M 4.015625 0 L 4.015625 -32.09375 L 8.03125 -32.09375 L 8.03125 -3.34375 L 33.4375 -3.34375 L 33.4375 0 Z M 4.015625 0 "/></g></g></g><g fill="#000000" fill-opacity="1"><g transform="translate(234.407322, 76.009768)"><g/></g></g><g fill="#000000" fill-opacity="1"><g transform="translate(256.177897, 76.009768)"><g><path d="M 8.03125 0 L 4.015625 0 L 4.015625 -32.09375 L 11.046875 -32.09375 L 40.484375 -4.015625 L 40.484375 -32.09375 L 44.484375 -32.09375 L 44.484375 0 L 39.140625 0 L 8.03125 -28.75 Z M 8.03125 0 "/></g></g></g><g fill="#000000" fill-opacity="1"><g transform="translate(317.077697, 76.009768)"><g><path d="M 4.015625 0 L 4.015625 -32.09375 L 36.109375 -32.09375 L 36.109375 -28.75 L 8.03125 -28.75 L 8.03125 -18.0625 L 34.765625 -18.0625 L 34.765625 -14.71875 L 8.03125 -14.71875 L 8.03125 -3.34375 L 36.109375 -3.34375 L 36.109375 0 Z M 4.015625 0 "/></g></g></g><g fill="#000000" fill-opacity="1"><g transform="translate(67.322039, 110.178233)"><g><path d="M 12.34375 -1.46875 C 13.125 -1.46875 13.78125 -1.488281 14.3125 -1.53125 C 14.851562 -1.570312 15.300781 -1.660156 15.65625 -1.796875 C 16.007812 -1.929688 16.28125 -2.125 16.46875 -2.375 C 16.65625 -2.625 16.789062 -2.953125 16.875 -3.359375 C 16.96875 -3.773438 17.019531 -4.285156 17.03125 -4.890625 C 17.050781 -5.492188 17.0625 -6.21875 17.0625 -7.0625 C 17.0625 -7.894531 17.050781 -8.613281 17.03125 -9.21875 C 17.019531 -9.820312 16.96875 -10.332031 16.875 -10.75 C 16.789062 -11.164062 16.65625 -11.5 16.46875 -11.75 C 16.28125 -12 16.007812 -12.1875 15.65625 -12.3125 C 15.300781 -12.445312 14.859375 -12.535156 14.328125 -12.578125 C 13.796875 -12.628906 13.132812 -12.65625 12.34375 -12.65625 L 3.53125 -12.65625 L 3.53125 -1.46875 Z M 1.765625 0 L 1.765625 -14.125 L 12.34375 -14.125 C 13.425781 -14.125 14.335938 -14.0625 15.078125 -13.9375 C 15.816406 -13.8125 16.425781 -13.617188 16.90625 -13.359375 C 17.382812 -13.097656 17.753906 -12.773438 18.015625 -12.390625 C 18.273438 -12.003906 18.460938 -11.546875 18.578125 -11.015625 C 18.703125 -10.492188 18.773438 -9.90625 18.796875 -9.25 C 18.816406 -8.59375 18.828125 -7.863281 18.828125 -7.0625 C 18.828125 -6.257812 18.816406 -5.523438 18.796875 -4.859375 C 18.773438 -4.203125 18.703125 -3.613281 18.578125 -3.09375 C 18.460938 -2.570312 18.273438 -2.117188 18.015625 -1.734375 C 17.753906 -1.347656 17.382812 -1.023438 16.90625 -0.765625 C 16.425781 -0.503906 15.816406 -0.3125 15.078125 -0.1875 C 14.335938 -0.0625 13.425781 0 12.34375 0 Z M 1.765625 0 "/></g></g></g><g fill="#000000" fill-opacity="1"><g transform="translate(91.832416, 110.178233)"><g><path d="M 1.765625 -14.125 L 3.53125 -14.125 L 3.53125 0 L 1.765625 0 Z M 1.765625 -14.125 "/></g></g></g><g fill="#000000" fill-opacity="1"><g transform="translate(101.630269, 110.178233)"><g><path d="M 10.671875 -7.9375 C 11.628906 -7.9375 12.453125 -7.894531 13.140625 -7.8125 C 13.835938 -7.738281 14.425781 -7.625 14.90625 -7.46875 C 15.382812 -7.3125 15.765625 -7.113281 16.046875 -6.875 C 16.328125 -6.644531 16.539062 -6.378906 16.6875 -6.078125 C 16.84375 -5.785156 16.941406 -5.457031 16.984375 -5.09375 C 17.035156 -4.726562 17.0625 -4.328125 17.0625 -3.890625 C 17.0625 -3.460938 17.019531 -3.0625 16.9375 -2.6875 C 16.863281 -2.3125 16.726562 -1.96875 16.53125 -1.65625 C 16.34375 -1.34375 16.078125 -1.0625 15.734375 -0.8125 C 15.398438 -0.570312 14.972656 -0.363281 14.453125 -0.1875 C 13.929688 -0.0195312 13.300781 0.101562 12.5625 0.1875 C 11.832031 0.28125 10.976562 0.328125 10 0.328125 L 7.65625 0.328125 C 6.769531 0.328125 5.992188 0.289062 5.328125 0.21875 C 4.671875 0.15625 4.101562 0.0546875 3.625 -0.078125 C 3.144531 -0.210938 2.75 -0.382812 2.4375 -0.59375 C 2.125 -0.8125 1.875 -1.0625 1.6875 -1.34375 C 1.5 -1.632812 1.367188 -1.960938 1.296875 -2.328125 C 1.222656 -2.691406 1.1875 -3.09375 1.1875 -3.53125 L 2.953125 -3.53125 C 2.953125 -2.976562 3.03125 -2.546875 3.1875 -2.234375 C 3.34375 -1.921875 3.601562 -1.6875 3.96875 -1.53125 C 4.34375 -1.375 4.828125 -1.273438 5.421875 -1.234375 C 6.023438 -1.191406 6.769531 -1.171875 7.65625 -1.171875 L 10 -1.171875 C 11.03125 -1.171875 11.882812 -1.21875 12.5625 -1.3125 C 13.25 -1.414062 13.789062 -1.570312 14.1875 -1.78125 C 14.59375 -2 14.878906 -2.28125 15.046875 -2.625 C 15.210938 -2.976562 15.296875 -3.398438 15.296875 -3.890625 C 15.296875 -4.390625 15.238281 -4.804688 15.125 -5.140625 C 15.007812 -5.472656 14.785156 -5.734375 14.453125 -5.921875 C 14.117188 -6.117188 13.648438 -6.257812 13.046875 -6.34375 C 12.441406 -6.425781 11.648438 -6.46875 10.671875 -6.46875 L 8.234375 -6.46875 C 7.160156 -6.46875 6.238281 -6.507812 5.46875 -6.59375 C 4.695312 -6.675781 4.050781 -6.789062 3.53125 -6.9375 C 3.007812 -7.082031 2.59375 -7.265625 2.28125 -7.484375 C 1.96875 -7.710938 1.726562 -7.972656 1.5625 -8.265625 C 1.40625 -8.554688 1.300781 -8.875 1.25 -9.21875 C 1.195312 -9.570312 1.171875 -9.957031 1.171875 -10.375 C 1.171875 -10.800781 1.207031 -11.195312 1.28125 -11.5625 C 1.363281 -11.925781 1.507812 -12.257812 1.71875 -12.5625 C 1.925781 -12.863281 2.207031 -13.128906 2.5625 -13.359375 C 2.925781 -13.585938 3.390625 -13.78125 3.953125 -13.9375 C 4.523438 -14.09375 5.207031 -14.210938 6 -14.296875 C 6.800781 -14.378906 7.742188 -14.421875 8.828125 -14.421875 L 10.59375 -14.421875 C 11.476562 -14.421875 12.25 -14.382812 12.90625 -14.3125 C 13.570312 -14.25 14.140625 -14.148438 14.609375 -14.015625 C 15.085938 -13.878906 15.484375 -13.707031 15.796875 -13.5 C 16.117188 -13.289062 16.375 -13.046875 16.5625 -12.765625 C 16.75 -12.484375 16.878906 -12.160156 16.953125 -11.796875 C 17.023438 -11.429688 17.0625 -11.03125 17.0625 -10.59375 L 15.296875 -10.59375 C 15.296875 -11.144531 15.210938 -11.578125 15.046875 -11.890625 C 14.890625 -12.203125 14.628906 -12.4375 14.265625 -12.59375 C 13.898438 -12.75 13.414062 -12.84375 12.8125 -12.875 C 12.21875 -12.914062 11.476562 -12.9375 10.59375 -12.9375 L 8.828125 -12.9375 C 7.648438 -12.9375 6.679688 -12.894531 5.921875 -12.8125 C 5.160156 -12.738281 4.554688 -12.601562 4.109375 -12.40625 C 3.671875 -12.207031 3.363281 -11.941406 3.1875 -11.609375 C 3.019531 -11.273438 2.9375 -10.863281 2.9375 -10.375 C 2.9375 -10.0625 2.957031 -9.785156 3 -9.546875 C 3.050781 -9.304688 3.140625 -9.097656 3.265625 -8.921875 C 3.398438 -8.742188 3.585938 -8.59375 3.828125 -8.46875 C 4.066406 -8.34375 4.378906 -8.238281 4.765625 -8.15625 C 5.160156 -8.082031 5.640625 -8.023438 6.203125 -7.984375 C 6.773438 -7.953125 7.453125 -7.9375 8.234375 -7.9375 Z M 10.671875 -7.9375 "/></g></g></g><g fill="#000000" fill-opacity="1"><g transform="translate(124.375142, 110.178233)"><g><path d="M 17.0625 -14.125 L 17.0625 -12.65625 L 10 -12.65625 L 10 0 L 8.234375 0 L 8.234375 -12.65625 L 1.171875 -12.65625 L 1.171875 -14.125 Z M 17.0625 -14.125 "/></g></g></g><g fill="#000000" fill-opacity="1"><g transform="translate(147.120016, 110.178233)"><g><path d="M 17.953125 0 L 16.1875 0 L 16.1875 -2.640625 C 16.1875 -3.078125 16.175781 -3.445312 16.15625 -3.75 C 16.144531 -4.0625 16.09375 -4.328125 16 -4.546875 C 15.914062 -4.765625 15.773438 -4.941406 15.578125 -5.078125 C 15.390625 -5.210938 15.117188 -5.316406 14.765625 -5.390625 C 14.421875 -5.460938 13.976562 -5.515625 13.4375 -5.546875 C 12.90625 -5.578125 12.25 -5.59375 11.46875 -5.59375 L 3.53125 -5.59375 L 3.53125 0 L 1.765625 0 L 1.765625 -14.125 L 11.765625 -14.125 C 12.835938 -14.125 13.742188 -14.082031 14.484375 -14 C 15.222656 -13.925781 15.832031 -13.8125 16.3125 -13.65625 C 16.789062 -13.507812 17.160156 -13.320312 17.421875 -13.09375 C 17.679688 -12.863281 17.867188 -12.59375 17.984375 -12.28125 C 18.109375 -11.976562 18.179688 -11.632812 18.203125 -11.25 C 18.222656 -10.875 18.234375 -10.457031 18.234375 -10 C 18.234375 -9.414062 18.191406 -8.898438 18.109375 -8.453125 C 18.023438 -8.003906 17.882812 -7.625 17.6875 -7.3125 C 17.5 -7 17.238281 -6.75 16.90625 -6.5625 C 16.582031 -6.375 16.175781 -6.242188 15.6875 -6.171875 C 16.175781 -6.097656 16.566406 -5.96875 16.859375 -5.78125 C 17.160156 -5.601562 17.390625 -5.367188 17.546875 -5.078125 C 17.710938 -4.785156 17.820312 -4.4375 17.875 -4.03125 C 17.925781 -3.625 17.953125 -3.160156 17.953125 -2.640625 Z M 3.53125 -7.0625 L 11.765625 -7.0625 C 12.546875 -7.0625 13.203125 -7.070312 13.734375 -7.09375 C 14.273438 -7.125 14.71875 -7.175781 15.0625 -7.25 C 15.414062 -7.320312 15.6875 -7.425781 15.875 -7.5625 C 16.0625 -7.695312 16.195312 -7.875 16.28125 -8.09375 C 16.375 -8.320312 16.425781 -8.585938 16.4375 -8.890625 C 16.457031 -9.203125 16.46875 -9.570312 16.46875 -10 C 16.46875 -10.394531 16.457031 -10.738281 16.4375 -11.03125 C 16.425781 -11.320312 16.375 -11.5625 16.28125 -11.75 C 16.195312 -11.945312 16.0625 -12.101562 15.875 -12.21875 C 15.6875 -12.34375 15.414062 -12.4375 15.0625 -12.5 C 14.71875 -12.5625 14.273438 -12.601562 13.734375 -12.625 C 13.203125 -12.644531 12.546875 -12.65625 11.765625 -12.65625 L 3.53125 -12.65625 Z M 3.53125 -7.0625 "/></g></g></g><g fill="#000000" fill-opacity="1"><g transform="translate(171.041897, 110.178233)"><g><path d="M 1.765625 -14.125 L 3.53125 -14.125 L 3.53125 0 L 1.765625 0 Z M 1.765625 -14.125 "/></g></g></g><g fill="#000000" fill-opacity="1"><g transform="translate(180.839745, 110.178233)"><g><path d="M 1.765625 0 L 1.765625 -14.125 L 13.546875 -14.125 C 14.421875 -14.125 15.128906 -14.050781 15.671875 -13.90625 C 16.210938 -13.757812 16.628906 -13.546875 16.921875 -13.265625 C 17.210938 -12.992188 17.40625 -12.648438 17.5 -12.234375 C 17.601562 -11.816406 17.65625 -11.335938 17.65625 -10.796875 C 17.65625 -10.398438 17.617188 -10.050781 17.546875 -9.75 C 17.484375 -9.445312 17.394531 -9.1875 17.28125 -8.96875 C 17.175781 -8.75 17.050781 -8.5625 16.90625 -8.40625 C 16.757812 -8.257812 16.613281 -8.140625 16.46875 -8.046875 C 16.125 -7.804688 15.734375 -7.675781 15.296875 -7.65625 C 15.847656 -7.625 16.335938 -7.488281 16.765625 -7.25 C 16.953125 -7.144531 17.128906 -7.015625 17.296875 -6.859375 C 17.472656 -6.703125 17.628906 -6.507812 17.765625 -6.28125 C 17.910156 -6.050781 18.023438 -5.78125 18.109375 -5.46875 C 18.191406 -5.15625 18.234375 -4.796875 18.234375 -4.390625 C 18.234375 -3.898438 18.210938 -3.453125 18.171875 -3.046875 C 18.128906 -2.640625 18.035156 -2.273438 17.890625 -1.953125 C 17.742188 -1.628906 17.539062 -1.34375 17.28125 -1.09375 C 17.019531 -0.84375 16.671875 -0.632812 16.234375 -0.46875 C 15.796875 -0.3125 15.257812 -0.191406 14.625 -0.109375 C 13.988281 -0.0351562 13.226562 0 12.34375 0 Z M 11.765625 -1.46875 C 12.441406 -1.46875 13.03125 -1.476562 13.53125 -1.5 C 14.039062 -1.519531 14.46875 -1.566406 14.8125 -1.640625 C 15.164062 -1.710938 15.445312 -1.8125 15.65625 -1.9375 C 15.875 -2.070312 16.039062 -2.25 16.15625 -2.46875 C 16.28125 -2.6875 16.363281 -2.953125 16.40625 -3.265625 C 16.445312 -3.578125 16.46875 -3.953125 16.46875 -4.390625 C 16.46875 -4.734375 16.445312 -5.03125 16.40625 -5.28125 C 16.363281 -5.539062 16.28125 -5.757812 16.15625 -5.9375 C 16.039062 -6.113281 15.875 -6.253906 15.65625 -6.359375 C 15.445312 -6.460938 15.164062 -6.546875 14.8125 -6.609375 C 14.46875 -6.671875 14.039062 -6.710938 13.53125 -6.734375 C 13.03125 -6.753906 12.441406 -6.765625 11.765625 -6.765625 L 3.53125 -6.765625 L 3.53125 -1.46875 Z M 11.765625 -8.234375 C 12.359375 -8.234375 12.875 -8.242188 13.3125 -8.265625 C 13.75 -8.296875 14.117188 -8.34375 14.421875 -8.40625 C 14.734375 -8.476562 14.984375 -8.570312 15.171875 -8.6875 C 15.359375 -8.8125 15.503906 -8.96875 15.609375 -9.15625 C 15.722656 -9.34375 15.796875 -9.566406 15.828125 -9.828125 C 15.867188 -10.097656 15.890625 -10.421875 15.890625 -10.796875 C 15.890625 -11.179688 15.84375 -11.492188 15.75 -11.734375 C 15.664062 -11.984375 15.515625 -12.175781 15.296875 -12.3125 C 15.078125 -12.445312 14.78125 -12.535156 14.40625 -12.578125 C 14.03125 -12.628906 13.546875 -12.65625 12.953125 -12.65625 L 3.53125 -12.65625 L 3.53125 -8.234375 Z M 11.765625 -8.234375 "/></g></g></g><g fill="#000000" fill-opacity="1"><g transform="translate(204.761614, 110.178233)"><g><path d="M 18.25 -14.125 L 18.25 -7.0625 C 18.25 -6.226562 18.238281 -5.46875 18.21875 -4.78125 C 18.195312 -4.09375 18.125 -3.472656 18 -2.921875 C 17.882812 -2.378906 17.695312 -1.90625 17.4375 -1.5 C 17.175781 -1.101562 16.804688 -0.769531 16.328125 -0.5 C 15.859375 -0.226562 15.253906 -0.03125 14.515625 0.09375 C 13.773438 0.226562 12.863281 0.296875 11.78125 0.296875 L 7.65625 0.296875 C 6.570312 0.296875 5.660156 0.226562 4.921875 0.09375 C 4.179688 -0.03125 3.570312 -0.226562 3.09375 -0.5 C 2.613281 -0.769531 2.242188 -1.101562 1.984375 -1.5 C 1.722656 -1.90625 1.53125 -2.378906 1.40625 -2.921875 C 1.289062 -3.472656 1.222656 -4.09375 1.203125 -4.78125 C 1.191406 -5.46875 1.1875 -6.226562 1.1875 -7.0625 L 1.1875 -14.125 L 2.953125 -14.125 L 2.953125 -7.0625 C 2.953125 -6.175781 2.957031 -5.414062 2.96875 -4.78125 C 2.988281 -4.144531 3.039062 -3.609375 3.125 -3.171875 C 3.207031 -2.742188 3.34375 -2.394531 3.53125 -2.125 C 3.71875 -1.863281 3.984375 -1.660156 4.328125 -1.515625 C 4.679688 -1.378906 5.125 -1.285156 5.65625 -1.234375 C 6.195312 -1.191406 6.863281 -1.171875 7.65625 -1.171875 L 11.78125 -1.171875 C 12.5625 -1.171875 13.222656 -1.191406 13.765625 -1.234375 C 14.304688 -1.285156 14.75 -1.378906 15.09375 -1.515625 C 15.4375 -1.660156 15.703125 -1.863281 15.890625 -2.125 C 16.085938 -2.394531 16.226562 -2.742188 16.3125 -3.171875 C 16.40625 -3.609375 16.457031 -4.144531 16.46875 -4.78125 C 16.476562 -5.414062 16.484375 -6.175781 16.484375 -7.0625 L 16.46875 -14.125 Z M 18.25 -14.125 "/></g></g></g><g fill="#000000" fill-opacity="1"><g transform="translate(228.692697, 110.178233)"><g><path d="M 17.0625 -14.125 L 17.0625 -12.65625 L 10 -12.65625 L 10 0 L 8.234375 0 L 8.234375 -12.65625 L 1.171875 -12.65625 L 1.171875 -14.125 Z M 17.0625 -14.125 "/></g></g></g><g fill="#000000" fill-opacity="1"><g transform="translate(251.437577, 110.178233)"><g><path d="M 1.765625 -14.125 L 3.53125 -14.125 L 3.53125 0 L 1.765625 0 Z M 1.765625 -14.125 "/></g></g></g><g fill="#000000" fill-opacity="1"><g transform="translate(261.235435, 110.178233)"><g><path d="M 12.953125 -14.421875 C 14.035156 -14.421875 14.941406 -14.351562 15.671875 -14.21875 C 16.410156 -14.082031 17.019531 -13.878906 17.5 -13.609375 C 17.976562 -13.347656 18.347656 -13.015625 18.609375 -12.609375 C 18.867188 -12.203125 19.054688 -11.726562 19.171875 -11.1875 C 19.296875 -10.644531 19.367188 -10.03125 19.390625 -9.34375 C 19.410156 -8.65625 19.421875 -7.894531 19.421875 -7.0625 C 19.421875 -6.226562 19.410156 -5.46875 19.390625 -4.78125 C 19.367188 -4.09375 19.296875 -3.472656 19.171875 -2.921875 C 19.054688 -2.378906 18.867188 -1.90625 18.609375 -1.5 C 18.347656 -1.101562 17.976562 -0.769531 17.5 -0.5 C 17.019531 -0.226562 16.410156 -0.03125 15.671875 0.09375 C 14.941406 0.226562 14.035156 0.296875 12.953125 0.296875 L 7.640625 0.296875 C 6.554688 0.296875 5.644531 0.226562 4.90625 0.09375 C 4.175781 -0.03125 3.570312 -0.226562 3.09375 -0.5 C 2.613281 -0.769531 2.242188 -1.101562 1.984375 -1.5 C 1.722656 -1.90625 1.53125 -2.378906 1.40625 -2.921875 C 1.289062 -3.472656 1.222656 -4.09375 1.203125 -4.78125 C 1.179688 -5.46875 1.171875 -6.226562 1.171875 -7.0625 C 1.171875 -7.894531 1.179688 -8.65625 1.203125 -9.34375 C 1.222656 -10.03125 1.289062 -10.644531 1.40625 -11.1875 C 1.53125 -11.726562 1.722656 -12.203125 1.984375 -12.609375 C 2.242188 -13.015625 2.613281 -13.347656 3.09375 -13.609375 C 3.570312 -13.878906 4.175781 -14.082031 4.90625 -14.21875 C 5.644531 -14.351562 6.554688 -14.421875 7.640625 -14.421875 Z M 12.953125 -1.171875 C 13.734375 -1.171875 14.390625 -1.191406 14.921875 -1.234375 C 15.460938 -1.285156 15.90625 -1.378906 16.25 -1.515625 C 16.601562 -1.660156 16.875 -1.863281 17.0625 -2.125 C 17.25 -2.394531 17.382812 -2.742188 17.46875 -3.171875 C 17.5625 -3.609375 17.613281 -4.144531 17.625 -4.78125 C 17.644531 -5.414062 17.65625 -6.175781 17.65625 -7.0625 C 17.65625 -7.945312 17.644531 -8.703125 17.625 -9.328125 C 17.613281 -9.960938 17.5625 -10.5 17.46875 -10.9375 C 17.382812 -11.375 17.25 -11.722656 17.0625 -11.984375 C 16.875 -12.253906 16.601562 -12.457031 16.25 -12.59375 C 15.90625 -12.738281 15.460938 -12.832031 14.921875 -12.875 C 14.390625 -12.914062 13.734375 -12.9375 12.953125 -12.9375 L 7.640625 -12.9375 C 6.859375 -12.9375 6.195312 -12.914062 5.65625 -12.875 C 5.125 -12.832031 4.679688 -12.738281 4.328125 -12.59375 C 3.984375 -12.457031 3.710938 -12.253906 3.515625 -11.984375 C 3.328125 -11.722656 3.191406 -11.375 3.109375 -10.9375 C 3.023438 -10.5 2.972656 -9.960938 2.953125 -9.328125 C 2.941406 -8.703125 2.9375 -7.945312 2.9375 -7.0625 C 2.9375 -6.175781 2.941406 -5.414062 2.953125 -4.78125 C 2.972656 -4.144531 3.023438 -3.609375 3.109375 -3.171875 C 3.203125 -2.742188 3.34375 -2.394531 3.53125 -2.125 C 3.71875 -1.863281 3.984375 -1.660156 4.328125 -1.515625 C 4.679688 -1.378906 5.125 -1.285156 5.65625 -1.234375 C 6.195312 -1.191406 6.859375 -1.171875 7.640625 -1.171875 Z M 12.953125 -1.171875 "/></g></g></g><g fill="#000000" fill-opacity="1"><g transform="translate(286.334318, 110.178233)"><g><path d="M 3.53125 0 L 1.765625 0 L 1.765625 -14.125 L 4.859375 -14.125 L 17.8125 -1.765625 L 17.8125 -14.125 L 19.578125 -14.125 L 19.578125 0 L 17.21875 0 L 3.53125 -12.65625 Z M 3.53125 0 "/></g></g></g><g clip-path="url(#1fad26ea21)"><path fill="#00a5e9" d="M 60 100.367188 L 60 107.015625 L 21.753906 107.015625 L 21.753906 100.367188 Z M 60 100.367188 " fill-opacity="1" fill-rule="nonzero"/></g><g clip-path="url(#76c003b589)"><path stroke-linecap="butt" transform="matrix(0.197879, 0, 0, 0.192293, 21.75175, 100.366439)" fill-opacity="1" fill="#00a5e9" fill-rule="nonzero" stroke-linejoin="miter" d="M 2.004695 1.994669 L 191.277621 1.994669 L 191.277621 32.567266 L 2.004695 32.567266 Z M 2.004695 1.994669 " stroke="#ffffff" stroke-width="0.5" stroke-opacity="1" stroke-miterlimit="10"/><path fill="#00a5e9" d="M 22.046875 100.65625 L 22.046875 106.726562 L 59.699219 106.726562 L 59.699219 100.65625 Z M 59.503906 106.535156 L 22.246094 106.535156 L 22.246094 100.847656 L 59.503906 100.847656 Z M 59.503906 106.535156 " fill-opacity="1" fill-rule="nonzero"/></g><g clip-path="url(#3e873c09b0)"><path fill="#00a5e9" d="M 350.945312 100.367188 L 350.945312 107.015625 L 312.699219 107.015625 L 312.699219 100.367188 Z M 350.945312 100.367188 " fill-opacity="1" fill-rule="nonzero"/></g><g clip-path="url(#3ce9ca45cf)"><path stroke-linecap="butt" transform="matrix(0.197879, 0, 0, 0.192293, 312.69857, 100.366439)" fill-opacity="1" fill="#00a5e9" fill-rule="nonzero" stroke-linejoin="miter" d="M 1.997081 1.994669 L 191.289748 1.994669 L 191.289748 32.567266 L 1.997081 32.567266 Z M 1.997081 1.994669 " stroke="#ffffff" stroke-width="0.5" stroke-opacity="1" stroke-miterlimit="10"/></g><g clip-path="url(#d4a048603a)"><path fill="#00a5e9" d="M 312.996094 100.65625 L 312.996094 106.726562 L 350.648438 106.726562 L 350.648438 100.65625 Z M 350.449219 106.535156 L 313.191406 106.535156 L 313.191406 100.847656 L 350.449219 100.847656 Z M 350.449219 106.535156 " fill-opacity="1" fill-rule="nonzero"/></g></svg>