<svg xmlns="http://www.w3.org/2000/svg" xmlns:xlink="http://www.w3.org/1999/xlink" width="500" zoomAndPan="magnify" viewBox="0 0 375 149.999998" height="200" preserveAspectRatio="xMidYMid meet" version="1.0"><defs><g/><clipPath id="a54a0b33fa"><path d="M 240.117188 25.167969 L 243.867188 25.167969 L 243.867188 78.417969 L 240.117188 78.417969 Z M 240.117188 25.167969 " clip-rule="nonzero"/></clipPath><clipPath id="003f238ce6"><path d="M 240.117188 25.167969 L 243.867188 25.167969 L 243.867188 78 L 240.117188 78 Z M 240.117188 25.167969 " clip-rule="nonzero"/></clipPath><clipPath id="01f0dfdb61"><path d="M 240.117188 25.167969 L 243.867188 25.167969 L 243.867188 78.417969 L 240.117188 78.417969 Z M 240.117188 25.167969 " clip-rule="nonzero"/></clipPath><clipPath id="3246464315"><path d="M 241 21 L 242.871094 21 L 242.871094 34.3125 L 241 34.3125 Z M 241 21 " clip-rule="nonzero"/></clipPath><clipPath id="f4966b2852"><path d="M 240.621094 20 L 242.871094 20 L 242.871094 22 L 240.621094 22 Z M 240.621094 20 " clip-rule="nonzero"/></clipPath><clipPath id="685333395e"><path d="M 235.082031 42.417969 L 238.832031 42.417969 L 238.832031 78.417969 L 235.082031 78.417969 Z M 235.082031 42.417969 " clip-rule="nonzero"/></clipPath><clipPath id="72de144d18"><path d="M 245.128906 35.667969 L 248.128906 35.667969 L 248.128906 78.417969 L 245.128906 78.417969 Z M 245.128906 35.667969 " clip-rule="nonzero"/></clipPath><clipPath id="0b7fb357e4"><path d="M 245.128906 36 L 248.128906 36 L 248.128906 78 L 245.128906 78 Z M 245.128906 36 " clip-rule="nonzero"/></clipPath><clipPath id="5493fe3f48"><path d="M 245.128906 36 L 248.128906 36 L 248.128906 78.417969 L 245.128906 78.417969 Z M 245.128906 36 " clip-rule="nonzero"/></clipPath></defs><g clip-path="url(#a54a0b33fa)"><path fill="#00a5e9" d="M 240.1875 25.171875 L 249.785156 25.171875 L 249.785156 78.414062 L 240.1875 78.414062 Z M 240.1875 25.171875 " fill-opacity="1" fill-rule="nonzero"/></g><g clip-path="url(#003f238ce6)"><path stroke-linecap="butt" transform="matrix(0.000000000000000017, -0.275478, 0.277631, 0.000000000000000017, 240.18724, 78.417463)" fill-opacity="1" fill="#00a5e9" fill-rule="nonzero" stroke-linejoin="miter" d="M 1.997526 1.998869 L 191.284644 1.998869 L 191.284644 32.572845 L 1.997526 32.572845 Z M 1.997526 1.998869 " stroke="#ffffff" stroke-width="0.5" stroke-opacity="1" stroke-miterlimit="10"/></g><g clip-path="url(#01f0dfdb61)"><path fill="#00a5e9" d="M 240.605469 78.003906 L 249.367188 78.003906 L 249.367188 25.585938 L 240.605469 25.585938 Z M 249.089844 25.863281 L 249.089844 77.730469 L 240.882812 77.730469 L 240.882812 25.863281 Z M 249.089844 25.863281 " fill-opacity="1" fill-rule="nonzero"/></g><g clip-path="url(#3246464315)"><path fill="#00a5e9" d="M 242.238281 85.136719 C 241.914062 85.136719 241.605469 85.136719 241.292969 85.136719 C 241.539062 83.820312 241.398438 82.492188 241.410156 81.160156 C 241.421875 79.820312 241.410156 78.476562 241.410156 77.121094 C 241.410156 69.339844 241.410156 61.574219 241.410156 53.792969 C 241.410156 46.773438 241.410156 39.753906 241.410156 32.734375 C 241.410156 29.484375 241.410156 26.242188 241.398438 22.988281 C 241.398438 22.628906 241.359375 22.285156 241.332031 21.894531 C 241.589844 21.894531 241.902344 21.894531 242.160156 21.894531 C 242.003906 23.253906 242.09375 24.625 242.082031 25.980469 C 242.070312 33 242.082031 40.003906 242.082031 47.023438 C 242.082031 48.683594 242.054688 50.332031 242.054688 51.992188 C 242.054688 60.257812 242.070312 68.507812 242.082031 76.773438 C 242.082031 78.324219 242.054688 79.875 242.054688 81.425781 C 242.054688 82.433594 242.070312 83.460938 242.09375 84.46875 C 242.09375 84.679688 242.1875 84.898438 242.238281 85.136719 Z M 242.238281 85.136719 " fill-opacity="1" fill-rule="nonzero"/></g><g clip-path="url(#f4966b2852)"><path fill="#00a5e9" d="M 240.621094 20.46875 C 241.136719 20.652344 241.488281 20.46875 241.746094 20.011719 C 241.992188 20.484375 242.378906 20.59375 242.84375 20.566406 C 242.742188 20.886719 242.652344 21.191406 242.535156 21.480469 C 242.484375 21.578125 242.339844 21.6875 242.238281 21.703125 C 241.835938 21.730469 241.4375 21.714844 241.023438 21.714844 C 240.894531 21.300781 240.761719 20.914062 240.621094 20.46875 Z M 240.621094 20.46875 " fill-opacity="1" fill-rule="nonzero"/></g><g clip-path="url(#685333395e)"><path fill="#00a5e9" d="M 235.132812 42.359375 L 241.773438 42.359375 L 241.773438 79.105469 L 235.132812 79.105469 Z M 235.132812 42.359375 " fill-opacity="1" fill-rule="nonzero"/><path stroke-linecap="butt" transform="matrix(0.000000000000000012, -0.190119, 0.19212, 0.000000000000000012, 235.132285, 79.107413)" fill-opacity="1" fill="#00a5e9" fill-rule="nonzero" stroke-linejoin="miter" d="M 2.00322 1.995309 L 191.276153 1.995309 L 191.276153 32.575087 L 2.00322 32.575087 Z M 2.00322 1.995309 " stroke="#ffffff" stroke-width="0.5" stroke-opacity="1" stroke-miterlimit="10"/><path fill="#00a5e9" d="M 235.421875 78.820312 L 241.484375 78.820312 L 241.484375 42.644531 L 235.421875 42.644531 Z M 241.292969 42.835938 L 241.292969 78.632812 L 235.613281 78.632812 L 235.613281 42.835938 Z M 241.292969 42.835938 " fill-opacity="1" fill-rule="nonzero"/></g><g clip-path="url(#72de144d18)"><path fill="#00a5e9" d="M 245.183594 35.671875 L 252.566406 35.671875 L 252.566406 78.417969 L 245.183594 78.417969 Z M 245.183594 35.671875 " fill-opacity="1" fill-rule="nonzero"/></g><g clip-path="url(#0b7fb357e4)"><path fill="#00a5e9" d="M 245.609375 77.976562 L 245.609375 36.117188 L 252.140625 36.117188 L 252.140625 77.976562 Z M 245.609375 77.976562 " fill-opacity="1" fill-rule="nonzero"/></g><g clip-path="url(#5493fe3f48)"><path stroke-linecap="butt" transform="matrix(0.000000000000000014, -0.221159, 0.213604, 0.000000000000000013, 245.182971, 78.418797)" fill="none" stroke-linejoin="miter" d="M 1.999626 1.996238 L 191.272555 1.996238 L 191.272555 32.572725 L 1.999626 32.572725 Z M 1.999626 1.996238 " stroke="#ffffff" stroke-width="0.5" stroke-opacity="1" stroke-miterlimit="10"/><path fill="#00a5e9" d="M 245.503906 78.085938 L 252.246094 78.085938 L 252.246094 36.003906 L 245.503906 36.003906 Z M 252.035156 36.226562 L 252.035156 77.867188 L 245.71875 77.867188 L 245.71875 36.226562 Z M 252.035156 36.226562 " fill-opacity="1" fill-rule="nonzero"/></g><g fill="#ffffff" fill-opacity="1"><g transform="translate(17.477743, 78.250809)"><g><path d="M 24.671875 -18.375 C 26.910156 -18.375 28.832031 -18.28125 30.4375 -18.09375 C 32.039062 -17.914062 33.390625 -17.644531 34.484375 -17.28125 C 35.585938 -16.914062 36.460938 -16.460938 37.109375 -15.921875 C 37.765625 -15.390625 38.269531 -14.78125 38.625 -14.09375 C 38.976562 -13.40625 39.207031 -12.632812 39.3125 -11.78125 C 39.425781 -10.925781 39.484375 -10.003906 39.484375 -9.015625 C 39.484375 -8.023438 39.394531 -7.09375 39.21875 -6.21875 C 39.039062 -5.34375 38.722656 -4.546875 38.265625 -3.828125 C 37.804688 -3.109375 37.1875 -2.460938 36.40625 -1.890625 C 35.632812 -1.328125 34.644531 -0.84375 33.4375 -0.4375 C 32.226562 -0.0390625 30.773438 0.253906 29.078125 0.453125 C 27.390625 0.660156 25.410156 0.765625 23.140625 0.765625 L 17.703125 0.765625 C 15.660156 0.765625 13.875 0.6875 12.34375 0.53125 C 10.8125 0.375 9.488281 0.140625 8.375 -0.171875 C 7.269531 -0.492188 6.351562 -0.898438 5.625 -1.390625 C 4.90625 -1.878906 4.328125 -2.453125 3.890625 -3.109375 C 3.460938 -3.773438 3.164062 -4.53125 3 -5.375 C 2.832031 -6.21875 2.75 -7.148438 2.75 -8.171875 L 6.828125 -8.171875 C 6.828125 -6.890625 7.007812 -5.882812 7.375 -5.15625 C 7.75 -4.4375 8.359375 -3.894531 9.203125 -3.53125 C 10.054688 -3.175781 11.175781 -2.953125 12.5625 -2.859375 C 13.945312 -2.765625 15.660156 -2.71875 17.703125 -2.71875 L 23.140625 -2.71875 C 25.523438 -2.71875 27.503906 -2.832031 29.078125 -3.0625 C 30.648438 -3.289062 31.90625 -3.648438 32.84375 -4.140625 C 33.78125 -4.640625 34.4375 -5.289062 34.8125 -6.09375 C 35.195312 -6.894531 35.390625 -7.867188 35.390625 -9.015625 C 35.390625 -10.160156 35.257812 -11.113281 35 -11.875 C 34.738281 -12.644531 34.21875 -13.257812 33.4375 -13.71875 C 32.664062 -14.175781 31.578125 -14.5 30.171875 -14.6875 C 28.773438 -14.875 26.941406 -14.96875 24.671875 -14.96875 L 19.0625 -14.96875 C 16.5625 -14.96875 14.421875 -15.0625 12.640625 -15.25 C 10.859375 -15.4375 9.363281 -15.703125 8.15625 -16.046875 C 6.957031 -16.390625 5.992188 -16.820312 5.265625 -17.34375 C 4.546875 -17.863281 4 -18.457031 3.625 -19.125 C 3.25 -19.789062 3.003906 -20.53125 2.890625 -21.34375 C 2.773438 -22.15625 2.71875 -23.039062 2.71875 -24 C 2.71875 -24.988281 2.804688 -25.90625 2.984375 -26.75 C 3.160156 -27.601562 3.488281 -28.375 3.96875 -29.0625 C 4.457031 -29.75 5.117188 -30.363281 5.953125 -30.90625 C 6.785156 -31.445312 7.859375 -31.894531 9.171875 -32.25 C 10.484375 -32.613281 12.0625 -32.890625 13.90625 -33.078125 C 15.75 -33.265625 17.921875 -33.359375 20.421875 -33.359375 L 24.5 -33.359375 C 26.539062 -33.359375 28.328125 -33.28125 29.859375 -33.125 C 31.390625 -32.976562 32.707031 -32.742188 33.8125 -32.421875 C 34.925781 -32.109375 35.847656 -31.710938 36.578125 -31.234375 C 37.304688 -30.765625 37.882812 -30.195312 38.3125 -29.53125 C 38.75 -28.875 39.050781 -28.125 39.21875 -27.28125 C 39.394531 -26.445312 39.484375 -25.519531 39.484375 -24.5 L 35.390625 -24.5 C 35.390625 -25.78125 35.203125 -26.78125 34.828125 -27.5 C 34.460938 -28.226562 33.851562 -28.769531 33 -29.125 C 32.15625 -29.488281 31.035156 -29.71875 29.640625 -29.8125 C 28.253906 -29.90625 26.539062 -29.953125 24.5 -29.953125 L 20.421875 -29.953125 C 17.703125 -29.953125 15.460938 -29.851562 13.703125 -29.65625 C 11.941406 -29.46875 10.550781 -29.144531 9.53125 -28.6875 C 8.507812 -28.238281 7.800781 -27.628906 7.40625 -26.859375 C 7.007812 -26.097656 6.8125 -25.144531 6.8125 -24 C 6.8125 -23.289062 6.859375 -22.65625 6.953125 -22.09375 C 7.054688 -21.539062 7.257812 -21.054688 7.5625 -20.640625 C 7.863281 -20.222656 8.289062 -19.875 8.84375 -19.59375 C 9.394531 -19.3125 10.125 -19.078125 11.03125 -18.890625 C 11.945312 -18.703125 13.0625 -18.566406 14.375 -18.484375 C 15.6875 -18.410156 17.25 -18.375 19.0625 -18.375 Z M 24.671875 -18.375 "/></g></g></g><g fill="#ffffff" fill-opacity="1"><g transform="translate(72.305052, 78.250809)"><g><path d="M 34.71875 -32.671875 L 40.84375 -32.671875 L 17.703125 -16.671875 L 41.515625 0 L 35.390625 0 L 13.609375 -14.96875 L 8.171875 -14.96875 L 8.171875 0 L 4.078125 0 L 4.078125 -32.671875 L 8.171875 -32.671875 L 8.171875 -18.375 L 13.609375 -18.375 Z M 34.71875 -32.671875 "/></g></g></g><g fill="#ffffff" fill-opacity="1"><g transform="translate(127.812909, 78.250809)"><g><path d="M 2.71875 -32.671875 L 8.171875 -32.671875 L 23.140625 -16.671875 L 38.125 -32.671875 L 43.5625 -32.671875 L 25.1875 -13.609375 L 25.1875 0 L 21.09375 0 L 21.09375 -13.609375 Z M 2.71875 -32.671875 "/></g></g></g><g fill="#ffffff" fill-opacity="1"><g transform="translate(187.233915, 78.250809)"><g><path d="M 4.078125 0 L 4.078125 -32.671875 L 8.171875 -32.671875 L 8.171875 -3.40625 L 34.03125 -3.40625 L 34.03125 0 Z M 4.078125 0 "/></g></g></g><g fill="#ffffff" fill-opacity="1"><g transform="translate(235.255748, 78.250809)"><g/></g></g><g fill="#ffffff" fill-opacity="1"><g transform="translate(257.416761, 78.250809)"><g><path d="M 8.171875 0 L 4.078125 0 L 4.078125 -32.671875 L 11.25 -32.671875 L 41.203125 -4.078125 L 41.203125 -32.671875 L 45.28125 -32.671875 L 45.28125 0 L 39.84375 0 L 8.171875 -29.265625 Z M 8.171875 0 "/></g></g></g><g fill="#ffffff" fill-opacity="1"><g transform="translate(319.411087, 78.250809)"><g><path d="M 4.078125 0 L 4.078125 -32.671875 L 36.75 -32.671875 L 36.75 -29.265625 L 8.171875 -29.265625 L 8.171875 -18.375 L 35.390625 -18.375 L 35.390625 -14.96875 L 8.171875 -14.96875 L 8.171875 -3.40625 L 36.75 -3.40625 L 36.75 0 Z M 4.078125 0 "/></g></g></g><g fill="#ffffff" fill-opacity="1"><g transform="translate(57.557431, 114.896051)"><g><path d="M 13.671875 -1.625 C 14.535156 -1.625 15.265625 -1.644531 15.859375 -1.6875 C 16.460938 -1.738281 16.957031 -1.835938 17.34375 -1.984375 C 17.726562 -2.128906 18.023438 -2.34375 18.234375 -2.625 C 18.453125 -2.90625 18.609375 -3.273438 18.703125 -3.734375 C 18.804688 -4.191406 18.863281 -4.753906 18.875 -5.421875 C 18.894531 -6.085938 18.90625 -6.890625 18.90625 -7.828125 C 18.90625 -8.753906 18.894531 -9.550781 18.875 -10.21875 C 18.863281 -10.882812 18.804688 -11.445312 18.703125 -11.90625 C 18.609375 -12.363281 18.453125 -12.734375 18.234375 -13.015625 C 18.023438 -13.296875 17.726562 -13.507812 17.34375 -13.65625 C 16.957031 -13.800781 16.46875 -13.894531 15.875 -13.9375 C 15.28125 -13.988281 14.546875 -14.015625 13.671875 -14.015625 L 3.90625 -14.015625 L 3.90625 -1.625 Z M 1.953125 0 L 1.953125 -15.640625 L 13.671875 -15.640625 C 14.867188 -15.640625 15.875 -15.570312 16.6875 -15.4375 C 17.507812 -15.300781 18.1875 -15.085938 18.71875 -14.796875 C 19.257812 -14.515625 19.671875 -14.160156 19.953125 -13.734375 C 20.242188 -13.304688 20.453125 -12.800781 20.578125 -12.21875 C 20.710938 -11.632812 20.789062 -10.976562 20.8125 -10.25 C 20.84375 -9.519531 20.859375 -8.710938 20.859375 -7.828125 C 20.859375 -6.929688 20.84375 -6.117188 20.8125 -5.390625 C 20.789062 -4.660156 20.710938 -4.003906 20.578125 -3.421875 C 20.453125 -2.847656 20.242188 -2.34375 19.953125 -1.90625 C 19.671875 -1.476562 19.257812 -1.125 18.71875 -0.84375 C 18.1875 -0.5625 17.507812 -0.347656 16.6875 -0.203125 C 15.875 -0.0664062 14.867188 0 13.671875 0 Z M 1.953125 0 "/></g></g></g><g fill="#ffffff" fill-opacity="1"><g transform="translate(84.688558, 114.896051)"><g><path d="M 1.953125 -15.640625 L 3.90625 -15.640625 L 3.90625 0 L 1.953125 0 Z M 1.953125 -15.640625 "/></g></g></g><g fill="#ffffff" fill-opacity="1"><g transform="translate(95.53557, 114.896051)"><g><path d="M 11.8125 -8.796875 C 12.882812 -8.796875 13.800781 -8.75 14.5625 -8.65625 C 15.332031 -8.570312 15.984375 -8.441406 16.515625 -8.265625 C 17.046875 -8.097656 17.460938 -7.882812 17.765625 -7.625 C 18.078125 -7.363281 18.316406 -7.066406 18.484375 -6.734375 C 18.660156 -6.410156 18.773438 -6.046875 18.828125 -5.640625 C 18.878906 -5.234375 18.90625 -4.789062 18.90625 -4.3125 C 18.90625 -3.84375 18.863281 -3.398438 18.78125 -2.984375 C 18.695312 -2.566406 18.546875 -2.179688 18.328125 -1.828125 C 18.109375 -1.484375 17.8125 -1.175781 17.4375 -0.90625 C 17.0625 -0.632812 16.582031 -0.398438 16 -0.203125 C 15.425781 -0.015625 14.734375 0.125 13.921875 0.21875 C 13.117188 0.3125 12.171875 0.359375 11.078125 0.359375 L 8.46875 0.359375 C 7.488281 0.359375 6.632812 0.320312 5.90625 0.25 C 5.175781 0.175781 4.546875 0.0664062 4.015625 -0.078125 C 3.484375 -0.234375 3.039062 -0.425781 2.6875 -0.65625 C 2.34375 -0.894531 2.066406 -1.171875 1.859375 -1.484375 C 1.660156 -1.804688 1.519531 -2.164062 1.4375 -2.5625 C 1.351562 -2.96875 1.3125 -3.414062 1.3125 -3.90625 L 3.265625 -3.90625 C 3.265625 -3.300781 3.351562 -2.820312 3.53125 -2.46875 C 3.707031 -2.125 4 -1.863281 4.40625 -1.6875 C 4.8125 -1.519531 5.34375 -1.410156 6 -1.359375 C 6.664062 -1.316406 7.488281 -1.296875 8.46875 -1.296875 L 11.078125 -1.296875 C 12.222656 -1.296875 13.171875 -1.347656 13.921875 -1.453125 C 14.671875 -1.566406 15.269531 -1.742188 15.71875 -1.984375 C 16.164062 -2.222656 16.484375 -2.535156 16.671875 -2.921875 C 16.859375 -3.304688 16.953125 -3.769531 16.953125 -4.3125 C 16.953125 -4.863281 16.890625 -5.320312 16.765625 -5.6875 C 16.640625 -6.0625 16.390625 -6.351562 16.015625 -6.5625 C 15.648438 -6.78125 15.128906 -6.9375 14.453125 -7.03125 C 13.773438 -7.125 12.894531 -7.171875 11.8125 -7.171875 L 9.125 -7.171875 C 7.925781 -7.171875 6.898438 -7.210938 6.046875 -7.296875 C 5.203125 -7.390625 4.488281 -7.519531 3.90625 -7.6875 C 3.332031 -7.851562 2.867188 -8.054688 2.515625 -8.296875 C 2.171875 -8.546875 1.910156 -8.832031 1.734375 -9.15625 C 1.554688 -9.476562 1.4375 -9.832031 1.375 -10.21875 C 1.320312 -10.613281 1.296875 -11.035156 1.296875 -11.484375 C 1.296875 -11.960938 1.335938 -12.40625 1.421875 -12.8125 C 1.515625 -13.21875 1.675781 -13.582031 1.90625 -13.90625 C 2.132812 -14.238281 2.445312 -14.535156 2.84375 -14.796875 C 3.25 -15.054688 3.765625 -15.269531 4.390625 -15.4375 C 5.023438 -15.613281 5.78125 -15.742188 6.65625 -15.828125 C 7.539062 -15.921875 8.582031 -15.96875 9.78125 -15.96875 L 11.734375 -15.96875 C 12.710938 -15.96875 13.566406 -15.929688 14.296875 -15.859375 C 15.035156 -15.785156 15.664062 -15.671875 16.1875 -15.515625 C 16.71875 -15.367188 17.15625 -15.179688 17.5 -14.953125 C 17.851562 -14.722656 18.132812 -14.453125 18.34375 -14.140625 C 18.550781 -13.828125 18.695312 -13.46875 18.78125 -13.0625 C 18.863281 -12.664062 18.90625 -12.222656 18.90625 -11.734375 L 16.953125 -11.734375 C 16.953125 -12.347656 16.863281 -12.828125 16.6875 -13.171875 C 16.507812 -13.515625 16.21875 -13.769531 15.8125 -13.9375 C 15.40625 -14.113281 14.867188 -14.222656 14.203125 -14.265625 C 13.535156 -14.316406 12.710938 -14.34375 11.734375 -14.34375 L 9.78125 -14.34375 C 8.476562 -14.34375 7.40625 -14.296875 6.5625 -14.203125 C 5.71875 -14.109375 5.050781 -13.953125 4.5625 -13.734375 C 4.070312 -13.515625 3.734375 -13.222656 3.546875 -12.859375 C 3.359375 -12.492188 3.265625 -12.035156 3.265625 -11.484375 C 3.265625 -11.148438 3.285156 -10.847656 3.328125 -10.578125 C 3.378906 -10.316406 3.476562 -10.082031 3.625 -9.875 C 3.769531 -9.675781 3.972656 -9.507812 4.234375 -9.375 C 4.503906 -9.238281 4.851562 -9.125 5.28125 -9.03125 C 5.71875 -8.945312 6.25 -8.882812 6.875 -8.84375 C 7.507812 -8.8125 8.257812 -8.796875 9.125 -8.796875 Z M 11.8125 -8.796875 "/></g></g></g><g fill="#ffffff" fill-opacity="1"><g transform="translate(120.712603, 114.896051)"><g><path d="M 18.90625 -15.640625 L 18.90625 -14.015625 L 11.078125 -14.015625 L 11.078125 0 L 9.125 0 L 9.125 -14.015625 L 1.296875 -14.015625 L 1.296875 -15.640625 Z M 18.90625 -15.640625 "/></g></g></g><g fill="#ffffff" fill-opacity="1"><g transform="translate(145.889635, 114.896051)"><g><path d="M 19.875 0 L 17.921875 0 L 17.921875 -2.9375 C 17.921875 -3.40625 17.910156 -3.8125 17.890625 -4.15625 C 17.878906 -4.5 17.820312 -4.789062 17.71875 -5.03125 C 17.625 -5.28125 17.472656 -5.476562 17.265625 -5.625 C 17.054688 -5.78125 16.753906 -5.894531 16.359375 -5.96875 C 15.972656 -6.050781 15.484375 -6.109375 14.890625 -6.140625 C 14.296875 -6.171875 13.566406 -6.1875 12.703125 -6.1875 L 3.90625 -6.1875 L 3.90625 0 L 1.953125 0 L 1.953125 -15.640625 L 13.03125 -15.640625 C 14.21875 -15.640625 15.222656 -15.597656 16.046875 -15.515625 C 16.867188 -15.429688 17.546875 -15.300781 18.078125 -15.125 C 18.609375 -14.957031 19.015625 -14.75 19.296875 -14.5 C 19.585938 -14.25 19.800781 -13.953125 19.9375 -13.609375 C 20.070312 -13.273438 20.148438 -12.894531 20.171875 -12.46875 C 20.191406 -12.050781 20.203125 -11.585938 20.203125 -11.078125 C 20.203125 -10.429688 20.15625 -9.859375 20.0625 -9.359375 C 19.976562 -8.867188 19.828125 -8.453125 19.609375 -8.109375 C 19.390625 -7.765625 19.097656 -7.488281 18.734375 -7.28125 C 18.378906 -7.070312 17.929688 -6.925781 17.390625 -6.84375 C 17.929688 -6.757812 18.363281 -6.613281 18.6875 -6.40625 C 19.007812 -6.207031 19.257812 -5.945312 19.4375 -5.625 C 19.613281 -5.300781 19.726562 -4.910156 19.78125 -4.453125 C 19.84375 -4.003906 19.875 -3.5 19.875 -2.9375 Z M 3.90625 -7.828125 L 13.03125 -7.828125 C 13.894531 -7.828125 14.625 -7.835938 15.21875 -7.859375 C 15.8125 -7.890625 16.300781 -7.945312 16.6875 -8.03125 C 17.082031 -8.113281 17.382812 -8.226562 17.59375 -8.375 C 17.800781 -8.53125 17.953125 -8.726562 18.046875 -8.96875 C 18.148438 -9.21875 18.207031 -9.515625 18.21875 -9.859375 C 18.238281 -10.203125 18.25 -10.609375 18.25 -11.078125 C 18.25 -11.523438 18.238281 -11.90625 18.21875 -12.21875 C 18.207031 -12.539062 18.148438 -12.8125 18.046875 -13.03125 C 17.953125 -13.25 17.800781 -13.421875 17.59375 -13.546875 C 17.382812 -13.671875 17.082031 -13.769531 16.6875 -13.84375 C 16.300781 -13.914062 15.8125 -13.960938 15.21875 -13.984375 C 14.625 -14.003906 13.894531 -14.015625 13.03125 -14.015625 L 3.90625 -14.015625 Z M 3.90625 -7.828125 "/></g></g></g><g fill="#ffffff" fill-opacity="1"><g transform="translate(172.369391, 114.896051)"><g><path d="M 1.953125 -15.640625 L 3.90625 -15.640625 L 3.90625 0 L 1.953125 0 Z M 1.953125 -15.640625 "/></g></g></g><g fill="#ffffff" fill-opacity="1"><g transform="translate(183.216409, 114.896051)"><g><path d="M 1.953125 0 L 1.953125 -15.640625 L 15 -15.640625 C 15.976562 -15.640625 16.765625 -15.5625 17.359375 -15.40625 C 17.960938 -15.25 18.425781 -15.015625 18.75 -14.703125 C 19.070312 -14.390625 19.285156 -14.003906 19.390625 -13.546875 C 19.503906 -13.085938 19.5625 -12.554688 19.5625 -11.953125 C 19.5625 -11.523438 19.519531 -11.144531 19.4375 -10.8125 C 19.363281 -10.476562 19.265625 -10.1875 19.140625 -9.9375 C 19.023438 -9.695312 18.890625 -9.492188 18.734375 -9.328125 C 18.578125 -9.160156 18.414062 -9.019531 18.25 -8.90625 C 17.875 -8.65625 17.441406 -8.507812 16.953125 -8.46875 C 17.554688 -8.4375 18.097656 -8.289062 18.578125 -8.03125 C 18.785156 -7.914062 18.984375 -7.769531 19.171875 -7.59375 C 19.367188 -7.414062 19.539062 -7.195312 19.6875 -6.9375 C 19.84375 -6.6875 19.96875 -6.390625 20.0625 -6.046875 C 20.15625 -5.710938 20.203125 -5.320312 20.203125 -4.875 C 20.203125 -4.320312 20.175781 -3.820312 20.125 -3.375 C 20.082031 -2.925781 19.984375 -2.519531 19.828125 -2.15625 C 19.671875 -1.800781 19.441406 -1.484375 19.140625 -1.203125 C 18.847656 -0.929688 18.457031 -0.707031 17.96875 -0.53125 C 17.488281 -0.351562 16.894531 -0.21875 16.1875 -0.125 C 15.488281 -0.0390625 14.648438 0 13.671875 0 Z M 13.03125 -1.625 C 13.789062 -1.625 14.445312 -1.632812 15 -1.65625 C 15.5625 -1.6875 16.035156 -1.738281 16.421875 -1.8125 C 16.804688 -1.894531 17.117188 -2.007812 17.359375 -2.15625 C 17.597656 -2.300781 17.78125 -2.492188 17.90625 -2.734375 C 18.039062 -2.972656 18.128906 -3.265625 18.171875 -3.609375 C 18.222656 -3.960938 18.25 -4.382812 18.25 -4.875 C 18.25 -5.25 18.222656 -5.578125 18.171875 -5.859375 C 18.128906 -6.140625 18.039062 -6.375 17.90625 -6.5625 C 17.78125 -6.757812 17.597656 -6.914062 17.359375 -7.03125 C 17.117188 -7.15625 16.804688 -7.25 16.421875 -7.3125 C 16.035156 -7.382812 15.5625 -7.429688 15 -7.453125 C 14.445312 -7.484375 13.789062 -7.5 13.03125 -7.5 L 3.90625 -7.5 L 3.90625 -1.625 Z M 13.03125 -9.125 C 13.695312 -9.125 14.269531 -9.132812 14.75 -9.15625 C 15.226562 -9.1875 15.632812 -9.238281 15.96875 -9.3125 C 16.3125 -9.394531 16.585938 -9.5 16.796875 -9.625 C 17.015625 -9.757812 17.179688 -9.929688 17.296875 -10.140625 C 17.421875 -10.347656 17.5 -10.597656 17.53125 -10.890625 C 17.570312 -11.191406 17.59375 -11.546875 17.59375 -11.953125 C 17.59375 -12.390625 17.546875 -12.742188 17.453125 -13.015625 C 17.359375 -13.285156 17.1875 -13.492188 16.9375 -13.640625 C 16.695312 -13.785156 16.367188 -13.882812 15.953125 -13.9375 C 15.535156 -13.988281 15 -14.015625 14.34375 -14.015625 L 3.90625 -14.015625 L 3.90625 -9.125 Z M 13.03125 -9.125 "/></g></g></g><g fill="#ffffff" fill-opacity="1"><g transform="translate(209.696178, 114.896051)"><g><path d="M 20.21875 -15.640625 L 20.21875 -7.828125 C 20.21875 -6.898438 20.203125 -6.054688 20.171875 -5.296875 C 20.148438 -4.535156 20.070312 -3.851562 19.9375 -3.25 C 19.8125 -2.644531 19.601562 -2.117188 19.3125 -1.671875 C 19.03125 -1.222656 18.625 -0.847656 18.09375 -0.546875 C 17.570312 -0.253906 16.898438 -0.0351562 16.078125 0.109375 C 15.253906 0.253906 14.25 0.328125 13.0625 0.328125 L 8.46875 0.328125 C 7.28125 0.328125 6.273438 0.253906 5.453125 0.109375 C 4.640625 -0.0351562 3.96875 -0.253906 3.4375 -0.546875 C 2.90625 -0.847656 2.492188 -1.222656 2.203125 -1.671875 C 1.910156 -2.117188 1.695312 -2.644531 1.5625 -3.25 C 1.4375 -3.851562 1.363281 -4.535156 1.34375 -5.296875 C 1.320312 -6.054688 1.3125 -6.898438 1.3125 -7.828125 L 1.3125 -15.640625 L 3.265625 -15.640625 L 3.265625 -7.828125 C 3.265625 -6.847656 3.273438 -6.003906 3.296875 -5.296875 C 3.316406 -4.597656 3.375 -4.003906 3.46875 -3.515625 C 3.5625 -3.035156 3.710938 -2.648438 3.921875 -2.359375 C 4.128906 -2.066406 4.425781 -1.84375 4.8125 -1.6875 C 5.195312 -1.53125 5.6875 -1.425781 6.28125 -1.375 C 6.875 -1.320312 7.601562 -1.296875 8.46875 -1.296875 L 13.0625 -1.296875 C 13.914062 -1.296875 14.640625 -1.320312 15.234375 -1.375 C 15.835938 -1.425781 16.332031 -1.53125 16.71875 -1.6875 C 17.101562 -1.84375 17.398438 -2.066406 17.609375 -2.359375 C 17.816406 -2.648438 17.96875 -3.035156 18.0625 -3.515625 C 18.164062 -4.003906 18.222656 -4.597656 18.234375 -5.296875 C 18.253906 -6.003906 18.265625 -6.847656 18.265625 -7.828125 L 18.25 -15.640625 Z M 20.21875 -15.640625 "/></g></g></g><g fill="#ffffff" fill-opacity="1"><g transform="translate(236.186124, 114.896051)"><g><path d="M 18.90625 -15.640625 L 18.90625 -14.015625 L 11.078125 -14.015625 L 11.078125 0 L 9.125 0 L 9.125 -14.015625 L 1.296875 -14.015625 L 1.296875 -15.640625 Z M 18.90625 -15.640625 "/></g></g></g><g fill="#ffffff" fill-opacity="1"><g transform="translate(261.363163, 114.896051)"><g><path d="M 1.953125 -15.640625 L 3.90625 -15.640625 L 3.90625 0 L 1.953125 0 Z M 1.953125 -15.640625 "/></g></g></g><g fill="#ffffff" fill-opacity="1"><g transform="translate(272.21018, 114.896051)"><g><path d="M 14.34375 -15.96875 C 15.539062 -15.96875 16.546875 -15.894531 17.359375 -15.75 C 18.179688 -15.601562 18.859375 -15.378906 19.390625 -15.078125 C 19.921875 -14.785156 20.328125 -14.414062 20.609375 -13.96875 C 20.898438 -13.519531 21.109375 -12.992188 21.234375 -12.390625 C 21.367188 -11.785156 21.445312 -11.101562 21.46875 -10.34375 C 21.5 -9.582031 21.515625 -8.742188 21.515625 -7.828125 C 21.515625 -6.898438 21.5 -6.054688 21.46875 -5.296875 C 21.445312 -4.535156 21.367188 -3.851562 21.234375 -3.25 C 21.109375 -2.644531 20.898438 -2.117188 20.609375 -1.671875 C 20.328125 -1.222656 19.921875 -0.847656 19.390625 -0.546875 C 18.859375 -0.253906 18.179688 -0.0351562 17.359375 0.109375 C 16.546875 0.253906 15.539062 0.328125 14.34375 0.328125 L 8.46875 0.328125 C 7.269531 0.328125 6.257812 0.253906 5.4375 0.109375 C 4.625 -0.0351562 3.953125 -0.253906 3.421875 -0.546875 C 2.890625 -0.847656 2.476562 -1.222656 2.1875 -1.671875 C 1.90625 -2.117188 1.695312 -2.644531 1.5625 -3.25 C 1.425781 -3.851562 1.347656 -4.535156 1.328125 -5.296875 C 1.304688 -6.054688 1.296875 -6.898438 1.296875 -7.828125 C 1.296875 -8.742188 1.304688 -9.582031 1.328125 -10.34375 C 1.347656 -11.101562 1.425781 -11.785156 1.5625 -12.390625 C 1.695312 -12.992188 1.90625 -13.519531 2.1875 -13.96875 C 2.476562 -14.414062 2.890625 -14.785156 3.421875 -15.078125 C 3.953125 -15.378906 4.625 -15.601562 5.4375 -15.75 C 6.257812 -15.894531 7.269531 -15.96875 8.46875 -15.96875 Z M 14.34375 -1.296875 C 15.207031 -1.296875 15.9375 -1.320312 16.53125 -1.375 C 17.125 -1.425781 17.613281 -1.53125 18 -1.6875 C 18.394531 -1.84375 18.695312 -2.066406 18.90625 -2.359375 C 19.113281 -2.648438 19.265625 -3.035156 19.359375 -3.515625 C 19.453125 -4.003906 19.507812 -4.597656 19.53125 -5.296875 C 19.550781 -6.003906 19.5625 -6.847656 19.5625 -7.828125 C 19.5625 -8.796875 19.550781 -9.628906 19.53125 -10.328125 C 19.507812 -11.035156 19.453125 -11.628906 19.359375 -12.109375 C 19.265625 -12.597656 19.113281 -12.988281 18.90625 -13.28125 C 18.695312 -13.570312 18.398438 -13.796875 18.015625 -13.953125 C 17.628906 -14.109375 17.140625 -14.210938 16.546875 -14.265625 C 15.953125 -14.316406 15.21875 -14.34375 14.34375 -14.34375 L 8.46875 -14.34375 C 7.59375 -14.34375 6.859375 -14.316406 6.265625 -14.265625 C 5.671875 -14.210938 5.179688 -14.109375 4.796875 -13.953125 C 4.410156 -13.796875 4.109375 -13.570312 3.890625 -13.28125 C 3.679688 -12.988281 3.53125 -12.597656 3.4375 -12.109375 C 3.34375 -11.628906 3.289062 -11.035156 3.28125 -10.328125 C 3.269531 -9.628906 3.265625 -8.796875 3.265625 -7.828125 C 3.265625 -6.847656 3.269531 -6.003906 3.28125 -5.296875 C 3.300781 -4.597656 3.359375 -4.003906 3.453125 -3.515625 C 3.546875 -3.035156 3.695312 -2.648438 3.90625 -2.359375 C 4.113281 -2.066406 4.410156 -1.84375 4.796875 -1.6875 C 5.179688 -1.53125 5.671875 -1.425781 6.265625 -1.375 C 6.859375 -1.320312 7.59375 -1.296875 8.46875 -1.296875 Z M 14.34375 -1.296875 "/></g></g></g><g fill="#ffffff" fill-opacity="1"><g transform="translate(299.992666, 114.896051)"><g><path d="M 3.90625 0 L 1.953125 0 L 1.953125 -15.640625 L 5.390625 -15.640625 L 19.734375 -1.953125 L 19.734375 -15.640625 L 21.6875 -15.640625 L 21.6875 0 L 19.078125 0 L 3.90625 -14.015625 Z M 3.90625 0 "/></g></g></g></svg>