<svg xmlns="http://www.w3.org/2000/svg" xmlns:xlink="http://www.w3.org/1999/xlink" width="500" zoomAndPan="magnify" viewBox="0 0 375 149.999998" height="200" preserveAspectRatio="xMidYMid meet" version="1.0"><defs><g/><clipPath id="bc418fa6a2"><path d="M 240.117188 25.167969 L 243.867188 25.167969 L 243.867188 78.417969 L 240.117188 78.417969 Z M 240.117188 25.167969 " clip-rule="nonzero"/></clipPath><clipPath id="dd6b0ddce7"><path d="M 240.117188 25.167969 L 243.867188 25.167969 L 243.867188 78 L 240.117188 78 Z M 240.117188 25.167969 " clip-rule="nonzero"/></clipPath><clipPath id="0afc1a4e0f"><path d="M 240.117188 25.167969 L 243.867188 25.167969 L 243.867188 78.417969 L 240.117188 78.417969 Z M 240.117188 25.167969 " clip-rule="nonzero"/></clipPath><clipPath id="a5d3e0325b"><path d="M 241 21 L 242.871094 21 L 242.871094 34.3125 L 241 34.3125 Z M 241 21 " clip-rule="nonzero"/></clipPath><clipPath id="bedde824b1"><path d="M 240.621094 20 L 242.871094 20 L 242.871094 22 L 240.621094 22 Z M 240.621094 20 " clip-rule="nonzero"/></clipPath><clipPath id="d5c74ff187"><path d="M 235.082031 42.417969 L 238.832031 42.417969 L 238.832031 78.417969 L 235.082031 78.417969 Z M 235.082031 42.417969 " clip-rule="nonzero"/></clipPath><clipPath id="35e66f3990"><path d="M 245.128906 35.667969 L 248.128906 35.667969 L 248.128906 78.417969 L 245.128906 78.417969 Z M 245.128906 35.667969 " clip-rule="nonzero"/></clipPath><clipPath id="f52e160108"><path d="M 245.128906 36 L 248.128906 36 L 248.128906 78 L 245.128906 78 Z M 245.128906 36 " clip-rule="nonzero"/></clipPath><clipPath id="1c33c19bb1"><path d="M 245.128906 36 L 248.128906 36 L 248.128906 78.417969 L 245.128906 78.417969 Z M 245.128906 36 " clip-rule="nonzero"/></clipPath></defs><g clip-path="url(#bc418fa6a2)"><path fill="#00a5e9" d="M 240.1875 25.171875 L 249.785156 25.171875 L 249.785156 78.414062 L 240.1875 78.414062 Z M 240.1875 25.171875 " fill-opacity="1" fill-rule="nonzero"/></g><g clip-path="url(#dd6b0ddce7)"><path stroke-linecap="butt" transform="matrix(0.000000000000000017, -0.275478, 0.277631, 0.000000000000000017, 240.18724, 78.417463)" fill-opacity="1" fill="#00a5e9" fill-rule="nonzero" stroke-linejoin="miter" d="M 1.997526 1.998869 L 191.284644 1.998869 L 191.284644 32.572845 L 1.997526 32.572845 Z M 1.997526 1.998869 " stroke="#ffffff" stroke-width="0.5" stroke-opacity="1" stroke-miterlimit="10"/></g><g clip-path="url(#0afc1a4e0f)"><path fill="#00a5e9" d="M 240.605469 78.003906 L 249.367188 78.003906 L 249.367188 25.585938 L 240.605469 25.585938 Z M 249.089844 25.863281 L 249.089844 77.730469 L 240.882812 77.730469 L 240.882812 25.863281 Z M 249.089844 25.863281 " fill-opacity="1" fill-rule="nonzero"/></g><g clip-path="url(#a5d3e0325b)"><path fill="#00a5e9" d="M 242.238281 85.136719 C 241.914062 85.136719 241.605469 85.136719 241.292969 85.136719 C 241.539062 83.820312 241.398438 82.492188 241.410156 81.160156 C 241.421875 79.820312 241.410156 78.476562 241.410156 77.121094 C 241.410156 69.339844 241.410156 61.574219 241.410156 53.792969 C 241.410156 46.773438 241.410156 39.753906 241.410156 32.734375 C 241.410156 29.484375 241.410156 26.242188 241.398438 22.988281 C 241.398438 22.628906 241.359375 22.285156 241.332031 21.894531 C 241.589844 21.894531 241.902344 21.894531 242.160156 21.894531 C 242.003906 23.253906 242.09375 24.625 242.082031 25.980469 C 242.070312 33 242.082031 40.003906 242.082031 47.023438 C 242.082031 48.683594 242.054688 50.332031 242.054688 51.992188 C 242.054688 60.257812 242.070312 68.507812 242.082031 76.773438 C 242.082031 78.324219 242.054688 79.875 242.054688 81.425781 C 242.054688 82.433594 242.070312 83.460938 242.09375 84.46875 C 242.09375 84.679688 242.1875 84.898438 242.238281 85.136719 Z M 242.238281 85.136719 " fill-opacity="1" fill-rule="nonzero"/></g><g clip-path="url(#bedde824b1)"><path fill="#00a5e9" d="M 240.621094 20.46875 C 241.136719 20.652344 241.488281 20.46875 241.746094 20.011719 C 241.992188 20.484375 242.378906 20.59375 242.84375 20.566406 C 242.742188 20.886719 242.652344 21.191406 242.535156 21.480469 C 242.484375 21.578125 242.339844 21.6875 242.238281 21.703125 C 241.835938 21.730469 241.4375 21.714844 241.023438 21.714844 C 240.894531 21.300781 240.761719 20.914062 240.621094 20.46875 Z M 240.621094 20.46875 " fill-opacity="1" fill-rule="nonzero"/></g><g clip-path="url(#d5c74ff187)"><path fill="#00a5e9" d="M 235.132812 42.359375 L 241.773438 42.359375 L 241.773438 79.105469 L 235.132812 79.105469 Z M 235.132812 42.359375 " fill-opacity="1" fill-rule="nonzero"/><path stroke-linecap="butt" transform="matrix(0.000000000000000012, -0.190119, 0.19212, 0.000000000000000012, 235.132285, 79.107413)" fill-opacity="1" fill="#00a5e9" fill-rule="nonzero" stroke-linejoin="miter" d="M 2.00322 1.995309 L 191.276153 1.995309 L 191.276153 32.575087 L 2.00322 32.575087 Z M 2.00322 1.995309 " stroke="#ffffff" stroke-width="0.5" stroke-opacity="1" stroke-miterlimit="10"/><path fill="#00a5e9" d="M 235.421875 78.820312 L 241.484375 78.820312 L 241.484375 42.644531 L 235.421875 42.644531 Z M 241.292969 42.835938 L 241.292969 78.632812 L 235.613281 78.632812 L 235.613281 42.835938 Z M 241.292969 42.835938 " fill-opacity="1" fill-rule="nonzero"/></g><g clip-path="url(#35e66f3990)"><path fill="#00a5e9" d="M 245.183594 35.671875 L 252.566406 35.671875 L 252.566406 78.417969 L 245.183594 78.417969 Z M 245.183594 35.671875 " fill-opacity="1" fill-rule="nonzero"/></g><g clip-path="url(#f52e160108)"><path fill="#00a5e9" d="M 245.609375 77.976562 L 245.609375 36.117188 L 252.140625 36.117188 L 252.140625 77.976562 Z M 245.609375 77.976562 " fill-opacity="1" fill-rule="nonzero"/></g><g clip-path="url(#1c33c19bb1)"><path stroke-linecap="butt" transform="matrix(0.000000000000000014, -0.221159, 0.213604, 0.000000000000000013, 245.182971, 78.418797)" fill="none" stroke-linejoin="miter" d="M 1.999626 1.996238 L 191.272555 1.996238 L 191.272555 32.572725 L 1.999626 32.572725 Z M 1.999626 1.996238 " stroke="#ffffff" stroke-width="0.5" stroke-opacity="1" stroke-miterlimit="10"/><path fill="#00a5e9" d="M 245.503906 78.085938 L 252.246094 78.085938 L 252.246094 36.003906 L 245.503906 36.003906 Z M 252.035156 36.226562 L 252.035156 77.867188 L 245.71875 77.867188 L 245.71875 36.226562 Z M 252.035156 36.226562 " fill-opacity="1" fill-rule="nonzero"/></g><g fill="#000000" fill-opacity="1"><g transform="translate(17.467482, 77.593595)"><g><path d="M 24.671875 -18.375 C 26.910156 -18.375 28.832031 -18.28125 30.4375 -18.09375 C 32.039062 -17.914062 33.390625 -17.644531 34.484375 -17.28125 C 35.585938 -16.914062 36.460938 -16.460938 37.109375 -15.921875 C 37.765625 -15.390625 38.269531 -14.78125 38.625 -14.09375 C 38.976562 -13.40625 39.207031 -12.632812 39.3125 -11.78125 C 39.425781 -10.925781 39.484375 -10.003906 39.484375 -9.015625 C 39.484375 -8.023438 39.394531 -7.09375 39.21875 -6.21875 C 39.039062 -5.34375 38.722656 -4.546875 38.265625 -3.828125 C 37.804688 -3.109375 37.1875 -2.460938 36.40625 -1.890625 C 35.632812 -1.328125 34.644531 -0.84375 33.4375 -0.4375 C 32.226562 -0.0390625 30.773438 0.253906 29.078125 0.453125 C 27.390625 0.660156 25.410156 0.765625 23.140625 0.765625 L 17.703125 0.765625 C 15.660156 0.765625 13.875 0.6875 12.34375 0.53125 C 10.8125 0.375 9.488281 0.140625 8.375 -0.171875 C 7.269531 -0.492188 6.351562 -0.898438 5.625 -1.390625 C 4.90625 -1.878906 4.328125 -2.453125 3.890625 -3.109375 C 3.460938 -3.773438 3.164062 -4.53125 3 -5.375 C 2.832031 -6.21875 2.75 -7.148438 2.75 -8.171875 L 6.828125 -8.171875 C 6.828125 -6.890625 7.007812 -5.882812 7.375 -5.15625 C 7.75 -4.4375 8.359375 -3.894531 9.203125 -3.53125 C 10.054688 -3.175781 11.175781 -2.953125 12.5625 -2.859375 C 13.945312 -2.765625 15.660156 -2.71875 17.703125 -2.71875 L 23.140625 -2.71875 C 25.523438 -2.71875 27.503906 -2.832031 29.078125 -3.0625 C 30.648438 -3.289062 31.90625 -3.648438 32.84375 -4.140625 C 33.78125 -4.640625 34.4375 -5.289062 34.8125 -6.09375 C 35.195312 -6.894531 35.390625 -7.867188 35.390625 -9.015625 C 35.390625 -10.160156 35.257812 -11.113281 35 -11.875 C 34.738281 -12.644531 34.21875 -13.257812 33.4375 -13.71875 C 32.664062 -14.175781 31.578125 -14.5 30.171875 -14.6875 C 28.773438 -14.875 26.941406 -14.96875 24.671875 -14.96875 L 19.0625 -14.96875 C 16.5625 -14.96875 14.421875 -15.0625 12.640625 -15.25 C 10.859375 -15.4375 9.363281 -15.703125 8.15625 -16.046875 C 6.957031 -16.390625 5.992188 -16.820312 5.265625 -17.34375 C 4.546875 -17.863281 4 -18.457031 3.625 -19.125 C 3.25 -19.789062 3.003906 -20.53125 2.890625 -21.34375 C 2.773438 -22.15625 2.71875 -23.039062 2.71875 -24 C 2.71875 -24.988281 2.804688 -25.90625 2.984375 -26.75 C 3.160156 -27.601562 3.488281 -28.375 3.96875 -29.0625 C 4.457031 -29.75 5.117188 -30.363281 5.953125 -30.90625 C 6.785156 -31.445312 7.859375 -31.894531 9.171875 -32.25 C 10.484375 -32.613281 12.0625 -32.890625 13.90625 -33.078125 C 15.75 -33.265625 17.921875 -33.359375 20.421875 -33.359375 L 24.5 -33.359375 C 26.539062 -33.359375 28.328125 -33.28125 29.859375 -33.125 C 31.390625 -32.976562 32.707031 -32.742188 33.8125 -32.421875 C 34.925781 -32.109375 35.847656 -31.710938 36.578125 -31.234375 C 37.304688 -30.765625 37.882812 -30.195312 38.3125 -29.53125 C 38.75 -28.875 39.050781 -28.125 39.21875 -27.28125 C 39.394531 -26.445312 39.484375 -25.519531 39.484375 -24.5 L 35.390625 -24.5 C 35.390625 -25.78125 35.203125 -26.78125 34.828125 -27.5 C 34.460938 -28.226562 33.851562 -28.769531 33 -29.125 C 32.15625 -29.488281 31.035156 -29.71875 29.640625 -29.8125 C 28.253906 -29.90625 26.539062 -29.953125 24.5 -29.953125 L 20.421875 -29.953125 C 17.703125 -29.953125 15.460938 -29.851562 13.703125 -29.65625 C 11.941406 -29.46875 10.550781 -29.144531 9.53125 -28.6875 C 8.507812 -28.238281 7.800781 -27.628906 7.40625 -26.859375 C 7.007812 -26.097656 6.8125 -25.144531 6.8125 -24 C 6.8125 -23.289062 6.859375 -22.65625 6.953125 -22.09375 C 7.054688 -21.539062 7.257812 -21.054688 7.5625 -20.640625 C 7.863281 -20.222656 8.289062 -19.875 8.84375 -19.59375 C 9.394531 -19.3125 10.125 -19.078125 11.03125 -18.890625 C 11.945312 -18.703125 13.0625 -18.566406 14.375 -18.484375 C 15.6875 -18.410156 17.25 -18.375 19.0625 -18.375 Z M 24.671875 -18.375 "/></g></g></g><g fill="#000000" fill-opacity="1"><g transform="translate(72.298222, 77.593595)"><g><path d="M 34.71875 -32.671875 L 40.84375 -32.671875 L 17.703125 -16.671875 L 41.515625 0 L 35.390625 0 L 13.609375 -14.96875 L 8.171875 -14.96875 L 8.171875 0 L 4.078125 0 L 4.078125 -32.671875 L 8.171875 -32.671875 L 8.171875 -18.375 L 13.609375 -18.375 Z M 34.71875 -32.671875 "/></g></g></g><g fill="#000000" fill-opacity="1"><g transform="translate(127.809566, 77.593595)"><g><path d="M 2.71875 -32.671875 L 8.171875 -32.671875 L 23.140625 -16.671875 L 38.125 -32.671875 L 43.5625 -32.671875 L 25.1875 -13.609375 L 25.1875 0 L 21.09375 0 L 21.09375 -13.609375 Z M 2.71875 -32.671875 "/></g></g></g><g fill="#000000" fill-opacity="1"><g transform="translate(187.234371, 77.593595)"><g><path d="M 4.078125 0 L 4.078125 -32.671875 L 8.171875 -32.671875 L 8.171875 -3.40625 L 34.03125 -3.40625 L 34.03125 0 Z M 4.078125 0 "/></g></g></g><g fill="#000000" fill-opacity="1"><g transform="translate(235.259087, 77.593595)"><g/></g></g><g fill="#000000" fill-opacity="1"><g transform="translate(257.42089, 77.593595)"><g><path d="M 8.171875 0 L 4.078125 0 L 4.078125 -32.671875 L 11.25 -32.671875 L 41.203125 -4.078125 L 41.203125 -32.671875 L 45.28125 -32.671875 L 45.28125 0 L 39.84375 0 L 8.171875 -29.265625 Z M 8.171875 0 "/></g></g></g><g fill="#000000" fill-opacity="1"><g transform="translate(319.419231, 77.593595)"><g><path d="M 4.078125 0 L 4.078125 -32.671875 L 36.75 -32.671875 L 36.75 -29.265625 L 8.171875 -29.265625 L 8.171875 -18.375 L 35.390625 -18.375 L 35.390625 -14.96875 L 8.171875 -14.96875 L 8.171875 -3.40625 L 36.75 -3.40625 L 36.75 0 Z M 4.078125 0 "/></g></g></g><g fill="#000000" fill-opacity="1"><g transform="translate(57.534725, 114.333115)"><g><path d="M 13.671875 -1.625 C 14.535156 -1.625 15.265625 -1.644531 15.859375 -1.6875 C 16.453125 -1.738281 16.941406 -1.835938 17.328125 -1.984375 C 17.710938 -2.128906 18.007812 -2.34375 18.21875 -2.625 C 18.4375 -2.90625 18.59375 -3.273438 18.6875 -3.734375 C 18.789062 -4.191406 18.847656 -4.753906 18.859375 -5.421875 C 18.878906 -6.085938 18.890625 -6.882812 18.890625 -7.8125 C 18.890625 -8.738281 18.878906 -9.535156 18.859375 -10.203125 C 18.847656 -10.878906 18.789062 -11.445312 18.6875 -11.90625 C 18.59375 -12.363281 18.4375 -12.726562 18.21875 -13 C 18.007812 -13.28125 17.710938 -13.492188 17.328125 -13.640625 C 16.941406 -13.785156 16.453125 -13.878906 15.859375 -13.921875 C 15.265625 -13.972656 14.535156 -14 13.671875 -14 L 3.90625 -14 L 3.90625 -1.625 Z M 1.953125 0 L 1.953125 -15.640625 L 13.671875 -15.640625 C 14.859375 -15.640625 15.859375 -15.566406 16.671875 -15.421875 C 17.492188 -15.285156 18.171875 -15.070312 18.703125 -14.78125 C 19.242188 -14.5 19.65625 -14.144531 19.9375 -13.71875 C 20.226562 -13.289062 20.4375 -12.785156 20.5625 -12.203125 C 20.695312 -11.628906 20.773438 -10.976562 20.796875 -10.25 C 20.828125 -9.519531 20.84375 -8.707031 20.84375 -7.8125 C 20.84375 -6.925781 20.828125 -6.117188 20.796875 -5.390625 C 20.773438 -4.660156 20.695312 -4.003906 20.5625 -3.421875 C 20.4375 -2.835938 20.226562 -2.332031 19.9375 -1.90625 C 19.65625 -1.476562 19.242188 -1.125 18.703125 -0.84375 C 18.171875 -0.5625 17.492188 -0.347656 16.671875 -0.203125 C 15.859375 -0.0664062 14.859375 0 13.671875 0 Z M 1.953125 0 "/></g></g></g><g fill="#000000" fill-opacity="1"><g transform="translate(84.670084, 114.333115)"><g><path d="M 1.953125 -15.640625 L 3.90625 -15.640625 L 3.90625 0 L 1.953125 0 Z M 1.953125 -15.640625 "/></g></g></g><g fill="#000000" fill-opacity="1"><g transform="translate(95.518212, 114.333115)"><g><path d="M 11.8125 -8.796875 C 12.882812 -8.796875 13.800781 -8.75 14.5625 -8.65625 C 15.332031 -8.570312 15.976562 -8.441406 16.5 -8.265625 C 17.03125 -8.097656 17.453125 -7.882812 17.765625 -7.625 C 18.078125 -7.363281 18.316406 -7.066406 18.484375 -6.734375 C 18.648438 -6.410156 18.757812 -6.046875 18.8125 -5.640625 C 18.863281 -5.234375 18.890625 -4.789062 18.890625 -4.3125 C 18.890625 -3.84375 18.847656 -3.394531 18.765625 -2.96875 C 18.679688 -2.550781 18.53125 -2.171875 18.3125 -1.828125 C 18.09375 -1.484375 17.796875 -1.175781 17.421875 -0.90625 C 17.046875 -0.632812 16.570312 -0.398438 16 -0.203125 C 15.425781 -0.015625 14.734375 0.125 13.921875 0.21875 C 13.109375 0.3125 12.160156 0.359375 11.078125 0.359375 L 8.46875 0.359375 C 7.488281 0.359375 6.628906 0.320312 5.890625 0.25 C 5.160156 0.175781 4.53125 0.0664062 4 -0.078125 C 3.476562 -0.234375 3.039062 -0.425781 2.6875 -0.65625 C 2.34375 -0.894531 2.066406 -1.171875 1.859375 -1.484375 C 1.660156 -1.804688 1.519531 -2.164062 1.4375 -2.5625 C 1.351562 -2.96875 1.3125 -3.414062 1.3125 -3.90625 L 3.265625 -3.90625 C 3.265625 -3.300781 3.351562 -2.820312 3.53125 -2.46875 C 3.707031 -2.125 4 -1.863281 4.40625 -1.6875 C 4.8125 -1.519531 5.34375 -1.410156 6 -1.359375 C 6.664062 -1.316406 7.488281 -1.296875 8.46875 -1.296875 L 11.078125 -1.296875 C 12.210938 -1.296875 13.15625 -1.347656 13.90625 -1.453125 C 14.664062 -1.566406 15.269531 -1.742188 15.71875 -1.984375 C 16.164062 -2.222656 16.476562 -2.53125 16.65625 -2.90625 C 16.84375 -3.289062 16.9375 -3.757812 16.9375 -4.3125 C 16.9375 -4.863281 16.875 -5.320312 16.75 -5.6875 C 16.625 -6.050781 16.375 -6.34375 16 -6.5625 C 15.632812 -6.78125 15.113281 -6.9375 14.4375 -7.03125 C 13.769531 -7.125 12.894531 -7.171875 11.8125 -7.171875 L 9.125 -7.171875 C 7.925781 -7.171875 6.898438 -7.210938 6.046875 -7.296875 C 5.191406 -7.378906 4.476562 -7.503906 3.90625 -7.671875 C 3.332031 -7.835938 2.867188 -8.046875 2.515625 -8.296875 C 2.171875 -8.546875 1.910156 -8.828125 1.734375 -9.140625 C 1.554688 -9.460938 1.4375 -9.816406 1.375 -10.203125 C 1.320312 -10.597656 1.296875 -11.023438 1.296875 -11.484375 C 1.296875 -11.953125 1.335938 -12.390625 1.421875 -12.796875 C 1.515625 -13.210938 1.675781 -13.582031 1.90625 -13.90625 C 2.132812 -14.238281 2.445312 -14.53125 2.84375 -14.78125 C 3.25 -15.039062 3.765625 -15.253906 4.390625 -15.421875 C 5.015625 -15.597656 5.769531 -15.726562 6.65625 -15.8125 C 7.539062 -15.90625 8.578125 -15.953125 9.765625 -15.953125 L 11.71875 -15.953125 C 12.695312 -15.953125 13.550781 -15.914062 14.28125 -15.84375 C 15.019531 -15.78125 15.648438 -15.671875 16.171875 -15.515625 C 16.703125 -15.359375 17.144531 -15.164062 17.5 -14.9375 C 17.851562 -14.71875 18.128906 -14.445312 18.328125 -14.125 C 18.535156 -13.8125 18.679688 -13.453125 18.765625 -13.046875 C 18.847656 -12.648438 18.890625 -12.207031 18.890625 -11.71875 L 16.9375 -11.71875 C 16.9375 -12.332031 16.847656 -12.8125 16.671875 -13.15625 C 16.492188 -13.5 16.203125 -13.757812 15.796875 -13.9375 C 15.390625 -14.113281 14.851562 -14.222656 14.1875 -14.265625 C 13.519531 -14.304688 12.695312 -14.328125 11.71875 -14.328125 L 9.765625 -14.328125 C 8.460938 -14.328125 7.390625 -14.28125 6.546875 -14.1875 C 5.710938 -14.101562 5.050781 -13.953125 4.5625 -13.734375 C 4.070312 -13.515625 3.726562 -13.222656 3.53125 -12.859375 C 3.34375 -12.492188 3.25 -12.035156 3.25 -11.484375 C 3.25 -11.140625 3.273438 -10.832031 3.328125 -10.5625 C 3.378906 -10.300781 3.476562 -10.070312 3.625 -9.875 C 3.769531 -9.675781 3.972656 -9.507812 4.234375 -9.375 C 4.492188 -9.238281 4.84375 -9.125 5.28125 -9.03125 C 5.71875 -8.945312 6.25 -8.882812 6.875 -8.84375 C 7.5 -8.8125 8.25 -8.796875 9.125 -8.796875 Z M 11.8125 -8.796875 "/></g></g></g><g fill="#000000" fill-opacity="1"><g transform="translate(120.699104, 114.333115)"><g><path d="M 18.890625 -15.640625 L 18.890625 -14 L 11.078125 -14 L 11.078125 0 L 9.125 0 L 9.125 -14 L 1.296875 -14 L 1.296875 -15.640625 Z M 18.890625 -15.640625 "/></g></g></g><g fill="#000000" fill-opacity="1"><g transform="translate(145.879995, 114.333115)"><g><path d="M 19.859375 0 L 17.90625 0 L 17.90625 -2.9375 C 17.90625 -3.40625 17.894531 -3.8125 17.875 -4.15625 C 17.863281 -4.5 17.804688 -4.789062 17.703125 -5.03125 C 17.609375 -5.28125 17.457031 -5.476562 17.25 -5.625 C 17.039062 -5.78125 16.742188 -5.894531 16.359375 -5.96875 C 15.972656 -6.050781 15.484375 -6.109375 14.890625 -6.140625 C 14.296875 -6.171875 13.5625 -6.1875 12.6875 -6.1875 L 3.90625 -6.1875 L 3.90625 0 L 1.953125 0 L 1.953125 -15.640625 L 13.015625 -15.640625 C 14.210938 -15.640625 15.21875 -15.59375 16.03125 -15.5 C 16.851562 -15.414062 17.53125 -15.289062 18.0625 -15.125 C 18.59375 -14.957031 19 -14.742188 19.28125 -14.484375 C 19.570312 -14.234375 19.785156 -13.9375 19.921875 -13.59375 C 20.054688 -13.257812 20.132812 -12.882812 20.15625 -12.46875 C 20.175781 -12.050781 20.1875 -11.585938 20.1875 -11.078125 C 20.1875 -10.421875 20.140625 -9.847656 20.046875 -9.359375 C 19.960938 -8.867188 19.8125 -8.445312 19.59375 -8.09375 C 19.375 -7.75 19.082031 -7.472656 18.71875 -7.265625 C 18.363281 -7.066406 17.914062 -6.925781 17.375 -6.84375 C 17.914062 -6.757812 18.347656 -6.613281 18.671875 -6.40625 C 19.003906 -6.207031 19.253906 -5.941406 19.421875 -5.609375 C 19.597656 -5.285156 19.710938 -4.898438 19.765625 -4.453125 C 19.828125 -4.003906 19.859375 -3.5 19.859375 -2.9375 Z M 3.90625 -7.8125 L 13.015625 -7.8125 C 13.878906 -7.8125 14.609375 -7.828125 15.203125 -7.859375 C 15.796875 -7.890625 16.285156 -7.945312 16.671875 -8.03125 C 17.066406 -8.113281 17.367188 -8.226562 17.578125 -8.375 C 17.785156 -8.519531 17.9375 -8.710938 18.03125 -8.953125 C 18.132812 -9.203125 18.191406 -9.5 18.203125 -9.84375 C 18.222656 -10.1875 18.234375 -10.597656 18.234375 -11.078125 C 18.234375 -11.515625 18.222656 -11.890625 18.203125 -12.203125 C 18.191406 -12.523438 18.132812 -12.796875 18.03125 -13.015625 C 17.9375 -13.234375 17.785156 -13.40625 17.578125 -13.53125 C 17.367188 -13.664062 17.066406 -13.765625 16.671875 -13.828125 C 16.285156 -13.898438 15.796875 -13.945312 15.203125 -13.96875 C 14.609375 -13.988281 13.878906 -14 13.015625 -14 L 3.90625 -14 Z M 3.90625 -7.8125 "/></g></g></g><g fill="#000000" fill-opacity="1"><g transform="translate(172.363866, 114.333115)"><g><path d="M 1.953125 -15.640625 L 3.90625 -15.640625 L 3.90625 0 L 1.953125 0 Z M 1.953125 -15.640625 "/></g></g></g><g fill="#000000" fill-opacity="1"><g transform="translate(183.211994, 114.333115)"><g><path d="M 1.953125 0 L 1.953125 -15.640625 L 14.984375 -15.640625 C 15.960938 -15.640625 16.75 -15.554688 17.34375 -15.390625 C 17.945312 -15.234375 18.410156 -15 18.734375 -14.6875 C 19.054688 -14.382812 19.269531 -14 19.375 -13.53125 C 19.488281 -13.070312 19.546875 -12.546875 19.546875 -11.953125 C 19.546875 -11.515625 19.503906 -11.128906 19.421875 -10.796875 C 19.347656 -10.460938 19.25 -10.171875 19.125 -9.921875 C 19.007812 -9.679688 18.875 -9.476562 18.71875 -9.3125 C 18.5625 -9.144531 18.398438 -9.007812 18.234375 -8.90625 C 17.859375 -8.644531 17.425781 -8.5 16.9375 -8.46875 C 17.539062 -8.4375 18.082031 -8.285156 18.5625 -8.015625 C 18.769531 -7.898438 18.96875 -7.753906 19.15625 -7.578125 C 19.351562 -7.410156 19.523438 -7.195312 19.671875 -6.9375 C 19.828125 -6.6875 19.953125 -6.390625 20.046875 -6.046875 C 20.140625 -5.703125 20.1875 -5.304688 20.1875 -4.859375 C 20.1875 -4.316406 20.160156 -3.820312 20.109375 -3.375 C 20.066406 -2.925781 19.96875 -2.519531 19.8125 -2.15625 C 19.65625 -1.800781 19.429688 -1.484375 19.140625 -1.203125 C 18.847656 -0.929688 18.457031 -0.707031 17.96875 -0.53125 C 17.476562 -0.351562 16.882812 -0.21875 16.1875 -0.125 C 15.488281 -0.0390625 14.648438 0 13.671875 0 Z M 13.015625 -1.625 C 13.773438 -1.625 14.429688 -1.632812 14.984375 -1.65625 C 15.546875 -1.6875 16.019531 -1.738281 16.40625 -1.8125 C 16.789062 -1.894531 17.101562 -2.007812 17.34375 -2.15625 C 17.582031 -2.300781 17.765625 -2.492188 17.890625 -2.734375 C 18.023438 -2.972656 18.113281 -3.265625 18.15625 -3.609375 C 18.207031 -3.953125 18.234375 -4.367188 18.234375 -4.859375 C 18.234375 -5.242188 18.207031 -5.578125 18.15625 -5.859375 C 18.113281 -6.140625 18.023438 -6.375 17.890625 -6.5625 C 17.765625 -6.757812 17.582031 -6.914062 17.34375 -7.03125 C 17.101562 -7.15625 16.789062 -7.25 16.40625 -7.3125 C 16.019531 -7.382812 15.546875 -7.429688 14.984375 -7.453125 C 14.429688 -7.472656 13.773438 -7.484375 13.015625 -7.484375 L 3.90625 -7.484375 L 3.90625 -1.625 Z M 13.015625 -9.125 C 13.679688 -9.125 14.253906 -9.132812 14.734375 -9.15625 C 15.210938 -9.1875 15.625 -9.238281 15.96875 -9.3125 C 16.3125 -9.382812 16.585938 -9.488281 16.796875 -9.625 C 17.003906 -9.757812 17.164062 -9.929688 17.28125 -10.140625 C 17.40625 -10.347656 17.488281 -10.597656 17.53125 -10.890625 C 17.570312 -11.191406 17.59375 -11.546875 17.59375 -11.953125 C 17.59375 -12.378906 17.539062 -12.726562 17.4375 -13 C 17.34375 -13.28125 17.171875 -13.492188 16.921875 -13.640625 C 16.679688 -13.785156 16.351562 -13.878906 15.9375 -13.921875 C 15.519531 -13.972656 14.988281 -14 14.34375 -14 L 3.90625 -14 L 3.90625 -9.125 Z M 13.015625 -9.125 "/></g></g></g><g fill="#000000" fill-opacity="1"><g transform="translate(209.695865, 114.333115)"><g><path d="M 20.203125 -15.640625 L 20.203125 -7.8125 C 20.203125 -6.894531 20.1875 -6.054688 20.15625 -5.296875 C 20.132812 -4.535156 20.054688 -3.851562 19.921875 -3.25 C 19.796875 -2.644531 19.585938 -2.117188 19.296875 -1.671875 C 19.015625 -1.222656 18.609375 -0.847656 18.078125 -0.546875 C 17.554688 -0.253906 16.882812 -0.0351562 16.0625 0.109375 C 15.25 0.253906 14.242188 0.328125 13.046875 0.328125 L 8.46875 0.328125 C 7.269531 0.328125 6.257812 0.253906 5.4375 0.109375 C 4.625 -0.0351562 3.953125 -0.253906 3.421875 -0.546875 C 2.898438 -0.847656 2.492188 -1.222656 2.203125 -1.671875 C 1.910156 -2.117188 1.695312 -2.644531 1.5625 -3.25 C 1.4375 -3.851562 1.363281 -4.535156 1.34375 -5.296875 C 1.320312 -6.054688 1.3125 -6.894531 1.3125 -7.8125 L 1.3125 -15.640625 L 3.265625 -15.640625 L 3.265625 -7.8125 C 3.265625 -6.832031 3.269531 -5.992188 3.28125 -5.296875 C 3.300781 -4.597656 3.359375 -4.003906 3.453125 -3.515625 C 3.554688 -3.035156 3.707031 -2.648438 3.90625 -2.359375 C 4.113281 -2.066406 4.410156 -1.84375 4.796875 -1.6875 C 5.191406 -1.53125 5.6875 -1.425781 6.28125 -1.375 C 6.875 -1.320312 7.601562 -1.296875 8.46875 -1.296875 L 13.046875 -1.296875 C 13.910156 -1.296875 14.640625 -1.320312 15.234375 -1.375 C 15.828125 -1.425781 16.316406 -1.53125 16.703125 -1.6875 C 17.085938 -1.84375 17.382812 -2.066406 17.59375 -2.359375 C 17.800781 -2.648438 17.953125 -3.035156 18.046875 -3.515625 C 18.148438 -4.003906 18.207031 -4.597656 18.21875 -5.296875 C 18.238281 -5.992188 18.25 -6.832031 18.25 -7.8125 L 18.234375 -15.640625 Z M 20.203125 -15.640625 "/></g></g></g><g fill="#000000" fill-opacity="1"><g transform="translate(236.18992, 114.333115)"><g><path d="M 18.890625 -15.640625 L 18.890625 -14 L 11.078125 -14 L 11.078125 0 L 9.125 0 L 9.125 -14 L 1.296875 -14 L 1.296875 -15.640625 Z M 18.890625 -15.640625 "/></g></g></g><g fill="#000000" fill-opacity="1"><g transform="translate(261.370811, 114.333115)"><g><path d="M 1.953125 -15.640625 L 3.90625 -15.640625 L 3.90625 0 L 1.953125 0 Z M 1.953125 -15.640625 "/></g></g></g><g fill="#000000" fill-opacity="1"><g transform="translate(272.21894, 114.333115)"><g><path d="M 14.34375 -15.953125 C 15.53125 -15.953125 16.53125 -15.878906 17.34375 -15.734375 C 18.164062 -15.585938 18.84375 -15.367188 19.375 -15.078125 C 19.90625 -14.785156 20.3125 -14.414062 20.59375 -13.96875 C 20.882812 -13.519531 21.09375 -12.992188 21.21875 -12.390625 C 21.351562 -11.785156 21.429688 -11.101562 21.453125 -10.34375 C 21.484375 -9.582031 21.5 -8.738281 21.5 -7.8125 C 21.5 -6.894531 21.484375 -6.054688 21.453125 -5.296875 C 21.429688 -4.535156 21.351562 -3.851562 21.21875 -3.25 C 21.09375 -2.644531 20.882812 -2.117188 20.59375 -1.671875 C 20.3125 -1.222656 19.90625 -0.847656 19.375 -0.546875 C 18.84375 -0.253906 18.164062 -0.0351562 17.34375 0.109375 C 16.53125 0.253906 15.53125 0.328125 14.34375 0.328125 L 8.453125 0.328125 C 7.265625 0.328125 6.257812 0.253906 5.4375 0.109375 C 4.625 -0.0351562 3.953125 -0.253906 3.421875 -0.546875 C 2.890625 -0.847656 2.476562 -1.222656 2.1875 -1.671875 C 1.90625 -2.117188 1.695312 -2.644531 1.5625 -3.25 C 1.425781 -3.851562 1.347656 -4.535156 1.328125 -5.296875 C 1.304688 -6.054688 1.296875 -6.894531 1.296875 -7.8125 C 1.296875 -8.738281 1.304688 -9.582031 1.328125 -10.34375 C 1.347656 -11.101562 1.425781 -11.785156 1.5625 -12.390625 C 1.695312 -12.992188 1.90625 -13.519531 2.1875 -13.96875 C 2.476562 -14.414062 2.890625 -14.785156 3.421875 -15.078125 C 3.953125 -15.367188 4.625 -15.585938 5.4375 -15.734375 C 6.257812 -15.878906 7.265625 -15.953125 8.453125 -15.953125 Z M 14.34375 -1.296875 C 15.207031 -1.296875 15.929688 -1.320312 16.515625 -1.375 C 17.109375 -1.425781 17.597656 -1.53125 17.984375 -1.6875 C 18.378906 -1.84375 18.679688 -2.066406 18.890625 -2.359375 C 19.097656 -2.648438 19.25 -3.035156 19.34375 -3.515625 C 19.4375 -4.003906 19.492188 -4.597656 19.515625 -5.296875 C 19.535156 -5.992188 19.546875 -6.832031 19.546875 -7.8125 C 19.546875 -8.789062 19.535156 -9.628906 19.515625 -10.328125 C 19.492188 -11.035156 19.4375 -11.628906 19.34375 -12.109375 C 19.25 -12.585938 19.097656 -12.972656 18.890625 -13.265625 C 18.679688 -13.554688 18.382812 -13.78125 18 -13.9375 C 17.613281 -14.09375 17.125 -14.195312 16.53125 -14.25 C 15.9375 -14.300781 15.207031 -14.328125 14.34375 -14.328125 L 8.453125 -14.328125 C 7.585938 -14.328125 6.859375 -14.300781 6.265625 -14.25 C 5.671875 -14.195312 5.179688 -14.09375 4.796875 -13.9375 C 4.410156 -13.78125 4.109375 -13.554688 3.890625 -13.265625 C 3.679688 -12.972656 3.53125 -12.585938 3.4375 -12.109375 C 3.34375 -11.628906 3.285156 -11.035156 3.265625 -10.328125 C 3.253906 -9.628906 3.25 -8.789062 3.25 -7.8125 C 3.25 -6.832031 3.257812 -5.992188 3.28125 -5.296875 C 3.300781 -4.597656 3.359375 -4.003906 3.453125 -3.515625 C 3.546875 -3.035156 3.695312 -2.648438 3.90625 -2.359375 C 4.113281 -2.066406 4.410156 -1.84375 4.796875 -1.6875 C 5.179688 -1.53125 5.671875 -1.425781 6.265625 -1.375 C 6.859375 -1.320312 7.585938 -1.296875 8.453125 -1.296875 Z M 14.34375 -1.296875 "/></g></g></g><g fill="#000000" fill-opacity="1"><g transform="translate(300.005788, 114.333115)"><g><path d="M 3.90625 0 L 1.953125 0 L 1.953125 -15.640625 L 5.390625 -15.640625 L 19.71875 -1.953125 L 19.71875 -15.640625 L 21.671875 -15.640625 L 21.671875 0 L 19.0625 0 L 3.90625 -14 Z M 3.90625 0 "/></g></g></g></svg>