<svg xmlns="http://www.w3.org/2000/svg" xmlns:xlink="http://www.w3.org/1999/xlink" width="500" zoomAndPan="magnify" viewBox="0 0 375 374.999991" height="500" preserveAspectRatio="xMidYMid meet" version="1.0"><defs><clipPath id="2e84eb55ad"><path d="M 171 54.746094 L 214.96875 54.746094 L 214.96875 374.996094 L 171 374.996094 Z M 171 54.746094 " clip-rule="nonzero"/></clipPath><clipPath id="e458bb3e5a"><path d="M 174 58 L 214.96875 58 L 214.96875 372 L 174 372 Z M 174 58 " clip-rule="nonzero"/></clipPath><clipPath id="69cc998ed0"><path d="M 174 57 L 214.96875 57 L 214.96875 373 L 174 373 Z M 174 57 " clip-rule="nonzero"/></clipPath><clipPath id="d8f0aa248c"><path d="M 173 57 L 214.96875 57 L 214.96875 373 L 173 373 Z M 173 57 " clip-rule="nonzero"/></clipPath><clipPath id="1822d55933"><path d="M 189 22 L 197 22 L 197 109.347656 L 189 109.347656 Z M 189 22 " clip-rule="nonzero"/></clipPath><clipPath id="2a63615cd5"><path d="M 184.4375 9 L 201.6875 9 L 201.6875 22 L 184.4375 22 Z M 184.4375 9 " clip-rule="nonzero"/></clipPath><clipPath id="900d1839a0"><path d="M 226 119.242188 L 269.425781 119.242188 L 269.425781 374.992188 L 226 374.992188 Z M 226 119.242188 " clip-rule="nonzero"/></clipPath><clipPath id="11c2117851"><path d="M 228 121 L 269.425781 121 L 269.425781 373 L 228 373 Z M 228 121 " clip-rule="nonzero"/></clipPath><clipPath id="349c0d502f"><path d="M 228 121 L 269.425781 121 L 269.425781 374 L 228 374 Z M 228 121 " clip-rule="nonzero"/></clipPath><clipPath id="c4b92aaec3"><path d="M 115.765625 159.742188 L 160.015625 159.742188 L 160.015625 374.992188 L 115.765625 374.992188 Z M 115.765625 159.742188 " clip-rule="nonzero"/></clipPath><clipPath id="59b7b2fd3b"><path d="M 117 159.742188 L 159 159.742188 L 159 373 L 117 373 Z M 117 159.742188 " clip-rule="nonzero"/></clipPath><clipPath id="fa369e3c35"><path d="M 116 159.742188 L 159 159.742188 L 159 374 L 116 374 Z M 116 159.742188 " clip-rule="nonzero"/></clipPath></defs><g clip-path="url(#2e84eb55ad)"><path fill="#00a5e9" d="M 171.167969 54.761719 L 228.71875 54.761719 L 228.71875 374.980469 L 171.167969 374.980469 Z M 171.167969 54.761719 " fill-opacity="1" fill-rule="nonzero"/></g><g clip-path="url(#e458bb3e5a)"><path fill="#00a5e9" d="M 174.496094 371.683594 L 174.496094 58.09375 L 225.390625 58.09375 L 225.390625 371.683594 Z M 174.496094 371.683594 " fill-opacity="1" fill-rule="nonzero"/></g><g clip-path="url(#69cc998ed0)"><path stroke-linecap="butt" transform="matrix(0.000000000000000101, -1.656751, 1.664785, 0.000000000000000102, 171.166678, 374.996781)" fill="none" stroke-linejoin="miter" d="M 1.99981 1.999907 L 191.279819 1.999907 L 191.279819 32.571142 L 1.99981 32.571142 Z M 1.99981 1.999907 " stroke="#ffffff" stroke-width="0.5" stroke-opacity="1" stroke-miterlimit="10"/></g><g clip-path="url(#d8f0aa248c)"><path fill="#00a5e9" d="M 173.664062 372.511719 L 226.222656 372.511719 L 226.222656 57.265625 L 173.664062 57.265625 Z M 224.554688 58.921875 L 224.554688 370.855469 L 175.328125 370.855469 L 175.328125 58.921875 Z M 224.554688 58.921875 " fill-opacity="1" fill-rule="nonzero"/></g><g clip-path="url(#1822d55933)"><path fill="#00a5e9" d="M 196.828125 468.085938 C 194.351562 468.085938 191.972656 468.085938 189.589844 468.085938 C 191.476562 458.820312 190.382812 449.460938 190.484375 440.101562 C 190.582031 430.644531 190.484375 421.1875 190.484375 411.632812 C 190.484375 356.835938 190.484375 302.136719 190.484375 247.34375 C 190.484375 197.910156 190.484375 148.476562 190.484375 99.042969 C 190.484375 76.132812 190.484375 53.316406 190.382812 30.402344 C 190.382812 27.867188 190.085938 25.429688 189.890625 22.703125 C 191.871094 22.703125 194.25 22.703125 196.234375 22.703125 C 195.042969 32.257812 195.738281 41.910156 195.640625 51.464844 C 195.539062 100.898438 195.640625 150.230469 195.640625 199.664062 C 195.640625 211.363281 195.441406 222.96875 195.441406 234.667969 C 195.441406 292.875 195.539062 350.984375 195.640625 409.195312 C 195.640625 420.113281 195.441406 431.035156 195.441406 441.953125 C 195.441406 449.070312 195.539062 456.285156 195.738281 463.40625 C 195.738281 464.867188 196.433594 466.425781 196.828125 468.085938 Z M 196.828125 468.085938 " fill-opacity="1" fill-rule="nonzero"/></g><g clip-path="url(#2a63615cd5)"><path fill="#00a5e9" d="M 184.4375 12.660156 C 188.402344 13.925781 191.078125 12.660156 193.0625 9.441406 C 194.945312 12.757812 197.917969 13.535156 201.488281 13.339844 C 200.695312 15.582031 200 17.730469 199.109375 19.777344 C 198.710938 20.457031 197.621094 21.238281 196.828125 21.335938 C 193.753906 21.53125 190.683594 21.433594 187.507812 21.433594 C 186.519531 18.507812 185.527344 15.777344 184.4375 12.660156 Z M 184.4375 12.660156 " fill-opacity="1" fill-rule="nonzero"/></g><g clip-path="url(#900d1839a0)"><path fill="#00a5e9" d="M 226.285156 119.257812 L 272.03125 119.257812 L 272.03125 374.980469 L 226.285156 374.980469 Z M 226.285156 119.257812 " fill-opacity="1" fill-rule="nonzero"/></g><g clip-path="url(#11c2117851)"><path stroke-linecap="butt" transform="matrix(0.000000000000000081, -1.323073, 1.323285, 0.000000000000000081, 226.28356, 374.993003)" fill-opacity="1" fill="#00a5e9" fill-rule="nonzero" stroke-linejoin="miter" d="M 1.999396 1.999665 L 191.28118 1.999665 L 191.28118 32.56989 L 1.999396 32.56989 Z M 1.999396 1.999665 " stroke="#ffffff" stroke-width="0.5" stroke-opacity="1" stroke-miterlimit="10"/></g><g clip-path="url(#349c0d502f)"><path fill="#00a5e9" d="M 228.269531 373.007812 L 270.042969 373.007812 L 270.042969 121.253906 L 228.269531 121.253906 Z M 268.722656 122.578125 L 268.722656 371.683594 L 229.589844 371.683594 L 229.589844 122.578125 Z M 268.722656 122.578125 " fill-opacity="1" fill-rule="nonzero"/></g><g clip-path="url(#c4b92aaec3)"><path fill="#00a5e9" d="M 114.945312 119.253906 L 160.691406 119.253906 L 160.691406 374.980469 L 114.945312 374.980469 Z M 114.945312 119.253906 " fill-opacity="1" fill-rule="nonzero"/></g><g clip-path="url(#59b7b2fd3b)"><path stroke-linecap="butt" transform="matrix(0.000000000000000081, -1.323073, 1.323285, 0.000000000000000081, 114.946514, 374.992183)" fill-opacity="1" fill="#00a5e9" fill-rule="nonzero" stroke-linejoin="miter" d="M 1.998776 2.000503 L 191.28056 2.000503 L 191.28056 32.570728 L 1.998776 32.570728 Z M 1.998776 2.000503 " stroke="#ffffff" stroke-width="0.5" stroke-opacity="1" stroke-miterlimit="10"/></g><g clip-path="url(#fa369e3c35)"><path fill="#00a5e9" d="M 116.929688 373.007812 L 158.707031 373.007812 L 158.707031 121.253906 L 116.929688 121.253906 Z M 157.382812 122.578125 L 157.382812 371.683594 L 118.253906 371.683594 L 118.253906 122.578125 Z M 157.382812 122.578125 " fill-opacity="1" fill-rule="nonzero"/></g></svg>