<?xml version="1.0" encoding="UTF-8" standalone="no"?>
<!-- Created with Inkscape (http://www.inkscape.org/) -->

<svg
   xmlns:svg="http://www.w3.org/2000/svg"
   xmlns="http://www.w3.org/2000/svg"
   version="1.1"
   width="1323.7734"
   height="250"
   id="svg2"
   xml:space="preserve"><defs
     id="defs6"><clipPath
       id="clipPath18"><path
         d="M 0,0 612,0 612,792 0,792 0,0 z"
         id="path20" /></clipPath><clipPath
       id="clipPath26"><path
         d="M 0,0 612,0 612,792 0,792 0,0 z"
         id="path28" /></clipPath><clipPath
       id="clipPath34"><path
         d="m -333,673.2 928.469,0 0,-919.09 -928.469,0 0,919.09 z"
         id="path36" /></clipPath><clipPath
       id="clipPath42"><path
         d="m -333,673.2 928.469,0 0,-919.09 -928.469,0 0,919.09 z"
         id="path44" /></clipPath><clipPath
       id="clipPath50"><path
         d="m -355.5,808.609 972,0 0,-1188 -972,0 0,1188 z"
         id="path52" /></clipPath><clipPath
       id="clipPath78"><path
         d="m 64.125,140.625 460.5,0 0,378 -460.5,0 0,-378 z"
         id="path80" /></clipPath><clipPath
       id="clipPath86"><path
         d="m 64.125,527.063 459.533,0 0,-384.143 -459.533,0 0,384.143 z"
         id="path88" /></clipPath><clipPath
       id="clipPath94"><path
         d="m 64.125,527.063 459.533,0 0,-384.143 -459.533,0 0,384.143 z"
         id="path96" /></clipPath><clipPath
       id="clipPath102"><path
         d="m 8.822,614.61 571.378,0 0,-571.378 -571.378,0 0,571.378 z"
         id="path104" /></clipPath><clipPath
       id="clipPath316"><path
         d="m 393.954,64.12 114.988,0 0,26.88 -114.988,0 0,-26.88 z"
         id="path318" /></clipPath><clipPath
       id="clipPath340"><path
         d="m 36,50.382 95.444,0 0,16.772 -95.444,0 0,-16.772 z"
         id="path342" /></clipPath><clipPath
       id="clipPath360"><path
         d="m 36,54.136 95.444,0 0,13.018 -95.444,0 0,-13.018 z"
         id="path362" /></clipPath></defs><g
     transform="matrix(1.25,0,0,-1.25,-492.10622,337.84124)"
     id="g12"><path
       d="m 1376.0323,175.45818 38.5954,0 9.2064,44.4252 -38.6244,0 10.1973,49.16787 -56.6042,0 -29.4276,-142.25108 c -1.6835,-8.04233 -2.405,-14.67051 -2.1837,-20.25974 0.2597,-6.859066 2.886,-13.179412 7.8595,-18.768638 4.4733,-5.021645 9.4084,-8.590668 14.6032,-10.630111 4.9543,-1.933621 11.0245,-2.876382 18.4897,-2.876382 l 44.0211,0 8.8504,42.607021 -22.5493,0 c -5.5411,0 -9.745,0.99086 -11.7941,2.79942 -0.7119,0.6253 -1.8952,1.64503 -1.0775,5.43531 l 10.4378,50.35113 z"
       id="path320"
       style="fill:#100f0d;fill-opacity:1;fill-rule:nonzero;stroke:none" /><path
       d="m 434.08902,270.27299 -9.75469,-47.08994 61.28908,0 9.74507,47.08994 -61.27946,0 z"
       id="path322"
       style="fill:#100f0d;fill-opacity:1;fill-rule:nonzero;stroke:none" /><path
       d="m 620.57291,144.14505 37.79701,-68.69649 70.65897,0 -43.66522,76.81578 c 8.58105,4.81 16.13276,10.72631 19.98076,14.04521 7.90765,6.78211 18.2203,22.71284 21.07744,36.59452 3.85763,18.57624 0.45214,34.59355 -10.09139,47.66714 -11.76527,14.52622 -34.41077,19.70178 -50.17797,19.70178 l -144.31938,0 -9.74507,-47.08994 62.37614,0 7.09957,0 51.62097,0.12506 c 9.92785,0 17.26792,-1.69312 21.81818,-5.04089 2.42424,-1.78932 4.49254,-4.25204 3.2708,-10.14911 -1.1063,-5.291 -5.17556,-9.62963 -12.44829,-13.27561 -6.97451,-3.50168 -14.05483,-5.19481 -21.69312,-5.19481 l -56.38288,0 4.45407,19.14382 -63.19385,0 -28.177,-133.34295 10.66859,0 45.31024,0 7.06109,0 14.20875,68.69649 62.49159,0 z"
       id="path324"
       style="fill:#100f0d;fill-opacity:1;fill-rule:nonzero;stroke:none" /><path
       d="m 421.84275,208.79151 -28.15777,-133.34295 61.64502,0 27.81145,133.34295 -61.2987,0 z"
       id="path326"
       style="fill:#100f0d;fill-opacity:1;fill-rule:nonzero;stroke:none" /><path
       d="m 845.30595,150.60007 c -2.47234,-11.82299 -7.34007,-21.12554 -14.44925,-27.5998 -6.95527,-6.32035 -15.94036,-9.37951 -27.50361,-9.37951 -9.59115,0 -16.50794,2.78018 -21.11592,8.52333 -4.64647,5.76238 -5.85859,13.52573 -3.74219,23.72294 1.89515,9.15825 6.50313,16.50794 14.12218,22.43386 7.74411,6.05099 16.34439,8.95623 26.3492,8.95623 10.34151,0 17.60462,-2.53006 22.17413,-7.71525 4.43482,-5.06974 5.79124,-11.08225 4.16546,-18.9418 m 48.18663,51.92882 c -14.73786,12.70803 -36.23858,19.17268 -63.96345,19.17268 -24.57912,0 -47.00336,-5.79125 -66.66666,-17.15248 -22.76094,-12.98701 -36.66186,-31.03415 -41.35642,-53.65079 -5.75277,-27.74411 0.45214,-49.02357 18.40307,-63.280428 14.5647,-11.495912 36.21934,-17.344877 64.35787,-17.344877 25.78162,0 48.09043,5.637325 66.34921,16.748436 20.32708,12.390573 32.99663,29.995189 37.60461,52.361709 l 1.5873,7.48437 c 4.83887,23.39586 -0.65416,42.1164 -16.31553,55.66138"
       id="path328"
       style="fill:#100f0d;fill-opacity:1;fill-rule:nonzero;stroke:none" /><path
       d="m 1242.7759,150.60007 c -2.4916,-12.01539 -7.2246,-21.02934 -14.43,-27.5998 -6.9649,-6.32035 -15.9404,-9.37951 -27.5133,-9.37951 -9.5815,0 -16.5079,2.78018 -21.1255,8.52333 -4.6176,5.76238 -5.8682,13.52573 -3.7326,23.72294 1.8856,9.15825 6.4935,16.50794 14.1126,22.43386 7.7537,6.05099 16.3444,8.95623 26.3492,8.95623 10.3415,0 17.595,-2.53006 22.1934,-7.73449 4.4348,-5.0505 5.772,-11.06301 4.1462,-18.92256 m 44.3579,51.92882 c -14.7187,12.70803 -36.2482,19.17268 -63.9731,19.17268 -24.5888,0 -46.9938,-5.79125 -66.6763,-17.15248 -22.7417,-12.98701 -36.6715,-31.03415 -41.3468,-53.65079 -5.7528,-27.74411 0.4521,-49.02357 18.3935,-63.280428 14.5743,-11.495912 36.2289,-17.344877 64.3674,-17.344877 25.7913,0 48.1097,5.637325 66.3492,16.748436 20.3367,12.390573 32.9871,29.995189 37.6239,52.361709 l 1.5488,7.49399 c 4.8485,23.38624 -0.6253,42.10678 -16.2866,55.65176"
       id="path330"
       style="fill:#100f0d;fill-opacity:1;fill-rule:nonzero;stroke:none" /><path
       d="m 1044.5556,150.60007 c -2.4339,-11.85185 -7.3112,-21.12554 -14.4396,-27.5998 -6.9457,-6.32035 -15.9115,-9.37951 -27.4748,-9.37951 -9.62962,0 -16.51755,2.78018 -21.12553,8.52333 -1.05821,1.26984 -1.14479,3.20346 -1.08707,7.70562 0.0866,7.17653 4.34825,25.64695 6.32997,30.38961 1.7316,4.06927 2.65512,6.12795 5.13709,8.06157 7.71524,6.05099 16.33474,8.95623 26.30114,8.95623 10.3607,0 17.6527,-2.53006 22.2318,-7.71525 4.4348,-5.06974 5.7432,-11.08225 4.127,-18.9418 m 44.2424,52.02502 c -15.2381,12.64069 -36.7292,19.07648 -63.848,19.07648 -10.4088,0 -21.0101,-1.27947 -30.64934,-3.35739 l 12.27514,51.89995 -60.10583,0 -22.28956,-100.16354 c -0.7215,-3.38624 -7.08033,-33.71813 -6.90717,-45.85858 0.1924,-14.30496 6.77249,-27.638289 18.076,-36.604138 14.55507,-11.495912 36.21934,-17.344877 64.35786,-17.344877 25.7816,0 48.0712,5.637325 66.3204,16.748436 20.3463,12.371333 32.9966,29.995189 37.6142,52.361709 l -0.019,-0.25974 c 0.4041,1.73161 9.9471,42.93411 -14.8244,63.50169"
       id="path332"
       style="fill:#100f0d;fill-opacity:1;fill-rule:nonzero;stroke:none" /><path
       d="m 1432.3286,254.14024 4.8677,0 c 1.2698,0 2.2126,0.31746 2.8379,0.95238 0.6157,0.63492 0.9235,1.41414 0.9235,2.33766 0,0.97162 -0.3271,1.69312 -0.9812,2.19336 -0.6638,0.49062 -1.4911,0.74074 -2.482,0.74074 l -5.1659,0 0,-6.22414 z m 11.8999,-10.34151 -3.0688,0 -3.6171,8.09043 -5.214,0 0,-8.09043 -2.7995,0 0,18.81674 7.9654,0 c 2.1453,0 3.7518,-0.54834 4.8196,-1.64503 1.0678,-1.09668 1.6066,-2.31842 1.6066,-3.6556 0,-0.99086 -0.2983,-1.94324 -0.8658,-2.85714 -0.5772,-0.92352 -1.4911,-1.56806 -2.7129,-1.95286 l 3.8865,-8.70611 z m 6.2145,9.44685 c 0,3.82876 -1.3564,7.09956 -4.0692,9.81241 -2.7129,2.71284 -5.9837,4.06926 -9.8028,4.06926 -3.8192,0 -7.0803,-1.36604 -9.8028,-4.0885 -2.7225,-2.71285 -4.0789,-5.98365 -4.0789,-9.79317 0,-3.81915 1.3468,-7.08995 4.0597,-9.80279 2.7032,-2.71285 5.9836,-4.07889 9.822,-4.07889 3.8095,0 7.0707,1.36604 9.7931,4.08851 2.7225,2.72246 4.0789,5.98364 4.0789,9.79317 m 2.2607,0 c 0,-4.43483 -1.5776,-8.22511 -4.7426,-11.39009 -3.165,-3.16499 -6.9649,-4.74267 -11.3901,-4.74267 -4.4348,0 -8.2347,1.57768 -11.3997,4.74267 -3.165,3.16498 -4.7427,6.95526 -4.7427,11.39009 0,4.41558 1.5777,8.21549 4.7427,11.38047 3.165,3.1746 6.9649,4.75228 11.3997,4.75228 4.4252,0 8.2251,-1.57768 11.3901,-4.75228 3.165,-3.16498 4.7426,-6.96489 4.7426,-11.38047"
       id="path334"
       style="fill:#100f0d;fill-opacity:1;fill-rule:nonzero;stroke:none" /></g></svg>