<!--Generator: Adobe Illustrator 21.0.0, SVG Export Plug-In . SVG Version: 6.00 Build 0)-->
<svg xmlns="http://www.w3.org/2000/svg" xml:space="preserve" style="enable-background:new 0 0 408.1 74.2" viewBox="0 0 408.1 74.2">
  <path d="M371.3 11.7h-.4c-5.7 0-24.4 1.8-24.5 25.2 0 24.4 20.5 25.6 24.6 25.6h.2c2.6 0 11.5-.5 17.9-6.8 4.5-4.4 6.7-10.8 6.7-18.8-.1-23.4-18.8-25.2-24.5-25.2zm7.3 40.9c-1.4 1.2-3.7 2.6-7.2 2.6h-.7c-3.5 0-5.8-1.4-7.2-2.6-3.5-3.1-5.3-8.7-5.3-16.6.1-15.5 7.8-17.8 12.4-17.8h.7c4.6 0 12.3 2.3 12.4 17.8.2 7.9-1.6 13.5-5.1 16.6zM75.8 70.1c-4.5-1.7-11.1-6.6-15-11.2-4.8-5.5-16.4-20.9-16.5-21l-5.3-7c-5.1-7-10.9-14.8-16.7-19.5v51h7V36l.1.2c1.9 2.4 3.9 5 5.9 7.6 3.3 4.2 6.6 8.6 9.4 11.8 1.9 2.2 6.9 7.5 8.3 8.7 6.4 6.1 16.8 10 27.1 10 4.5 0 8.8-.7 12.8-2V72c-1.6.3-3.4.5-5.2.5-3.9-.2-8-.9-11.9-2.4z"/>
  <path d="M31.7 15.4c4.8 5.4 16.8 20.8 17 21l5.3 7c5.1 7 10.9 14.8 16.6 19.5V11.7h-6.9v26.5l-.2-.2c-1.9-2.4-3.9-5-5.9-7.6-3.3-4.2-6.6-8.6-9.4-11.8-1.9-2.2-7.3-7.5-8.7-8.7C33.1 3.8 22.7 0 12.4 0 7.9 0 4 .7 0 2.1v.3c1.6-.4 3.4-.5 5.3-.5 3.9 0 7.7.8 11.5 2.3 4.5 1.6 11.1 6.5 14.9 11.2zm270.4 22.3c-5.7-4.9-12-6.1-16.8-9.4-3.3-2.7-3.2-6.3-1.4-8.1 4.1-4.5 12.3-2.7 14.4-2.2 2.5.6 3.8 1.3 6.1 2.4v-5.7c-10-3-26-5.8-32.2 4.4-2.3 4.2-2.9 11.8 3.8 16.3 6.7 5.3 18.3 7.8 19.6 12.2.9 2.4-.1 4.7-1.7 6.3-5.9 5.6-16.1 2.2-22.2-.6v6.1c6.7 3 15.1 3.8 22.6 2.2 5.1-1.3 10.9-5.8 11.7-11.5.9-5.7-.2-9.3-3.9-12.4zm37 0c-5.7-4.9-12-6.1-16.8-9.4-3.3-2.7-3.2-6.3-1.4-8.1 4.1-4.5 12.3-2.7 14.4-2.2 2.5.6 3.8 1.3 6.1 2.4v-5.7c-10-3-26-5.8-32.2 4.4-2.3 4.2-2.9 11.8 3.8 16.3 6.7 5.3 18.3 7.8 19.6 12.2.9 2.4-.1 4.7-1.7 6.3-6 5.6-16.1 2.2-22.2-.6v6.1c6.7 3 15.1 3.8 22.6 2.2 5.1-1.3 10.9-5.8 11.8-11.5.7-5.7-.4-9.3-4-12.4zM235.8 61.1h32.1v-5.8h-21v-16h16.8v-5.6h-16.8V18.9h21v-5.8h-32.1zm-92.2-23.4c-5.7-4.9-12-6.1-16.8-9.4-3.3-2.7-3.2-6.3-1.4-8.1 4.1-4.5 12.3-2.7 14.4-2.2 2.5.6 3.8 1.3 6.1 2.4v-5.7c-10-3-26-5.8-32.2 4.4-2.3 4.2-2.9 11.8 3.8 16.3 6.7 5.3 18.3 7.8 19.6 12.2.9 2.4-.1 4.7-1.7 6.3-5.9 5.6-16.1 2.2-22.2-.6v6.1c6.7 3 15.1 3.8 22.6 2.2 5.1-1.3 10.9-5.8 11.8-11.5.7-5.7-.4-9.3-4-12.4zM77.4 61.1h32.2v-5.8H88.5v-16h16.8v-5.6H88.5V18.9h21.1v-5.8H77.4zm96.2-48.5h-21.1v49.1h11.2v-3l-.2-15s16.8 1.1 21.9-5.7c3.7-4.3 4-11 2.4-16.4-2.1-6.1-8-8.9-14.2-9zm2.4 22.1c-3 3.3-8.1 2.8-12.5 2.5V18.9s9-2 12.8 3c2.1 2.7 2.2 9.4-.3 12.8zm49 3.2c3.6-4.2 3.9-10.8 2.4-16.1-2-5.9-7.8-8.7-13.9-8.8h-20.7v48.1h11l-.1-17.7s2 .2 5.3 0l10.6 17.8h12.1l-12.2-19.8c2-.8 4.3-1.9 5.5-3.5zm-8.9-3.2c-3 3.2-8 2.8-12.2 2.5v-18s8.8-2 12.5 2.9c2.1 2.7 2.2 9.3-.3 12.6zM402 50.4c-3.5 0-6.3 2.7-6.3 6.1 0 3.4 2.8 6.1 6.3 6.1 3.3 0 6.1-2.6 6.1-6.1 0-3.4-2.8-6.1-6.1-6.1zm0 11.5c-3.1 0-5.7-2.3-5.7-5.4 0-3 2.5-5.4 5.7-5.4 3 0 5.5 2.5 5.5 5.4 0 3.1-2.5 5.4-5.5 5.4z"/>
  <path d="M403.7 56.5c.2-.2 1.1-.5 1.1-1.7s-.8-1.9-2.2-1.9h-3.3v6.8h1.1V57h1.9c1.1 0 1.4.5 1.4 1.7 0 .5 0 .8.2 1.1h1.3c-.3-.3-.3-1.1-.3-1.9-.1-1.1-.7-1.4-1.2-1.4zm-1.2-.5h-2v-2.2h2c.6 0 1.3.1 1.3 1.1-.1.7-.5 1.1-1.3 1.1z"/>
</svg>
