<?xml version="1.0" standalone="no"?>
<!DOCTYPE svg PUBLIC "-//W3C//DTD SVG 20010904//EN"
 "http://www.w3.org/TR/2001/REC-SVG-20010904/DTD/svg10.dtd">
<svg version="1.0" xmlns="http://www.w3.org/2000/svg"
 width="810.000000pt" height="373.000000pt" viewBox="0 0 810.000000 373.000000"
 preserveAspectRatio="xMidYMid meet">
<metadata>
Created by potrace 1.16, written by Peter Selinger 2001-2019
</metadata>
<g transform="translate(0.000000,373.000000) scale(0.100000,-0.100000)"
fill="#000000" stroke="none">
<path d="M70 2170 c0 -836 2 -1520 5 -1520 12 0 461 81 472 85 10 3 13 192 15
876 l3 871 559 -773 c308 -426 562 -777 565 -780 3 -3 76 1 161 10 l155 16 0
1215 0 1215 -195 27 c-107 15 -210 27 -227 27 l-33 1 -2 -726 -3 -725 -545
813 -546 813 -159 31 c-88 17 -175 33 -192 37 l-33 7 0 -1520z"/>
<path d="M2068 2128 l-3 -1223 -145 -17 c-80 -9 -155 -17 -167 -17 -26 -1 -28
-9 -9 -33 12 -17 22 -17 162 -3 82 9 164 18 182 21 l32 5 0 1228 0 1229 -25
16 -25 16 -2 -1222z"/>
<path d="M2480 2174 l0 -1157 43 6 c23 3 108 14 190 23 l147 18 0 1108 0 1108
-22 4 c-13 3 -84 12 -158 21 -74 8 -150 18 -167 21 l-33 5 0 -1157z"/>
<path d="M2920 2146 c0 -619 -3 -1127 -8 -1130 -4 -2 -88 -14 -187 -25 -99
-12 -191 -24 -204 -27 l-24 -5 21 -21 21 -21 193 22 c106 12 203 24 216 27
l22 4 0 1134 0 1134 -25 16 -25 16 0 -1124z"/>
<path d="M3300 2165 l0 -1068 43 6 c23 3 115 13 204 23 l163 18 2 622 3 622
435 -586 436 -587 154 3 c85 2 158 6 162 9 5 2 8 427 8 944 0 888 -1 939 -17
939 -10 0 -92 7 -183 15 -91 8 -173 15 -182 15 -17 0 -18 -36 -20 -567 l-3
-567 -447 601 -448 600 -52 6 c-29 3 -99 9 -155 13 l-103 7 0 -1068z"/>
<path d="M4970 2139 l0 -967 -117 -6 c-65 -4 -146 -9 -180 -12 l-62 -6 16 -25
c15 -23 21 -25 77 -19 34 3 118 9 189 12 l127 7 0 961 -1 961 -24 30 -25 30 0
-966z"/>
<path d="M5300 2334 c0 -746 -5 -910 -35 -1149 -42 -326 -147 -707 -265 -962
-21 -46 -37 -83 -35 -83 2 0 134 88 294 195 l291 196 24 82 c78 259 125 528
146 842 5 83 10 479 10 882 0 688 -1 732 -17 737 -10 2 -107 8 -215 12 l-198
6 0 -758z"/>
<path d="M5790 2404 c-1 -870 -12 -1096 -70 -1424 -23 -126 -91 -400 -114
-454 -12 -29 -62 -67 -318 -237 l-303 -203 34 -9 c34 -8 44 -2 328 188 l293
197 35 111 c61 193 116 476 146 757 7 65 13 405 16 895 l5 790 -26 24 -26 24
0 -659z"/>
<path d="M7564 3040 c-57 -23 -73 -112 -29 -155 26 -27 80 -34 117 -14 26 14
48 67 41 101 -10 53 -79 90 -129 68z m76 -15 c74 -38 44 -155 -39 -155 -88 0
-114 116 -36 158 27 15 41 15 75 -3z"/>
<path d="M6693 3008 c-40 -89 -715 -1730 -712 -1732 5 -4 451 14 465 19 6 2
28 50 49 107 21 56 46 127 57 156 l19 52 369 0 368 0 54 -137 54 -138 227 -3
c125 -1 227 -1 227 1 0 2 -153 381 -339 843 l-340 839 -68 6 c-37 4 -147 7
-244 8 -173 1 -176 1 -186 -21z m374 -720 l120 -313 -123 -3 c-68 -1 -180 -1
-248 0 l-124 3 121 313 c67 171 124 312 127 312 3 0 60 -141 127 -312z"/>
<path d="M6855 2253 c-44 -114 -82 -213 -83 -221 -3 -9 4 -13 24 -10 26 3 31
14 95 183 66 174 75 220 50 247 -3 4 -42 -86 -86 -199z"/>
<path d="M7271 2968 c11 -29 169 -419 350 -866 181 -447 329 -817 329 -822 0
-6 -92 -10 -250 -10 -137 0 -250 -3 -250 -6 0 -3 5 -14 10 -25 10 -18 24 -19
290 -19 154 0 280 2 280 5 0 3 -153 382 -339 843 -187 460 -347 856 -356 878
-14 36 -25 47 -78 72 -4 2 2 -20 14 -50z"/>
<path d="M608 1503 l-3 -818 -247 -45 -248 -45 23 -22 22 -22 245 45 c135 24
248 44 253 44 4 0 7 363 7 806 0 800 0 807 -21 840 -11 19 -22 34 -25 34 -2 0
-5 -368 -6 -817z"/>
<path d="M3760 1664 l0 -571 -225 -23 c-124 -13 -225 -27 -225 -30 0 -4 8 -14
18 -23 17 -16 33 -15 228 4 115 11 219 22 232 25 l22 4 0 556 0 555 -25 37
-25 37 0 -571z"/>
<path d="M6600 1538 c-5 -13 -32 -84 -59 -158 l-48 -135 -54 -7 c-30 -4 -148
-10 -262 -14 l-209 -6 7 -27 c4 -14 7 -26 8 -26 10 -4 539 23 543 27 4 5 134
357 134 365 0 2 -11 3 -25 3 -17 0 -29 -8 -35 -22z"/>
</g>
</svg>
