<?xml version="1.0" standalone="no"?>
<!DOCTYPE svg PUBLIC "-//W3C//DTD SVG 20010904//EN"
 "http://www.w3.org/TR/2001/REC-SVG-20010904/DTD/svg10.dtd">
<svg version="1.0" xmlns="http://www.w3.org/2000/svg"
 width="1678.000000pt" height="432.000000pt" viewBox="0 0 1678.000000 432.000000"
 preserveAspectRatio="xMidYMid meet">
<metadata>
Created by potrace 1.16, written by Peter Selinger 2001-2019
</metadata>
<g transform="translate(0.000000,432.000000) scale(0.100000,-0.100000)"
fill="#000000" stroke="none">
<path d="M1925 4310 c-143 -15 -349 -59 -491 -105 -533 -174 -875 -515 -977
-975 -30 -137 -30 -405 1 -537 87 -375 346 -624 845 -812 59 -23 248 -84 420
-135 172 -52 349 -109 394 -126 143 -55 242 -132 279 -218 23 -54 15 -173 -17
-237 -50 -101 -178 -192 -329 -232 -92 -25 -397 -25 -489 0 -206 56 -298 193
-327 490 l-5 57 -616 0 -616 0 6 -142 c9 -223 49 -392 133 -561 197 -399 608
-657 1199 -753 157 -25 558 -31 726 -10 633 80 1127 357 1379 776 190 316 231
768 99 1094 -99 244 -301 443 -606 595 -201 101 -324 141 -748 245 -331 81
-456 139 -520 241 -26 42 -30 58 -29 114 2 209 177 325 489 324 185 0 290 -29
386 -104 73 -58 129 -181 129 -286 l0 -43 586 0 587 0 -6 138 c-10 214 -42
344 -127 517 -182 370 -569 598 -1145 675 -110 14 -500 21 -610 10z"/>
<path d="M4346 4203 c-3 -10 -30 -142 -61 -293 -31 -151 -85 -414 -120 -585
-375 -1825 -574 -2790 -615 -2988 -28 -131 -50 -240 -50 -243 0 -2 258 -3 572
-2 l573 3 18 85 c10 47 86 405 168 795 170 806 184 866 238 979 98 208 240
301 461 299 182 -1 291 -76 321 -220 14 -72 7 -133 -42 -363 -22 -102 -105
-489 -184 -860 -80 -371 -147 -685 -150 -697 l-5 -23 569 0 c313 0 572 4 575
8 9 15 394 1820 418 1957 32 188 32 438 0 548 -73 253 -246 423 -515 506 -139
43 -234 55 -417 55 -156 -1 -186 -4 -270 -26 -243 -66 -432 -183 -593 -368
-30 -35 -47 -48 -47 -38 0 15 110 552 260 1272 22 104 40 196 40 203 0 11
-104 13 -569 13 -534 0 -570 -1 -575 -17z"/>
<path d="M13561 3957 c-29 -144 -66 -323 -82 -397 -16 -74 -54 -256 -84 -405
-59 -283 -185 -893 -280 -1350 -31 -148 -121 -585 -201 -970 -79 -385 -146
-710 -149 -722 l-5 -23 569 0 c313 0 572 4 575 8 4 7 91 413 164 769 l17 82
125 111 c68 60 127 110 131 110 8 0 3 12 84 -205 117 -314 313 -840 320 -858
7 -16 46 -17 626 -17 340 0 619 3 619 6 0 3 -29 74 -64 157 -58 137 -681 1597
-692 1622 -3 6 30 42 73 79 43 38 101 89 128 115 48 44 490 441 585 525 25 21
68 60 95 85 38 35 386 347 449 403 6 4 -299 8 -676 8 -562 0 -689 -2 -700 -13
-7 -8 -110 -115 -228 -238 -118 -123 -265 -276 -326 -339 -61 -63 -147 -153
-191 -200 -45 -47 -83 -83 -86 -80 -2 3 51 275 119 605 68 330 157 769 199
975 42 206 79 385 82 398 l5 22 -573 0 -574 0 -54 -263z"/>
<path d="M8643 3160 c-601 -51 -977 -276 -1161 -696 -34 -77 -50 -124 -88
-256 -5 -17 25 -18 533 -18 l539 0 29 68 c72 166 223 241 462 230 136 -7 204
-31 261 -92 49 -53 66 -109 59 -191 -10 -137 -100 -224 -275 -269 -79 -21
-211 -34 -461 -46 -651 -32 -1061 -152 -1291 -380 -91 -90 -137 -157 -183
-271 -54 -129 -71 -229 -71 -409 0 -181 13 -249 77 -380 58 -120 175 -237 302
-302 188 -96 381 -134 635 -125 341 13 644 125 826 306 29 28 54 51 58 51 3 0
6 -24 6 -53 0 -57 14 -151 31 -204 l11 -33 559 0 c314 0 559 4 559 9 0 5 -7
25 -16 46 -9 22 -17 83 -21 153 -7 136 -5 144 136 790 179 817 230 1124 218
1328 -23 414 -345 652 -987 730 -147 18 -600 26 -747 14z m457 -1817 c-39
-208 -123 -402 -215 -496 -66 -67 -119 -98 -213 -127 -64 -20 -89 -22 -200
-18 -95 4 -139 10 -175 25 -108 44 -157 115 -157 228 0 129 66 231 184 286 72
34 118 43 319 64 150 16 336 57 417 93 25 11 47 18 49 16 2 -2 -2 -34 -9 -71z"/>
<path d="M12690 3156 c-250 -55 -534 -242 -685 -455 -27 -38 -53 -70 -56 -70
-4 -1 15 103 41 229 l48 230 -556 -2 -556 -3 -22 -110 c-40 -191 -146 -708
-369 -1790 -118 -577 -217 -1060 -220 -1072 l-5 -23 569 0 c313 0 572 3 574 8
3 4 66 302 141 662 144 694 168 797 217 919 114 286 274 433 528 486 169 34
376 27 565 -21 54 -13 102 -26 105 -28 7 -5 8 0 136 603 47 222 84 405 83 406
-2 2 -37 10 -78 20 -104 23 -373 29 -460 11z"/>
<path d="M16405 623 c-105 -36 -175 -142 -175 -264 0 -121 78 -237 178 -267
98 -29 207 -9 280 53 71 60 109 195 83 292 -42 153 -211 239 -366 186z m192
-58 c166 -83 160 -349 -9 -420 -43 -17 -124 -20 -165 -4 -74 28 -132 119 -133
208 0 79 19 130 67 178 67 67 153 81 240 38z"/>
<path d="M16400 356 l0 -156 25 0 c24 0 25 2 25 65 0 62 1 65 24 65 19 0 32
-14 62 -65 33 -56 42 -65 66 -65 27 0 28 2 17 23 -7 12 -25 41 -41 65 l-29 42
24 9 c57 22 74 91 33 138 -23 26 -30 28 -115 31 l-91 4 0 -156z"/>
</g>
</svg>
