<svg xmlns="http://www.w3.org/2000/svg" xmlns:xlink="http://www.w3.org/1999/xlink" width="500" zoomAndPan="magnify" viewBox="0 0 375 149.999998" height="200" preserveAspectRatio="xMidYMid meet" version="1.0"><defs><g/><clipPath id="9a1841e41c"><path d="M 238.414062 29.484375 L 241.414062 29.484375 L 241.414062 78.234375 L 238.414062 78.234375 Z M 238.414062 29.484375 " clip-rule="nonzero"/></clipPath><clipPath id="bb4442f11d"><path d="M 238.414062 29.484375 L 241.414062 29.484375 L 241.414062 78 L 238.414062 78 Z M 238.414062 29.484375 " clip-rule="nonzero"/></clipPath><clipPath id="aa483f77d7"><path d="M 239 27 L 241 27 L 241 38.257812 L 239 38.257812 Z M 239 27 " clip-rule="nonzero"/></clipPath><clipPath id="2bbf8135f1"><path d="M 238.882812 25 L 241.132812 25 L 241.132812 28 L 238.882812 28 Z M 238.882812 25 " clip-rule="nonzero"/></clipPath><clipPath id="0be9ce3226"><path d="M 242.898438 38.488281 L 245.898438 38.488281 L 245.898438 78.238281 L 242.898438 78.238281 Z M 242.898438 38.488281 " clip-rule="nonzero"/></clipPath><clipPath id="efe954056d"><path d="M 243 38.488281 L 245.898438 38.488281 L 245.898438 78 L 243 78 Z M 243 38.488281 " clip-rule="nonzero"/></clipPath><clipPath id="ef56c059f9"><path d="M 21.816406 97.441406 L 60.066406 97.441406 L 60.066406 100.441406 L 21.816406 100.441406 Z M 21.816406 97.441406 " clip-rule="nonzero"/></clipPath><clipPath id="ea059ee1a8"><path d="M 22 97.441406 L 60 97.441406 L 60 100.441406 L 22 100.441406 Z M 22 97.441406 " clip-rule="nonzero"/></clipPath><clipPath id="c671bd5cee"><path d="M 316.800781 97.441406 L 355.050781 97.441406 L 355.050781 100.441406 L 316.800781 100.441406 Z M 316.800781 97.441406 " clip-rule="nonzero"/></clipPath><clipPath id="9dea31a329"><path d="M 317 97.441406 L 355 97.441406 L 355 100.441406 L 317 100.441406 Z M 317 97.441406 " clip-rule="nonzero"/></clipPath><clipPath id="67ca38d809"><path d="M 234.027344 45.980469 L 237.027344 45.980469 L 237.027344 78.230469 L 234.027344 78.230469 Z M 234.027344 45.980469 " clip-rule="nonzero"/></clipPath></defs><g clip-path="url(#9a1841e41c)"><path fill="#00a5e9" d="M 238.480469 29.484375 L 247.34375 29.484375 L 247.34375 78.230469 L 238.480469 78.230469 Z M 238.480469 29.484375 " fill-opacity="1" fill-rule="nonzero"/></g><g clip-path="url(#bb4442f11d)"><path stroke-linecap="butt" transform="matrix(0.000000000000000015, -0.252199, 0.256295, 0.000000000000000016, 238.481737, 78.233208)" fill-opacity="1" fill="#00a5e9" fill-rule="nonzero" stroke-linejoin="miter" d="M 1.993425 2.006892 L 191.28184 2.006892 L 191.28184 32.565547 L 1.993425 32.565547 Z M 1.993425 2.006892 " stroke="#ffffff" stroke-width="0.5" stroke-opacity="1" stroke-miterlimit="10"/><path fill="#00a5e9" d="M 238.867188 77.855469 L 246.957031 77.855469 L 246.957031 29.867188 L 238.867188 29.867188 Z M 246.699219 30.117188 L 246.699219 77.601562 L 239.121094 77.601562 L 239.121094 30.117188 Z M 246.699219 30.117188 " fill-opacity="1" fill-rule="nonzero"/></g><g clip-path="url(#aa483f77d7)"><path fill="#00a5e9" d="M 240.5 84.203125 C 240.175781 84.203125 239.863281 84.203125 239.554688 84.203125 C 239.800781 83.019531 239.65625 81.824219 239.671875 80.628906 C 239.683594 79.421875 239.671875 78.214844 239.671875 76.996094 C 239.671875 70 239.671875 63.011719 239.671875 56.015625 C 239.671875 49.703125 239.671875 43.390625 239.671875 37.078125 C 239.671875 34.152344 239.671875 31.242188 239.65625 28.316406 C 239.65625 27.992188 239.621094 27.679688 239.59375 27.332031 C 239.851562 27.332031 240.164062 27.332031 240.421875 27.332031 C 240.265625 28.550781 240.355469 29.785156 240.34375 31.003906 C 240.332031 37.316406 240.34375 43.617188 240.34375 49.929688 C 240.34375 51.421875 240.316406 52.902344 240.316406 54.398438 C 240.316406 61.832031 240.332031 69.25 240.34375 76.683594 C 240.34375 78.078125 240.316406 79.472656 240.316406 80.867188 C 240.316406 81.777344 240.332031 82.699219 240.355469 83.605469 C 240.355469 83.792969 240.445312 83.992188 240.5 84.203125 Z M 240.5 84.203125 " fill-opacity="1" fill-rule="nonzero"/></g><g clip-path="url(#2bbf8135f1)"><path fill="#00a5e9" d="M 238.882812 26.046875 C 239.398438 26.210938 239.75 26.046875 240.007812 25.636719 C 240.253906 26.0625 240.640625 26.160156 241.105469 26.136719 C 241.003906 26.421875 240.914062 26.695312 240.796875 26.957031 C 240.746094 27.042969 240.601562 27.144531 240.5 27.15625 C 240.097656 27.179688 239.695312 27.167969 239.28125 27.167969 C 239.152344 26.796875 239.023438 26.445312 238.882812 26.046875 Z M 238.882812 26.046875 " fill-opacity="1" fill-rule="nonzero"/></g><g clip-path="url(#0be9ce3226)"><path fill="#00a5e9" d="M 242.957031 38.488281 L 250.335938 38.488281 L 250.335938 78.234375 L 242.957031 78.234375 Z M 242.957031 38.488281 " fill-opacity="1" fill-rule="nonzero"/></g><g clip-path="url(#efe954056d)"><path stroke-linecap="butt" transform="matrix(0.000000000000000013, -0.205639, 0.213461, 0.000000000000000013, 242.957216, 78.237763)" fill-opacity="1" fill="#00a5e9" fill-rule="nonzero" stroke-linejoin="miter" d="M 1.992026 1.993786 L 191.283966 1.993786 L 191.283966 32.572349 L 1.992026 32.572349 Z M 1.992026 1.993786 " stroke="#ffffff" stroke-width="0.5" stroke-opacity="1" stroke-miterlimit="10"/><path fill="#00a5e9" d="M 243.277344 77.929688 L 250.015625 77.929688 L 250.015625 38.800781 L 243.277344 38.800781 Z M 249.804688 39.007812 L 249.804688 77.722656 L 243.492188 77.722656 L 243.492188 39.007812 Z M 249.804688 39.007812 " fill-opacity="1" fill-rule="nonzero"/></g><g fill="#ffffff" fill-opacity="1"><g transform="translate(18.193836, 77.300819)"><g><path d="M 24.5625 -18.296875 C 26.800781 -18.296875 28.71875 -18.203125 30.3125 -18.015625 C 31.90625 -17.835938 33.25 -17.566406 34.34375 -17.203125 C 35.4375 -16.847656 36.304688 -16.398438 36.953125 -15.859375 C 37.609375 -15.328125 38.109375 -14.71875 38.453125 -14.03125 C 38.804688 -13.34375 39.035156 -12.578125 39.140625 -11.734375 C 39.253906 -10.890625 39.3125 -9.972656 39.3125 -8.984375 C 39.3125 -7.992188 39.222656 -7.0625 39.046875 -6.1875 C 38.867188 -5.320312 38.550781 -4.53125 38.09375 -3.8125 C 37.644531 -3.09375 37.03125 -2.445312 36.25 -1.875 C 35.476562 -1.3125 34.492188 -0.832031 33.296875 -0.4375 C 32.097656 -0.0507812 30.65625 0.242188 28.96875 0.453125 C 27.28125 0.660156 25.304688 0.765625 23.046875 0.765625 L 17.625 0.765625 C 15.59375 0.765625 13.8125 0.6875 12.28125 0.53125 C 10.757812 0.375 9.445312 0.140625 8.34375 -0.171875 C 7.238281 -0.492188 6.328125 -0.898438 5.609375 -1.390625 C 4.890625 -1.878906 4.3125 -2.453125 3.875 -3.109375 C 3.445312 -3.765625 3.148438 -4.507812 2.984375 -5.34375 C 2.816406 -6.1875 2.734375 -7.117188 2.734375 -8.140625 L 6.796875 -8.140625 C 6.796875 -6.867188 6.976562 -5.867188 7.34375 -5.140625 C 7.71875 -4.421875 8.328125 -3.878906 9.171875 -3.515625 C 10.015625 -3.160156 11.125 -2.9375 12.5 -2.84375 C 13.882812 -2.757812 15.59375 -2.71875 17.625 -2.71875 L 23.046875 -2.71875 C 25.410156 -2.71875 27.375 -2.828125 28.9375 -3.046875 C 30.507812 -3.273438 31.757812 -3.632812 32.6875 -4.125 C 33.625 -4.625 34.285156 -5.269531 34.671875 -6.0625 C 35.054688 -6.863281 35.25 -7.835938 35.25 -8.984375 C 35.25 -10.128906 35.113281 -11.082031 34.84375 -11.84375 C 34.582031 -12.601562 34.066406 -13.207031 33.296875 -13.65625 C 32.535156 -14.113281 31.453125 -14.4375 30.046875 -14.625 C 28.648438 -14.8125 26.820312 -14.90625 24.5625 -14.90625 L 18.984375 -14.90625 C 16.492188 -14.90625 14.363281 -14.992188 12.59375 -15.171875 C 10.820312 -15.359375 9.332031 -15.625 8.125 -15.96875 C 6.925781 -16.320312 5.96875 -16.753906 5.25 -17.265625 C 4.53125 -17.785156 3.984375 -18.375 3.609375 -19.03125 C 3.234375 -19.695312 2.988281 -20.4375 2.875 -21.25 C 2.769531 -22.0625 2.71875 -22.941406 2.71875 -23.890625 C 2.71875 -24.878906 2.800781 -25.796875 2.96875 -26.640625 C 3.144531 -27.492188 3.472656 -28.257812 3.953125 -28.9375 C 4.441406 -29.625 5.101562 -30.234375 5.9375 -30.765625 C 6.769531 -31.304688 7.835938 -31.753906 9.140625 -32.109375 C 10.441406 -32.472656 12.007812 -32.742188 13.84375 -32.921875 C 15.6875 -33.109375 17.847656 -33.203125 20.328125 -33.203125 L 24.40625 -33.203125 C 26.4375 -33.203125 28.210938 -33.128906 29.734375 -32.984375 C 31.253906 -32.835938 32.566406 -32.601562 33.671875 -32.28125 C 34.773438 -31.96875 35.691406 -31.570312 36.421875 -31.09375 C 37.148438 -30.625 37.726562 -30.0625 38.15625 -29.40625 C 38.582031 -28.75 38.878906 -28.003906 39.046875 -27.171875 C 39.222656 -26.335938 39.3125 -25.414062 39.3125 -24.40625 L 35.25 -24.40625 C 35.25 -25.664062 35.0625 -26.65625 34.6875 -27.375 C 34.320312 -28.101562 33.710938 -28.644531 32.859375 -29 C 32.015625 -29.363281 30.898438 -29.59375 29.515625 -29.6875 C 28.140625 -29.78125 26.4375 -29.828125 24.40625 -29.828125 L 20.328125 -29.828125 C 17.617188 -29.828125 15.390625 -29.726562 13.640625 -29.53125 C 11.890625 -29.34375 10.503906 -29.019531 9.484375 -28.5625 C 8.472656 -28.113281 7.769531 -27.507812 7.375 -26.75 C 6.976562 -25.988281 6.78125 -25.035156 6.78125 -23.890625 C 6.78125 -23.179688 6.828125 -22.550781 6.921875 -22 C 7.023438 -21.445312 7.226562 -20.960938 7.53125 -20.546875 C 7.832031 -20.128906 8.257812 -19.78125 8.8125 -19.5 C 9.363281 -19.21875 10.085938 -18.984375 10.984375 -18.796875 C 11.890625 -18.617188 12.992188 -18.488281 14.296875 -18.40625 C 15.609375 -18.332031 17.171875 -18.296875 18.984375 -18.296875 Z M 24.5625 -18.296875 "/></g></g></g><g fill="#ffffff" fill-opacity="1"><g transform="translate(72.78804, 77.300819)"><g><path d="M 34.5625 -32.53125 L 40.671875 -32.53125 L 17.625 -16.609375 L 41.34375 0 L 35.25 0 L 13.5625 -14.90625 L 8.140625 -14.90625 L 8.140625 0 L 4.0625 0 L 4.0625 -32.53125 L 8.140625 -32.53125 L 8.140625 -18.296875 L 13.5625 -18.296875 Z M 34.5625 -32.53125 "/></g></g></g><g fill="#ffffff" fill-opacity="1"><g transform="translate(128.059899, 77.300819)"><g><path d="M 2.71875 -32.53125 L 8.140625 -32.53125 L 23.046875 -16.609375 L 37.953125 -32.53125 L 43.375 -32.53125 L 25.078125 -13.5625 L 25.078125 0 L 21.015625 0 L 21.015625 -13.5625 Z M 2.71875 -32.53125 "/></g></g></g><g fill="#ffffff" fill-opacity="1"><g transform="translate(187.228269, 77.300819)"><g><path d="M 4.0625 0 L 4.0625 -32.53125 L 8.140625 -32.53125 L 8.140625 -3.390625 L 33.890625 -3.390625 L 33.890625 0 Z M 4.0625 0 "/></g></g></g><g fill="#ffffff" fill-opacity="1"><g transform="translate(235.045931, 77.300819)"><g/></g></g><g fill="#ffffff" fill-opacity="1"><g transform="translate(257.112723, 77.300819)"><g><path d="M 8.140625 0 L 4.0625 0 L 4.0625 -32.53125 L 11.203125 -32.53125 L 41.03125 -4.0625 L 41.03125 -32.53125 L 45.09375 -32.53125 L 45.09375 0 L 39.671875 0 L 8.140625 -29.140625 Z M 8.140625 0 "/></g></g></g><g fill="#ffffff" fill-opacity="1"><g transform="translate(318.843473, 77.300819)"><g><path d="M 4.0625 0 L 4.0625 -32.53125 L 36.59375 -32.53125 L 36.59375 -29.140625 L 8.140625 -29.140625 L 8.140625 -18.296875 L 35.25 -18.296875 L 35.25 -14.90625 L 8.140625 -14.90625 L 8.140625 -3.390625 L 36.59375 -3.390625 L 36.59375 0 Z M 4.0625 0 "/></g></g></g><g fill="#ffffff" fill-opacity="1"><g transform="translate(67.289961, 105.745555)"><g><path d="M 12.453125 -1.484375 C 13.242188 -1.484375 13.910156 -1.503906 14.453125 -1.546875 C 14.992188 -1.585938 15.441406 -1.675781 15.796875 -1.8125 C 16.148438 -1.945312 16.421875 -2.140625 16.609375 -2.390625 C 16.804688 -2.648438 16.945312 -2.988281 17.03125 -3.40625 C 17.125 -3.820312 17.175781 -4.332031 17.1875 -4.9375 C 17.207031 -5.550781 17.21875 -6.28125 17.21875 -7.125 C 17.21875 -7.96875 17.207031 -8.691406 17.1875 -9.296875 C 17.175781 -9.910156 17.125 -10.425781 17.03125 -10.84375 C 16.945312 -11.257812 16.804688 -11.59375 16.609375 -11.84375 C 16.421875 -12.101562 16.148438 -12.300781 15.796875 -12.4375 C 15.441406 -12.570312 14.992188 -12.660156 14.453125 -12.703125 C 13.910156 -12.742188 13.242188 -12.765625 12.453125 -12.765625 L 3.5625 -12.765625 L 3.5625 -1.484375 Z M 1.78125 0 L 1.78125 -14.25 L 12.453125 -14.25 C 13.546875 -14.25 14.460938 -14.1875 15.203125 -14.0625 C 15.953125 -13.9375 16.566406 -13.742188 17.046875 -13.484375 C 17.535156 -13.222656 17.910156 -12.894531 18.171875 -12.5 C 18.441406 -12.113281 18.632812 -11.65625 18.75 -11.125 C 18.875 -10.59375 18.945312 -9.992188 18.96875 -9.328125 C 18.988281 -8.671875 19 -7.9375 19 -7.125 C 19 -6.3125 18.988281 -5.570312 18.96875 -4.90625 C 18.945312 -4.25 18.875 -3.65625 18.75 -3.125 C 18.632812 -2.59375 18.441406 -2.128906 18.171875 -1.734375 C 17.910156 -1.347656 17.535156 -1.023438 17.046875 -0.765625 C 16.566406 -0.503906 15.953125 -0.3125 15.203125 -0.1875 C 14.460938 -0.0625 13.546875 0 12.453125 0 Z M 1.78125 0 "/></g></g></g><g fill="#ffffff" fill-opacity="1"><g transform="translate(92.01579, 105.745555)"><g><path d="M 1.78125 -14.25 L 3.5625 -14.25 L 3.5625 0 L 1.78125 0 Z M 1.78125 -14.25 "/></g></g></g><g fill="#ffffff" fill-opacity="1"><g transform="translate(101.900831, 105.745555)"><g><path d="M 10.765625 -8.015625 C 11.742188 -8.015625 12.582031 -7.972656 13.28125 -7.890625 C 13.976562 -7.816406 14.566406 -7.695312 15.046875 -7.53125 C 15.523438 -7.375 15.90625 -7.175781 16.1875 -6.9375 C 16.46875 -6.707031 16.6875 -6.441406 16.84375 -6.140625 C 17 -5.847656 17.097656 -5.515625 17.140625 -5.140625 C 17.191406 -4.765625 17.21875 -4.363281 17.21875 -3.9375 C 17.21875 -3.5 17.175781 -3.085938 17.09375 -2.703125 C 17.019531 -2.328125 16.882812 -1.984375 16.6875 -1.671875 C 16.488281 -1.359375 16.21875 -1.078125 15.875 -0.828125 C 15.539062 -0.578125 15.109375 -0.363281 14.578125 -0.1875 C 14.054688 -0.0195312 13.425781 0.101562 12.6875 0.1875 C 11.945312 0.28125 11.082031 0.328125 10.09375 0.328125 L 7.71875 0.328125 C 6.832031 0.328125 6.050781 0.289062 5.375 0.21875 C 4.707031 0.15625 4.132812 0.0546875 3.65625 -0.078125 C 3.175781 -0.210938 2.773438 -0.382812 2.453125 -0.59375 C 2.140625 -0.8125 1.890625 -1.066406 1.703125 -1.359375 C 1.515625 -1.648438 1.382812 -1.976562 1.3125 -2.34375 C 1.238281 -2.707031 1.203125 -3.113281 1.203125 -3.5625 L 2.984375 -3.5625 C 2.984375 -3.007812 3.0625 -2.570312 3.21875 -2.25 C 3.375 -1.9375 3.640625 -1.703125 4.015625 -1.546875 C 4.390625 -1.390625 4.878906 -1.289062 5.484375 -1.25 C 6.085938 -1.207031 6.832031 -1.1875 7.71875 -1.1875 L 10.09375 -1.1875 C 11.132812 -1.1875 12 -1.234375 12.6875 -1.328125 C 13.375 -1.429688 13.921875 -1.59375 14.328125 -1.8125 C 14.734375 -2.03125 15.019531 -2.3125 15.1875 -2.65625 C 15.351562 -3.007812 15.4375 -3.4375 15.4375 -3.9375 C 15.4375 -4.4375 15.378906 -4.851562 15.265625 -5.1875 C 15.148438 -5.519531 14.921875 -5.785156 14.578125 -5.984375 C 14.242188 -6.179688 13.769531 -6.320312 13.15625 -6.40625 C 12.550781 -6.488281 11.753906 -6.53125 10.765625 -6.53125 L 8.3125 -6.53125 C 7.226562 -6.53125 6.296875 -6.566406 5.515625 -6.640625 C 4.734375 -6.722656 4.082031 -6.84375 3.5625 -7 C 3.039062 -7.15625 2.617188 -7.34375 2.296875 -7.5625 C 1.984375 -7.789062 1.742188 -8.050781 1.578125 -8.34375 C 1.421875 -8.632812 1.316406 -8.957031 1.265625 -9.3125 C 1.210938 -9.664062 1.1875 -10.050781 1.1875 -10.46875 C 1.1875 -10.894531 1.222656 -11.296875 1.296875 -11.671875 C 1.378906 -12.046875 1.523438 -12.378906 1.734375 -12.671875 C 1.941406 -12.972656 2.226562 -13.238281 2.59375 -13.46875 C 2.957031 -13.707031 3.425781 -13.90625 4 -14.0625 C 4.570312 -14.226562 5.257812 -14.347656 6.0625 -14.421875 C 6.875 -14.503906 7.820312 -14.546875 8.90625 -14.546875 L 10.6875 -14.546875 C 11.582031 -14.546875 12.363281 -14.515625 13.03125 -14.453125 C 13.695312 -14.390625 14.269531 -14.285156 14.75 -14.140625 C 15.226562 -14.003906 15.628906 -13.832031 15.953125 -13.625 C 16.273438 -13.414062 16.53125 -13.164062 16.71875 -12.875 C 16.90625 -12.59375 17.035156 -12.269531 17.109375 -11.90625 C 17.179688 -11.539062 17.21875 -11.132812 17.21875 -10.6875 L 15.4375 -10.6875 C 15.4375 -11.238281 15.351562 -11.671875 15.1875 -11.984375 C 15.03125 -12.304688 14.765625 -12.546875 14.390625 -12.703125 C 14.023438 -12.859375 13.539062 -12.957031 12.9375 -13 C 12.332031 -13.039062 11.582031 -13.0625 10.6875 -13.0625 L 8.90625 -13.0625 C 7.71875 -13.0625 6.738281 -13.019531 5.96875 -12.9375 C 5.207031 -12.851562 4.601562 -12.710938 4.15625 -12.515625 C 3.707031 -12.316406 3.394531 -12.050781 3.21875 -11.71875 C 3.050781 -11.382812 2.96875 -10.96875 2.96875 -10.46875 C 2.96875 -10.15625 2.988281 -9.878906 3.03125 -9.640625 C 3.070312 -9.398438 3.160156 -9.1875 3.296875 -9 C 3.429688 -8.820312 3.617188 -8.671875 3.859375 -8.546875 C 4.097656 -8.421875 4.414062 -8.316406 4.8125 -8.234375 C 5.207031 -8.160156 5.691406 -8.101562 6.265625 -8.0625 C 6.835938 -8.03125 7.519531 -8.015625 8.3125 -8.015625 Z M 10.765625 -8.015625 "/></g></g></g><g fill="#ffffff" fill-opacity="1"><g transform="translate(124.845766, 105.745555)"><g><path d="M 17.21875 -14.25 L 17.21875 -12.765625 L 10.09375 -12.765625 L 10.09375 0 L 8.3125 0 L 8.3125 -12.765625 L 1.1875 -12.765625 L 1.1875 -14.25 Z M 17.21875 -14.25 "/></g></g></g><g fill="#ffffff" fill-opacity="1"><g transform="translate(147.790701, 105.745555)"><g><path d="M 18.109375 0 L 16.328125 0 L 16.328125 -2.671875 C 16.328125 -3.109375 16.316406 -3.484375 16.296875 -3.796875 C 16.285156 -4.109375 16.234375 -4.375 16.140625 -4.59375 C 16.054688 -4.8125 15.914062 -4.988281 15.71875 -5.125 C 15.53125 -5.257812 15.257812 -5.363281 14.90625 -5.4375 C 14.550781 -5.519531 14.101562 -5.570312 13.5625 -5.59375 C 13.019531 -5.625 12.351562 -5.640625 11.5625 -5.640625 L 3.5625 -5.640625 L 3.5625 0 L 1.78125 0 L 1.78125 -14.25 L 11.859375 -14.25 C 12.953125 -14.25 13.867188 -14.207031 14.609375 -14.125 C 15.359375 -14.050781 15.972656 -13.9375 16.453125 -13.78125 C 16.941406 -13.625 17.316406 -13.429688 17.578125 -13.203125 C 17.847656 -12.984375 18.039062 -12.71875 18.15625 -12.40625 C 18.28125 -12.09375 18.351562 -11.742188 18.375 -11.359375 C 18.394531 -10.984375 18.40625 -10.5625 18.40625 -10.09375 C 18.40625 -9.5 18.363281 -8.976562 18.28125 -8.53125 C 18.195312 -8.082031 18.054688 -7.695312 17.859375 -7.375 C 17.660156 -7.0625 17.394531 -6.8125 17.0625 -6.625 C 16.738281 -6.4375 16.332031 -6.304688 15.84375 -6.234375 C 16.332031 -6.160156 16.722656 -6.03125 17.015625 -5.84375 C 17.316406 -5.65625 17.546875 -5.410156 17.703125 -5.109375 C 17.867188 -4.816406 17.976562 -4.46875 18.03125 -4.0625 C 18.082031 -3.65625 18.109375 -3.191406 18.109375 -2.671875 Z M 3.5625 -7.125 L 11.859375 -7.125 C 12.648438 -7.125 13.316406 -7.132812 13.859375 -7.15625 C 14.398438 -7.1875 14.847656 -7.238281 15.203125 -7.3125 C 15.554688 -7.394531 15.828125 -7.503906 16.015625 -7.640625 C 16.210938 -7.773438 16.351562 -7.953125 16.4375 -8.171875 C 16.53125 -8.390625 16.582031 -8.65625 16.59375 -8.96875 C 16.613281 -9.28125 16.625 -9.65625 16.625 -10.09375 C 16.625 -10.5 16.613281 -10.84375 16.59375 -11.125 C 16.582031 -11.414062 16.53125 -11.660156 16.4375 -11.859375 C 16.351562 -12.054688 16.210938 -12.210938 16.015625 -12.328125 C 15.828125 -12.453125 15.554688 -12.546875 15.203125 -12.609375 C 14.847656 -12.671875 14.398438 -12.710938 13.859375 -12.734375 C 13.316406 -12.753906 12.648438 -12.765625 11.859375 -12.765625 L 3.5625 -12.765625 Z M 3.5625 -7.125 "/></g></g></g><g fill="#ffffff" fill-opacity="1"><g transform="translate(171.922893, 105.745555)"><g><path d="M 1.78125 -14.25 L 3.5625 -14.25 L 3.5625 0 L 1.78125 0 Z M 1.78125 -14.25 "/></g></g></g><g fill="#ffffff" fill-opacity="1"><g transform="translate(181.807929, 105.745555)"><g><path d="M 1.78125 0 L 1.78125 -14.25 L 13.671875 -14.25 C 14.554688 -14.25 15.269531 -14.175781 15.8125 -14.03125 C 16.363281 -13.882812 16.785156 -13.671875 17.078125 -13.390625 C 17.367188 -13.109375 17.5625 -12.753906 17.65625 -12.328125 C 17.757812 -11.910156 17.8125 -11.429688 17.8125 -10.890625 C 17.8125 -10.492188 17.773438 -10.144531 17.703125 -9.84375 C 17.640625 -9.539062 17.550781 -9.273438 17.4375 -9.046875 C 17.332031 -8.828125 17.207031 -8.640625 17.0625 -8.484375 C 16.914062 -8.335938 16.769531 -8.21875 16.625 -8.125 C 16.28125 -7.882812 15.882812 -7.75 15.4375 -7.71875 C 15.988281 -7.6875 16.484375 -7.550781 16.921875 -7.3125 C 17.109375 -7.207031 17.289062 -7.078125 17.46875 -6.921875 C 17.644531 -6.765625 17.800781 -6.566406 17.9375 -6.328125 C 18.070312 -6.097656 18.179688 -5.828125 18.265625 -5.515625 C 18.359375 -5.203125 18.40625 -4.84375 18.40625 -4.4375 C 18.40625 -3.9375 18.378906 -3.476562 18.328125 -3.0625 C 18.285156 -2.65625 18.191406 -2.285156 18.046875 -1.953125 C 17.910156 -1.628906 17.707031 -1.34375 17.4375 -1.09375 C 17.175781 -0.851562 16.820312 -0.648438 16.375 -0.484375 C 15.9375 -0.316406 15.394531 -0.191406 14.75 -0.109375 C 14.113281 -0.0351562 13.347656 0 12.453125 0 Z M 11.859375 -1.484375 C 12.554688 -1.484375 13.15625 -1.492188 13.65625 -1.515625 C 14.164062 -1.535156 14.597656 -1.582031 14.953125 -1.65625 C 15.304688 -1.726562 15.59375 -1.828125 15.8125 -1.953125 C 16.03125 -2.085938 16.195312 -2.265625 16.3125 -2.484375 C 16.4375 -2.710938 16.519531 -2.984375 16.5625 -3.296875 C 16.601562 -3.609375 16.625 -3.988281 16.625 -4.4375 C 16.625 -4.78125 16.601562 -5.078125 16.5625 -5.328125 C 16.519531 -5.585938 16.4375 -5.804688 16.3125 -5.984375 C 16.195312 -6.160156 16.03125 -6.300781 15.8125 -6.40625 C 15.59375 -6.519531 15.304688 -6.609375 14.953125 -6.671875 C 14.597656 -6.734375 14.164062 -6.773438 13.65625 -6.796875 C 13.15625 -6.816406 12.554688 -6.828125 11.859375 -6.828125 L 3.5625 -6.828125 L 3.5625 -1.484375 Z M 11.859375 -8.3125 C 12.472656 -8.3125 13 -8.320312 13.4375 -8.34375 C 13.875 -8.375 14.242188 -8.421875 14.546875 -8.484375 C 14.859375 -8.554688 15.109375 -8.648438 15.296875 -8.765625 C 15.492188 -8.890625 15.644531 -9.046875 15.75 -9.234375 C 15.863281 -9.429688 15.9375 -9.660156 15.96875 -9.921875 C 16.007812 -10.191406 16.03125 -10.515625 16.03125 -10.890625 C 16.03125 -11.285156 15.984375 -11.609375 15.890625 -11.859375 C 15.804688 -12.109375 15.65625 -12.296875 15.4375 -12.421875 C 15.21875 -12.554688 14.914062 -12.644531 14.53125 -12.6875 C 14.15625 -12.738281 13.671875 -12.765625 13.078125 -12.765625 L 3.5625 -12.765625 L 3.5625 -8.3125 Z M 11.859375 -8.3125 "/></g></g></g><g fill="#ffffff" fill-opacity="1"><g transform="translate(205.940122, 105.745555)"><g><path d="M 18.421875 -14.25 L 18.421875 -7.125 C 18.421875 -6.28125 18.40625 -5.507812 18.375 -4.8125 C 18.351562 -4.125 18.28125 -3.503906 18.15625 -2.953125 C 18.039062 -2.410156 17.851562 -1.929688 17.59375 -1.515625 C 17.332031 -1.109375 16.960938 -0.769531 16.484375 -0.5 C 16.003906 -0.238281 15.390625 -0.0390625 14.640625 0.09375 C 13.898438 0.226562 12.984375 0.296875 11.890625 0.296875 L 7.71875 0.296875 C 6.632812 0.296875 5.71875 0.226562 4.96875 0.09375 C 4.21875 -0.0390625 3.601562 -0.238281 3.125 -0.5 C 2.644531 -0.769531 2.269531 -1.109375 2 -1.515625 C 1.738281 -1.929688 1.546875 -2.410156 1.421875 -2.953125 C 1.304688 -3.503906 1.238281 -4.125 1.21875 -4.8125 C 1.207031 -5.507812 1.203125 -6.28125 1.203125 -7.125 L 1.203125 -14.25 L 2.984375 -14.25 L 2.984375 -7.125 C 2.984375 -6.238281 2.988281 -5.472656 3 -4.828125 C 3.019531 -4.191406 3.070312 -3.648438 3.15625 -3.203125 C 3.238281 -2.765625 3.375 -2.410156 3.5625 -2.140625 C 3.75 -1.878906 4.019531 -1.675781 4.375 -1.53125 C 4.726562 -1.394531 5.175781 -1.300781 5.71875 -1.25 C 6.257812 -1.207031 6.925781 -1.1875 7.71875 -1.1875 L 11.890625 -1.1875 C 12.679688 -1.1875 13.347656 -1.207031 13.890625 -1.25 C 14.429688 -1.300781 14.875 -1.394531 15.21875 -1.53125 C 15.570312 -1.675781 15.84375 -1.878906 16.03125 -2.140625 C 16.226562 -2.410156 16.367188 -2.765625 16.453125 -3.203125 C 16.546875 -3.648438 16.597656 -4.191406 16.609375 -4.828125 C 16.628906 -5.472656 16.640625 -6.238281 16.640625 -7.125 L 16.625 -14.25 Z M 18.421875 -14.25 "/></g></g></g><g fill="#ffffff" fill-opacity="1"><g transform="translate(230.08159, 105.745555)"><g><path d="M 17.21875 -14.25 L 17.21875 -12.765625 L 10.09375 -12.765625 L 10.09375 0 L 8.3125 0 L 8.3125 -12.765625 L 1.1875 -12.765625 L 1.1875 -14.25 Z M 17.21875 -14.25 "/></g></g></g><g fill="#ffffff" fill-opacity="1"><g transform="translate(253.02652, 105.745555)"><g><path d="M 1.78125 -14.25 L 3.5625 -14.25 L 3.5625 0 L 1.78125 0 Z M 1.78125 -14.25 "/></g></g></g><g fill="#ffffff" fill-opacity="1"><g transform="translate(262.911556, 105.745555)"><g><path d="M 13.078125 -14.546875 C 14.160156 -14.546875 15.070312 -14.476562 15.8125 -14.34375 C 16.5625 -14.207031 17.175781 -14.003906 17.65625 -13.734375 C 18.144531 -13.472656 18.519531 -13.132812 18.78125 -12.71875 C 19.039062 -12.3125 19.226562 -11.832031 19.34375 -11.28125 C 19.46875 -10.738281 19.539062 -10.117188 19.5625 -9.421875 C 19.582031 -8.734375 19.59375 -7.96875 19.59375 -7.125 C 19.59375 -6.28125 19.582031 -5.507812 19.5625 -4.8125 C 19.539062 -4.125 19.46875 -3.503906 19.34375 -2.953125 C 19.226562 -2.410156 19.039062 -1.929688 18.78125 -1.515625 C 18.519531 -1.109375 18.144531 -0.769531 17.65625 -0.5 C 17.175781 -0.238281 16.5625 -0.0390625 15.8125 0.09375 C 15.070312 0.226562 14.160156 0.296875 13.078125 0.296875 L 7.703125 0.296875 C 6.617188 0.296875 5.703125 0.226562 4.953125 0.09375 C 4.210938 -0.0390625 3.597656 -0.238281 3.109375 -0.5 C 2.628906 -0.769531 2.257812 -1.109375 2 -1.515625 C 1.738281 -1.929688 1.546875 -2.410156 1.421875 -2.953125 C 1.304688 -3.503906 1.238281 -4.125 1.21875 -4.8125 C 1.195312 -5.507812 1.1875 -6.28125 1.1875 -7.125 C 1.1875 -7.96875 1.195312 -8.734375 1.21875 -9.421875 C 1.238281 -10.117188 1.304688 -10.738281 1.421875 -11.28125 C 1.546875 -11.832031 1.738281 -12.3125 2 -12.71875 C 2.257812 -13.132812 2.628906 -13.472656 3.109375 -13.734375 C 3.597656 -14.003906 4.210938 -14.207031 4.953125 -14.34375 C 5.703125 -14.476562 6.617188 -14.546875 7.703125 -14.546875 Z M 13.078125 -1.1875 C 13.859375 -1.1875 14.519531 -1.207031 15.0625 -1.25 C 15.601562 -1.300781 16.050781 -1.394531 16.40625 -1.53125 C 16.757812 -1.675781 17.03125 -1.878906 17.21875 -2.140625 C 17.40625 -2.410156 17.539062 -2.765625 17.625 -3.203125 C 17.71875 -3.648438 17.769531 -4.191406 17.78125 -4.828125 C 17.800781 -5.472656 17.8125 -6.238281 17.8125 -7.125 C 17.8125 -8.019531 17.800781 -8.785156 17.78125 -9.421875 C 17.769531 -10.054688 17.71875 -10.59375 17.625 -11.03125 C 17.539062 -11.476562 17.40625 -11.832031 17.21875 -12.09375 C 17.03125 -12.363281 16.757812 -12.566406 16.40625 -12.703125 C 16.0625 -12.847656 15.617188 -12.941406 15.078125 -12.984375 C 14.535156 -13.035156 13.867188 -13.0625 13.078125 -13.0625 L 7.703125 -13.0625 C 6.910156 -13.0625 6.242188 -13.035156 5.703125 -12.984375 C 5.171875 -12.941406 4.726562 -12.847656 4.375 -12.703125 C 4.019531 -12.566406 3.742188 -12.363281 3.546875 -12.09375 C 3.359375 -11.832031 3.21875 -11.476562 3.125 -11.03125 C 3.039062 -10.59375 2.992188 -10.054688 2.984375 -9.421875 C 2.972656 -8.785156 2.96875 -8.019531 2.96875 -7.125 C 2.96875 -6.238281 2.972656 -5.472656 2.984375 -4.828125 C 3.003906 -4.191406 3.054688 -3.648438 3.140625 -3.203125 C 3.234375 -2.765625 3.375 -2.410156 3.5625 -2.140625 C 3.75 -1.878906 4.019531 -1.675781 4.375 -1.53125 C 4.726562 -1.394531 5.171875 -1.300781 5.703125 -1.25 C 6.242188 -1.207031 6.910156 -1.1875 7.703125 -1.1875 Z M 13.078125 -1.1875 "/></g></g></g><g fill="#ffffff" fill-opacity="1"><g transform="translate(288.231012, 105.745555)"><g><path d="M 3.5625 0 L 1.78125 0 L 1.78125 -14.25 L 4.90625 -14.25 L 17.96875 -1.78125 L 17.96875 -14.25 L 19.75 -14.25 L 19.75 0 L 17.375 0 L 3.5625 -12.765625 Z M 3.5625 0 "/></g></g></g><g clip-path="url(#ef56c059f9)"><path fill="#00a5e9" d="M 60.0625 97.492188 L 60.0625 104.136719 L 21.816406 104.136719 L 21.816406 97.492188 Z M 60.0625 97.492188 " fill-opacity="1" fill-rule="nonzero"/></g><g clip-path="url(#ea059ee1a8)"><path stroke-linecap="butt" transform="matrix(0.197879, 0, 0, 0.192293, 21.816028, 97.490848)" fill-opacity="1" fill="#00a5e9" fill-rule="nonzero" stroke-linejoin="miter" d="M 1.995714 1.997742 L 191.28838 1.997742 L 191.28838 32.57034 L 1.995714 32.57034 Z M 1.995714 1.997742 " stroke="#ffffff" stroke-width="0.5" stroke-opacity="1" stroke-miterlimit="10"/><path fill="#00a5e9" d="M 22.113281 97.777344 L 22.113281 103.851562 L 59.765625 103.851562 L 59.765625 97.777344 Z M 59.566406 103.65625 L 22.3125 103.65625 L 22.3125 97.972656 L 59.566406 97.972656 Z M 59.566406 103.65625 " fill-opacity="1" fill-rule="nonzero"/></g><g clip-path="url(#c671bd5cee)"><path fill="#00a5e9" d="M 355.046875 97.492188 L 355.046875 104.136719 L 316.800781 104.136719 L 316.800781 97.492188 Z M 355.046875 97.492188 " fill-opacity="1" fill-rule="nonzero"/></g><g clip-path="url(#9dea31a329)"><path stroke-linecap="butt" transform="matrix(0.197879, 0, 0, 0.192293, 316.799164, 97.490848)" fill-opacity="1" fill="#00a5e9" fill-rule="nonzero" stroke-linejoin="miter" d="M 2.001975 1.997742 L 191.274901 1.997742 L 191.274901 32.57034 L 2.001975 32.57034 Z M 2.001975 1.997742 " stroke="#ffffff" stroke-width="0.5" stroke-opacity="1" stroke-miterlimit="10"/><path fill="#00a5e9" d="M 317.097656 97.777344 L 317.097656 103.851562 L 354.75 103.851562 L 354.75 97.777344 Z M 354.550781 103.65625 L 317.292969 103.65625 L 317.292969 97.972656 L 354.550781 97.972656 Z M 354.550781 103.65625 " fill-opacity="1" fill-rule="nonzero"/></g><g clip-path="url(#67ca38d809)"><path fill="#00a5e9" d="M 234.09375 29.082031 L 242.949219 29.082031 L 242.949219 78.578125 L 234.09375 78.578125 Z M 234.09375 29.082031 " fill-opacity="1" fill-rule="nonzero"/><path stroke-linecap="butt" transform="matrix(0.000000000000000016, -0.256079, 0.256139, 0.000000000000000016, 234.094369, 78.580075)" fill-opacity="1" fill="#00a5e9" fill-rule="nonzero" stroke-linejoin="miter" d="M 2.005903 1.995398 L 191.27883 1.995398 L 191.27883 32.572658 L 2.005903 32.572658 Z M 2.005903 1.995398 " stroke="#ffffff" stroke-width="0.5" stroke-opacity="1" stroke-miterlimit="10"/><path fill="#00a5e9" d="M 234.480469 78.195312 L 242.566406 78.195312 L 242.566406 29.46875 L 234.480469 29.46875 Z M 242.308594 29.726562 L 242.308594 77.941406 L 234.734375 77.941406 L 234.734375 29.726562 Z M 242.308594 29.726562 " fill-opacity="1" fill-rule="nonzero"/></g></svg>